<svg width="32" height="32" viewBox="0 0 32 32" fill="none" xmlns="http://www.w3.org/2000/svg">
<path d="M8.15227 25.5135C8.20533 25.5618 8.20963 25.6443 8.16088 25.6969C8.13507 25.7253 8.09922 25.7381 8.06481 25.7381C8.03326 25.7381 8.00171 25.7267 7.97734 25.704C7.62174 25.3813 7.28192 25.0358 6.96646 24.6747C6.91914 24.6207 6.92488 24.5382 6.97937 24.4913C7.03386 24.4444 7.11702 24.4501 7.16434 24.5041C7.47119 24.8581 7.80385 25.1964 8.15227 25.5135ZM4.53604 19.5694C4.5174 19.4997 4.4457 19.4585 4.37688 19.477C4.30662 19.4954 4.26504 19.5665 4.28368 19.6348C4.40412 20.0968 4.55468 20.556 4.72816 21.001C4.74824 21.0522 4.79842 21.0835 4.85004 21.0835C4.86581 21.0835 4.88159 21.0806 4.89736 21.0749C4.96475 21.0479 4.99773 20.974 4.97192 20.9072C4.80129 20.4722 4.65505 20.0215 4.53604 19.5694ZM10.4466 27.1596C10.0351 26.9307 9.63362 26.6763 9.2522 26.4005C9.19341 26.3592 9.11168 26.372 9.0701 26.4289C9.02852 26.4872 9.04142 26.5682 9.09878 26.6095C9.48879 26.8895 9.90031 27.1497 10.319 27.3843C10.3391 27.3957 10.3606 27.4013 10.3835 27.4013C10.4294 27.4013 10.4739 27.3772 10.4968 27.3345C10.5326 27.2748 10.5097 27.1952 10.4466 27.1596ZM5.56127 22.1866C5.52685 22.1226 5.44799 22.0998 5.38346 22.1325C5.31894 22.1667 5.296 22.2449 5.32898 22.3088C5.55409 22.7311 5.80503 23.1448 6.07747 23.5386C6.10328 23.5756 6.14343 23.5955 6.18645 23.5955C6.21226 23.5955 6.23806 23.5884 6.25957 23.5727C6.3198 23.5315 6.33413 23.4519 6.29399 23.3922C6.02729 23.0055 5.78066 22.6017 5.56127 22.1866ZM26.989 23.1533C26.9288 23.1135 26.8471 23.1306 26.8084 23.1903C26.5503 23.5812 26.2649 23.9608 25.9638 24.3205C25.9165 24.3746 25.9251 24.457 25.981 24.5039C26.0054 24.5238 26.0355 24.5338 26.0642 24.5338C26.1015 24.5338 26.1387 24.5181 26.1645 24.4869C26.4728 24.1201 26.7639 23.732 27.0278 23.3324C27.0665 23.2742 27.0493 23.1931 26.989 23.1533ZM24.9917 25.347C24.6504 25.6697 24.2862 25.9754 23.9091 26.2569C23.8517 26.2995 23.8403 26.382 23.8833 26.4388C23.9091 26.473 23.9478 26.49 23.988 26.49C24.0152 26.49 24.0424 26.4815 24.0668 26.463C24.4511 26.1758 24.8225 25.8631 25.1723 25.5332C25.2239 25.4834 25.2268 25.401 25.1766 25.3498C25.1279 25.3 25.0447 25.2986 24.9917 25.347ZM28.248 20.6043C28.1806 20.5801 28.1046 20.6142 28.0802 20.6811C27.9182 21.1189 27.7289 21.554 27.5167 21.972C27.4851 22.0359 27.511 22.1141 27.574 22.1454C27.5927 22.1539 27.6128 22.1596 27.6328 22.1596C27.6802 22.1596 27.726 22.1326 27.7504 22.0871C27.9669 21.6606 28.1605 21.217 28.3254 20.7678C28.3512 20.7038 28.3154 20.6285 28.248 20.6043ZM28.8832 17.8348C28.8129 17.8263 28.747 17.876 28.7384 17.9485C28.6825 18.4134 28.5993 18.8798 28.4903 19.3333C28.4731 19.4029 28.5176 19.474 28.5878 19.4897C28.5979 19.4925 28.6079 19.4939 28.6179 19.4939C28.6767 19.4939 28.7312 19.4541 28.7455 19.3944C28.8574 18.931 28.9434 18.4547 28.9993 17.9798C29.0065 17.9073 28.9549 17.8433 28.8832 17.8348ZM17.127 4.2604C17.5801 4.28315 18.0361 4.33148 18.482 4.40399C18.4892 4.40541 18.4964 4.40541 18.5035 4.40541C18.5666 4.40541 18.6225 4.35992 18.6326 4.29594C18.644 4.22486 18.5953 4.15804 18.5236 4.14666C18.0676 4.07273 17.6016 4.0244 17.1385 4.00023C17.0682 3.99597 17.0051 4.05141 17.0008 4.1225C16.9994 4.19642 17.0539 4.25755 17.127 4.2604ZM19.8141 4.69544C20.25 4.81628 20.6844 4.96272 21.1046 5.13189C21.1218 5.13758 21.1375 5.14042 21.1533 5.14042C21.2049 5.14042 21.2537 5.10914 21.2738 5.05938C21.301 4.99256 21.268 4.91721 21.2006 4.8902C20.7705 4.71817 20.3274 4.56748 19.8829 4.44519C19.8126 4.42671 19.741 4.46652 19.7209 4.53476C19.7037 4.60442 19.7438 4.67695 19.8141 4.69544ZM14.3869 4.4182C14.3941 4.4182 14.4013 4.41678 14.4084 4.41678C14.8544 4.34286 15.3089 4.29167 15.7635 4.26466C15.8366 4.2604 15.8911 4.19926 15.8868 4.12675C15.8825 4.05425 15.8194 4.00165 15.7477 4.00449C15.2845 4.0315 14.82 4.08268 14.3654 4.15945C14.2937 4.17083 14.2464 4.23907 14.2579 4.30873C14.2694 4.37271 14.3238 4.4182 14.3869 4.4182ZM11.7429 5.16886C11.7601 5.16886 11.7759 5.16602 11.7931 5.15891C12.2118 4.9883 12.6462 4.83903 13.0807 4.71532C13.1509 4.69542 13.1897 4.62291 13.171 4.55467C13.1509 4.485 13.0778 4.4452 13.009 4.4651C12.5645 4.59163 12.1214 4.74375 11.6941 4.91863C11.6267 4.94564 11.5952 5.02099 11.6224 5.08781C11.6425 5.13899 11.6913 5.16886 11.7429 5.16886ZM9.32969 6.47826C9.3555 6.47826 9.38131 6.47115 9.40425 6.45409C9.77562 6.19534 10.1656 5.95507 10.5614 5.74041C10.6245 5.70629 10.6474 5.62668 10.613 5.56412C10.5786 5.50156 10.4997 5.47882 10.4352 5.51294C10.0294 5.7333 9.63222 5.97782 9.25366 6.24227C9.19487 6.2835 9.18053 6.36454 9.22211 6.42282C9.24792 6.45979 9.28954 6.47826 9.32969 6.47826ZM19.3382 20.0698C19.3382 19.602 19.7225 19.221 20.1957 19.221C20.6689 19.221 21.0531 19.6021 21.0531 20.0698C21.0531 20.5389 20.6688 20.9185 20.1957 20.9185C19.7225 20.9185 19.3382 20.5375 19.3382 20.0698ZM20.1943 20.6584C20.5226 20.6584 20.7893 20.3939 20.7893 20.0698C20.7893 19.7456 20.5226 19.4812 20.1943 19.4812C19.8659 19.4812 19.5992 19.7456 19.5992 20.0698C19.5978 20.3953 19.8659 20.6584 20.1943 20.6584ZM22.2404 23.4122V26.3139C22.2404 26.6309 21.9794 26.8882 21.6597 26.8882H19.0744L18.7288 26.8911C18.4593 26.8911 18.2341 26.7091 18.1682 26.4631H17.4025V27.0219H17.9632C18.1252 27.0219 18.2571 27.1527 18.2571 27.3133V27.7086C18.2571 27.8692 18.1252 28 17.9632 28H14.572C14.41 28 14.2781 27.8692 14.2781 27.7086V27.3133C14.2781 27.1527 14.41 27.0219 14.572 27.0219H15.1327V26.4631H12.5144C11.9896 26.4631 11.5623 26.0409 11.5623 25.522V22.3203H11.1379C10.606 22.3203 10.1729 21.9222 10.1729 21.4346V19.9219C10.1729 19.4329 10.606 19.0362 11.1379 19.0362H13.8809C14.4129 19.0362 14.8459 19.4343 14.8459 19.9219V20.0769H15.1929C15.1915 20.0627 15.1915 20.0485 15.1915 20.0357C15.1915 19.4485 15.6747 18.9708 16.2669 18.9708C16.8591 18.9708 17.3423 19.4485 17.3423 20.0357C17.3423 20.0499 17.3423 20.0641 17.3409 20.0769H18.1481V18.9993C18.1481 18.6822 18.4091 18.4249 18.7288 18.4249H21.6597C21.9794 18.4249 22.2404 18.6837 22.2404 18.9993V21.9024C22.2404 22.2194 21.9794 22.4767 21.6597 22.4767H21.3141L20.6474 22.4753V22.8379H21.6597C21.9809 22.8379 22.2404 23.0966 22.2404 23.4122ZM21.6597 26.6309C21.836 26.6309 21.9794 26.4888 21.9794 26.3153V23.4122C21.9794 23.2387 21.836 23.0966 21.6597 23.0966H18.7288C18.5525 23.0966 18.4091 23.2387 18.4091 23.4122V26.3153C18.4091 26.4887 18.5525 26.6309 18.7288 26.6309H18.9597L19.0271 26.0963C19.0715 25.7466 19.3726 25.4822 19.7283 25.4822H20.6632C21.0188 25.4822 21.3213 25.7466 21.3643 26.0963L21.4317 26.6309H21.6597ZM21.165 26.6309L21.1019 26.1291C21.0746 25.9087 20.8839 25.7424 20.6603 25.7424H19.7254C19.5017 25.7424 19.311 25.9087 19.2837 26.1291L19.2207 26.6309H21.165ZM18.1467 26.203V25.5817H12.718C12.5431 25.5817 12.4012 25.441 12.4012 25.2675V22.3189H11.8205V25.5206C11.8205 25.8959 12.1302 26.203 12.5101 26.203H15.2589C15.332 26.203 15.3908 26.2613 15.3908 26.3338V27.1513C15.3908 27.2238 15.332 27.2821 15.2589 27.2821H14.5678C14.5491 27.2821 14.5348 27.2963 14.5348 27.3148V27.71C14.5348 27.727 14.5506 27.7427 14.5678 27.7427H17.9589C17.9775 27.7427 17.9919 27.7285 17.9919 27.71V27.3148C17.9919 27.2963 17.9775 27.2821 17.9589 27.2821L17.2706 27.2806C17.1975 27.2806 17.1387 27.2223 17.1387 27.1498V26.3324C17.1387 26.2599 17.1975 26.2016 17.2706 26.2016L18.1467 26.203ZM10.4323 21.4319C10.4323 21.7774 10.7478 22.0589 11.1363 22.0589H14.0299C14.0514 22.0589 14.0715 22.0646 14.0915 22.0745L14.5819 22.3319V19.9192C14.5819 19.5738 14.2665 19.2923 13.8793 19.2923H11.1363C10.7477 19.2923 10.4323 19.5737 10.4323 19.9192L10.4323 21.4319ZM15.3375 20.3344H14.8442V20.9556H18.1478V20.3344H17.1943C17.1556 20.3344 17.1183 20.3173 17.0939 20.2874C17.0695 20.2576 17.0595 20.2178 17.0652 20.1808C17.0753 20.1296 17.0796 20.0813 17.0796 20.033C17.0796 19.5894 16.7139 19.2269 16.2651 19.2269C15.8163 19.2269 15.4507 19.588 15.4507 20.033C15.4507 20.0813 15.455 20.1296 15.465 20.1808C15.4722 20.2192 15.4621 20.2576 15.4363 20.2874C15.412 20.3173 15.3762 20.3344 15.3375 20.3344ZM18.7286 18.6823C18.5522 18.6823 18.4088 18.8245 18.4088 18.998V21.9011C18.4088 22.0745 18.5522 22.2167 18.7286 22.2167H18.9594L19.0268 21.6821C19.0713 21.3324 19.3724 21.0679 19.728 21.0679H20.6629C21.0185 21.0679 21.3211 21.3324 21.3641 21.6821L21.4315 22.2167H21.6623C21.8387 22.2167 21.9821 22.0745 21.9821 21.9011V18.998C21.9821 18.8245 21.8387 18.6823 21.6623 18.6823H18.7286ZM17.5628 24.3735C17.5227 24.0536 17.2402 23.8062 16.909 23.8062H15.6257C15.293 23.8062 15.0106 24.0522 14.9704 24.3792L14.9059 25.3203H17.6317L17.5628 24.3735ZM20.3847 22.838V22.4755H18.7286C18.4088 22.4755 18.1479 22.2168 18.1479 21.9012V21.2173H14.8442V22.5509C14.8442 22.5964 14.8199 22.6376 14.7811 22.6618C14.7596 22.6746 14.7367 22.6803 14.7138 22.6803C14.6922 22.6803 14.6722 22.6746 14.6521 22.6646L13.9983 22.3206H12.6648V25.2692C12.6648 25.299 12.6891 25.3246 12.7207 25.3246H14.6421L14.7095 24.3593C14.7668 23.8959 15.1612 23.5518 15.6257 23.5518H16.909C17.3736 23.5518 17.7665 23.8958 17.8239 24.3522L17.8912 25.3246H18.1479V23.4153C18.1479 23.0983 18.4089 22.8409 18.7286 22.8409H19.6148L20.3847 22.838ZM21.1647 22.2154L21.1016 21.7135C21.0744 21.4931 20.8837 21.3268 20.66 21.3268H19.7251C19.5014 21.3268 19.3107 21.4931 19.2835 21.7135L19.2204 22.2154H21.1647ZM21.05 24.4844C21.05 24.9521 20.6657 25.3331 20.1926 25.3331C19.7194 25.3331 19.3351 24.9521 19.3351 24.4844C19.3351 24.0152 19.7194 23.6356 20.1926 23.6356C20.6657 23.6356 21.05 24.0167 21.05 24.4844ZM20.194 25.0744C20.5224 25.0744 20.7891 24.81 20.7891 24.4858C20.7891 24.1617 20.5224 23.8972 20.194 23.8972C19.8656 23.8972 19.5989 24.1617 19.5989 24.4858C19.5975 24.81 19.8656 25.0744 20.194 25.0744ZM17.2919 22.4457C17.2919 23.0058 16.8316 23.4636 16.2652 23.4636C15.6988 23.4636 15.2385 23.0072 15.2385 22.4457C15.2385 21.8841 15.6988 21.4291 16.2652 21.4291C16.8316 21.4291 17.2919 21.8855 17.2919 22.4457ZM17.0309 22.4457C17.0309 22.0277 16.6882 21.6893 16.2652 21.6893C15.8437 21.6893 15.4996 22.0291 15.4996 22.4457C15.4996 22.8636 15.8422 23.202 16.2652 23.202C16.6868 23.2034 17.0309 22.8636 17.0309 22.4457ZM7.81264 9.90052C7.73952 9.90052 7.68073 9.95881 7.68073 10.0313C7.68073 10.1038 7.73952 10.1621 7.81264 10.1621L13.4795 10.1607C13.5526 10.1607 13.6114 10.1024 13.6114 10.0299C13.6114 9.95739 13.5526 9.8991 13.4795 9.8991L7.81264 9.90052ZM7.65778 16.1533L7.32799 16.3295L5.23169 17.4484C5.21305 17.4584 5.19154 17.4641 5.1686 17.4641C5.14565 17.4641 5.12128 17.4584 5.10121 17.4456C5.06105 17.4214 5.03811 17.3802 5.03811 17.3347V16.1462C4.45454 16.0822 4 15.5889 4 14.9931V11.9038C4 11.264 4.5248 10.7437 5.17004 10.7437H5.98303V9.18836C5.98303 8.5486 6.50783 8.02826 7.15307 8.02826H14.1403C14.7855 8.02826 15.3103 8.5486 15.3103 9.18836V13.2144C15.3103 13.8542 14.7855 14.3745 14.1403 14.3745H13.9883V16.0237C13.9883 16.0706 13.9639 16.1118 13.9237 16.136C13.9037 16.1474 13.8807 16.1545 13.8578 16.1545C13.8363 16.1545 13.8133 16.1488 13.7947 16.1374L11.4388 14.8394V14.993C11.4388 15.6327 10.914 16.1531 10.2688 16.1531L7.65778 16.1533ZM5.29906 16.0225V17.1157L7.56172 15.9073C7.58036 15.8974 7.60187 15.8917 7.62481 15.8917H10.2689C10.7693 15.8917 11.1765 15.4879 11.1765 14.9917V11.9024C11.1765 11.4062 10.7693 11.0024 10.2689 11.0024H5.16841C4.66798 11.0024 4.26076 11.4062 4.26076 11.9024V14.9917C4.26076 15.4879 4.66798 15.8917 5.16841 15.8917C5.2401 15.8931 5.29906 15.9514 5.29906 16.0225ZM14.1403 8.28697H7.15167C6.65124 8.28697 6.24401 8.69074 6.24401 9.18692V10.7422H10.2675C10.8353 10.7422 11.3099 11.146 11.4146 11.6791H13.4793C13.5525 11.6791 13.6113 11.7374 13.6113 11.8099C13.6113 11.8824 13.5525 11.9407 13.4793 11.9407H11.4389V14.5438L13.7274 15.8035V14.2453C13.7274 14.1728 13.7862 14.1145 13.8593 14.1145H14.1432C14.6437 14.1145 15.0509 13.7107 15.0509 13.2145V9.18848C15.048 8.69088 14.6422 8.28697 14.1403 8.28697ZM5.6419 12.7825H9.79715C9.87028 12.7825 9.92906 12.7242 9.92906 12.6517C9.92906 12.5792 9.87027 12.5209 9.79715 12.5209L5.6419 12.5224C5.56878 12.5224 5.50999 12.5807 5.50999 12.6532C5.50999 12.7242 5.56878 12.7825 5.6419 12.7825ZM5.6419 14.2796H9.79715C9.87028 14.2796 9.92906 14.2213 9.92906 14.1488C9.92906 14.0763 9.87027 14.018 9.79715 14.018L5.6419 14.0194C5.56878 14.0194 5.50999 14.0777 5.50999 14.1502C5.50999 14.2213 5.56878 14.2796 5.6419 14.2796ZM27.9029 15.9671C27.7438 16.1249 27.533 16.2131 27.3093 16.2131L25.6388 16.2174L19.6365 16.2287H19.6351C19.4028 16.2287 19.1848 16.1392 19.0199 15.9771C18.855 15.8136 18.7632 15.5961 18.7632 15.3658V11.1916C18.7632 11.0764 18.7776 10.9641 18.802 10.8546C18.8034 10.8447 18.8063 10.8347 18.8077 10.8248C18.8665 10.5888 18.9798 10.367 19.1432 10.1793C19.1518 10.1708 19.1604 10.1608 19.169 10.1523L19.3784 9.94333L19.9376 9.40165L19.939 8.68226C19.9404 8.47327 20.0552 8.28988 20.2243 8.19034C20.3104 8.14058 20.4107 8.11072 20.5169 8.11072H20.5183L21.2639 8.11215L22.6605 6.75725C23.0964 6.33358 23.7818 6.33216 24.2205 6.75299L25.6487 8.1235L26.1907 8.12492C26.4904 8.12634 26.7327 8.36803 26.7313 8.66375L26.7298 9.16135L27.5184 9.91768L27.788 10.2034C27.7909 10.2063 27.7923 10.2091 27.7937 10.2106C27.9257 10.3741 28.0217 10.5646 28.0777 10.765C28.0791 10.7707 28.082 10.775 28.082 10.7806C28.0834 10.7849 28.0834 10.7906 28.0863 10.7949C28.1164 10.9143 28.1336 11.0394 28.1336 11.1631L28.145 15.3726C28.1493 15.5986 28.0619 15.809 27.9027 15.9668L27.9029 15.9671ZM19.6354 15.97L27.3079 15.9543C27.5043 15.9529 27.6793 15.8548 27.784 15.7055C27.7581 15.7027 27.7323 15.6942 27.7108 15.6743L24.6122 12.9076L23.8136 13.3711C23.7032 13.4351 23.5784 13.4678 23.4537 13.4678C23.3318 13.4678 23.2085 13.4365 23.0995 13.3754L22.3625 12.9574L19.1291 15.7041C19.1506 15.7368 19.1764 15.7681 19.2051 15.7965C19.3198 15.9103 19.4732 15.9728 19.6353 15.9728C19.6338 15.97 19.6354 15.97 19.6354 15.97ZM19.3429 10.3513C19.2253 10.4849 19.1393 10.6413 19.0862 10.8062L19.9322 11.2796L19.9365 9.76696L19.5637 10.1295L19.3558 10.3371C19.3501 10.3413 19.3457 10.3456 19.3429 10.3513ZM20.5186 8.37225C20.3437 8.37225 20.2032 8.513 20.2018 8.68503L20.1946 11.426L23.2286 13.1491C23.3677 13.2288 23.5412 13.2273 23.6818 13.1477L26.4663 11.5327L26.4735 8.66654C26.4735 8.51299 26.3487 8.38789 26.1939 8.38789L20.5186 8.37225ZM23.4452 6.70177C23.2301 6.70177 23.0136 6.78423 22.8458 6.94631L21.6385 8.11493L25.2733 8.12488L24.0402 6.94203C23.8724 6.78138 23.6588 6.70177 23.4452 6.70177ZM27.8643 11.0194L26.6914 11.6933C26.6828 11.7032 26.6728 11.7117 26.6613 11.7189L24.8489 12.7709L27.8787 15.4764C27.8844 15.4451 27.8873 15.4124 27.8873 15.3783L27.8758 11.1688C27.8744 11.1176 27.8715 11.0691 27.8643 11.0194ZM19.0304 15.4421L22.1204 12.8177L19.9983 11.6135L19.0305 11.0718C19.0262 11.1117 19.0247 11.1515 19.0247 11.1913V15.3655C19.0247 15.3911 19.0276 15.4165 19.0304 15.4421ZM27.8042 10.7548C27.7568 10.6211 27.688 10.496 27.5962 10.3809L27.3353 10.1036L26.7316 9.52503L26.7273 11.3747L27.8042 10.7548ZM20.8239 10.2813C20.8239 10.9567 21.3788 11.5054 22.0585 11.5054H22.6779C22.7511 11.5054 22.8098 11.4471 22.8098 11.3746C22.8098 11.3021 22.7511 11.2438 22.6779 11.2438H22.0585C21.5222 11.2438 21.0849 10.8102 21.0849 10.2785C21.0849 9.74682 21.5222 9.3132 22.0585 9.3132H23.012C23.5483 9.3132 23.9856 9.74682 23.9856 10.2785C23.9856 10.388 23.967 10.496 23.9311 10.5984C23.9068 10.6652 23.9426 10.7406 24.0114 10.7633C24.0788 10.7875 24.1548 10.7519 24.1778 10.6837C24.2251 10.5529 24.248 10.4164 24.248 10.2771C24.248 9.60177 23.6931 9.053 23.0135 9.053H22.0599C21.3788 9.05585 20.8239 9.6046 20.8239 10.2813ZM23.944 9.31602H24.6051C25.1413 9.31602 25.5786 9.74964 25.5786 10.2813C25.5786 10.813 25.1413 11.2467 24.6051 11.2467H23.6515C23.1153 11.2467 22.6779 10.813 22.6779 10.2813C22.6779 10.1662 22.698 10.0553 22.7382 9.94866C22.7625 9.88184 22.7295 9.8065 22.6607 9.78232C22.5933 9.75816 22.5173 9.79085 22.493 9.8591C22.4428 9.99416 22.417 10.1363 22.417 10.2828C22.417 10.9581 22.9719 11.5069 23.6515 11.5069H24.6051C25.2862 11.5069 25.8396 10.9567 25.8396 10.2828C25.8396 9.60746 25.2847 9.05869 24.6051 9.05869H23.9441C23.8709 9.05869 23.8121 9.11698 23.8121 9.18949C23.8136 9.25773 23.8723 9.31602 23.944 9.31602Z" fill="#1CB496" stroke="#1CB496" stroke-width="0.3"/>
</svg>
