<svg width="32" height="32" viewBox="0 0 32 32" fill="none" xmlns="http://www.w3.org/2000/svg">
<path d="M15.2315 24.4247C12.4747 23.2715 10.7209 21.5242 9.73832 20.2623C8.7614 19.0091 8.32681 17.9682 8.25495 17.793V10.4684C12.3602 10.2787 14.6711 8.18331 15.2866 7.53888C15.3495 7.47263 15.3472 7.36595 15.281 7.30307C15.2147 7.24019 15.1081 7.24243 15.0452 7.30868C14.4444 7.93863 12.1648 10.0048 8.08309 10.1429C7.99438 10.1463 7.92251 10.2204 7.92251 10.3091V17.8237C7.92251 17.8439 7.92588 17.8641 7.93374 17.881C7.95059 17.927 8.37054 19.0454 9.46538 20.4569C10.4749 21.7561 12.2715 23.5529 15.1023 24.7341C15.1225 24.743 15.1449 24.7453 15.1651 24.7453C15.2314 24.7453 15.292 24.7082 15.3179 24.642C15.356 24.5578 15.3156 24.4623 15.2314 24.4253L15.2315 24.4247Z" fill="#1CB496"/>
<path d="M14.7324 7.01177C14.9467 6.78597 15.2939 6.76685 15.5319 6.95085L15.5779 6.99043L15.6203 7.03479C15.8186 7.26572 15.8103 7.6134 15.5993 7.8357L15.5984 7.83682C14.9585 8.50683 12.6839 10.5618 8.68609 10.8734V17.7058C8.80244 17.977 9.17624 18.7886 9.90753 19.7725L10.0785 19.9971L10.2655 20.2312C11.2439 21.4257 12.8929 22.9789 15.398 24.0269L15.7031 24.1546L15.6854 24.2846C15.7707 24.4338 15.7922 24.619 15.7188 24.7983L15.7197 24.7986C15.7178 24.8034 15.7152 24.8079 15.7132 24.8126C15.7122 24.815 15.7118 24.8176 15.7107 24.8199L15.7104 24.8197C15.6109 25.0493 15.3899 25.1764 15.1653 25.1765C15.1208 25.1765 15.0327 25.1726 14.9362 25.1318C12.0201 23.915 10.1675 22.0632 9.12486 20.7213L9.12458 20.721C8.04102 19.3241 7.59334 18.1985 7.53455 18.0432C7.50005 17.9606 7.49132 17.882 7.49132 17.8237V10.3092C7.49132 9.98682 7.74837 9.72417 8.06681 9.71208H8.06849L8.25152 9.7045C12.0656 9.51737 14.1863 7.58415 14.7324 7.01177Z" fill="#1CB496"/>
<path d="M24.7413 15.2282V8.4334C24.7413 8.3447 24.6695 8.26946 24.5808 8.26721C18.9922 8.07632 15.8591 5.08154 15.2865 4.48074C15.2236 4.41449 15.1079 4.41449 15.0451 4.48074C14.2433 5.32292 11.1956 8.08295 5.75193 8.26721C5.66322 8.27058 5.59135 8.3447 5.59135 8.4334V18.4228C5.59135 18.443 5.59472 18.4632 5.60258 18.48C5.62504 18.5429 6.18087 20.0207 7.63167 21.8891C8.96792 23.6105 11.3517 25.9943 15.1023 27.5576C15.1225 27.5666 15.145 27.5688 15.1652 27.5688C15.1876 27.5688 15.2078 27.5654 15.2281 27.5576C16.6193 26.977 17.9219 26.2415 19.1088 25.3701C19.8623 25.7261 20.7011 25.9338 21.5893 25.9338C24.7974 25.9338 27.4105 23.3242 27.4105 20.1127C27.4149 18.0656 26.3482 16.2668 24.7413 15.2282ZM15.1662 27.2241C11.5235 25.6891 9.20708 23.3726 7.90199 21.6938C6.58259 19.9982 6.00427 18.5978 5.92456 18.388L5.92343 8.59065C11.155 8.36606 14.1969 5.80248 15.1683 4.83119C15.988 5.64417 19.1039 8.35838 24.4097 8.59065V15.0238C23.5731 14.5612 22.6164 14.2939 21.5923 14.2939C18.3842 14.2939 15.7711 16.9035 15.7711 20.115C15.7711 22.3002 16.9839 24.208 18.7694 25.2029C17.6633 26.0001 16.4564 26.6806 15.1662 27.2241ZM21.5936 25.6026C18.5663 25.6026 16.1059 23.1423 16.1059 20.1149C16.1059 17.0875 18.5662 14.6272 21.5936 14.6272C24.621 14.6272 27.0813 17.0875 27.0813 20.1149C27.0813 23.1423 24.6199 25.6026 21.5936 25.6026Z" fill="#1CB496"/>
<path d="M14.7326 4.18373C14.9654 3.93881 15.3655 3.93879 15.5984 4.18345L15.5987 4.18317C16.1299 4.74052 19.1633 7.65069 24.5954 7.83626C24.9213 7.84637 25.1726 8.11697 25.1726 8.43337V14.9993C26.7853 16.1299 27.8461 17.9966 27.8417 20.1127L27.8395 20.2738C27.7537 23.6493 24.9816 26.365 21.5894 26.365C20.7249 26.365 19.9055 26.1815 19.16 25.8648C18.0003 26.6924 16.7374 27.3951 15.394 27.9556L15.3893 27.9576L15.3842 27.9596C15.3082 27.9891 15.2341 28 15.1652 28C15.1208 28 15.0329 27.9961 14.9365 27.9554C11.2204 26.4065 8.81433 24.0694 7.42253 22.3209L7.29115 22.1536C5.85005 20.2977 5.26553 18.8104 5.20114 18.6369C5.1685 18.5563 5.16016 18.4798 5.16016 18.4227V8.43337C5.16017 8.11102 5.41722 7.84835 5.73565 7.83626H5.73733L5.98381 7.82616C11.1221 7.57386 13.99 4.96376 14.7326 4.18373ZM15.1697 5.42566C13.9443 6.54946 11.0335 8.68455 6.35465 8.99819L6.35549 18.304C6.4945 18.6432 7.06225 19.9126 8.24225 21.429L8.36465 21.5843C9.63607 23.1796 11.8146 25.3026 15.1666 26.7541C16.1623 26.3228 17.1058 25.8079 17.9888 25.2188C16.3897 24.0865 15.3399 22.2219 15.3399 20.115C15.3399 16.6652 18.1462 13.8627 21.5922 13.8626C22.4394 13.8626 23.2435 14.0336 23.9784 14.3384V8.99763C19.2779 8.67549 16.3169 6.46402 15.1697 5.42566ZM16.5372 20.115C16.5372 22.9042 18.8045 25.1714 21.5936 25.1714C24.3818 25.1714 26.65 22.9041 26.65 20.115C26.65 17.3257 24.3829 15.0585 21.5936 15.0585C18.8044 15.0585 16.5372 17.3257 16.5372 20.115Z" fill="#1CB496"/>
<path d="M23.7758 20.5259H21.4131L21.412 16.5137C21.412 16.4216 21.3368 16.3475 21.2458 16.3475C21.1538 16.3475 21.0796 16.4228 21.0796 16.5137V20.6932C21.0796 20.7852 21.1549 20.8594 21.2458 20.8594H23.7757C23.8678 20.8594 23.9419 20.7841 23.9419 20.6932C23.9419 20.6011 23.8678 20.5259 23.7758 20.5259Z" fill="#1CB496"/>
<path d="M21.8443 20.0947H23.7757C24.1097 20.0947 24.3731 20.3668 24.3731 20.6932C24.3731 21.0204 24.1079 21.2906 23.7757 21.2906H21.2458C20.9186 21.2906 20.6485 21.0253 20.6484 20.6932V16.5137C20.6484 16.1865 20.9137 15.9163 21.2458 15.9163C21.573 15.9163 21.8432 16.1816 21.8432 16.5137L21.8443 20.0947Z" fill="#1CB496"/>
</svg>
