<svg width="32" height="32" viewBox="0 0 32 32" fill="none" xmlns="http://www.w3.org/2000/svg">
<path fill-rule="evenodd" clip-rule="evenodd" d="M28.3894 22.2518H3.6105C2.84382 22.2518 2.21924 21.6283 2.21924 20.8616V6.39019C2.21924 5.6235 2.84271 5 3.6105 5H28.3894C29.1561 5 29.7796 5.62348 29.7796 6.39019V20.8616C29.7796 21.6283 29.1561 22.2518 28.3894 22.2518ZM3.6105 5.73327C3.24761 5.73327 2.95364 6.02832 2.95364 6.39013V20.8615C2.95364 21.2234 3.24869 21.5184 3.6105 21.5184H28.3894C28.7512 21.5184 29.0462 21.2234 29.0462 20.8615V6.39013C29.0462 6.02725 28.7512 5.73327 28.3894 5.73327H3.6105Z" fill="#1CB496"/>
<path fill-rule="evenodd" clip-rule="evenodd" d="M29.4135 19.7289H2.58667C2.38423 19.7289 2.21949 19.5641 2.21949 19.3617C2.21949 19.1593 2.38424 18.9945 2.58667 18.9945H29.4135C29.6159 18.9945 29.7807 19.1593 29.7807 19.3617C29.7807 19.5641 29.6159 19.7289 29.4135 19.7289Z" fill="#1CB496"/>
<path fill-rule="evenodd" clip-rule="evenodd" d="M17.7903 25.8021H14.211C14.0086 25.8021 13.8438 25.6374 13.8438 25.4349V21.8846C13.8438 21.6822 14.0086 21.5174 14.211 21.5174H17.7903C17.9927 21.5174 18.1574 21.6822 18.1574 21.8846V25.4349C18.1574 25.6374 17.9927 25.8021 17.7903 25.8021ZM14.5771 25.0688H17.4231V22.2517H14.5771V25.0688Z" fill="#1CB496"/>
<path fill-rule="evenodd" clip-rule="evenodd" d="M21.9705 28H10.0308C9.2641 28 8.63952 27.3765 8.63952 26.6098V26.4601C8.63952 25.6934 9.263 25.0699 10.0308 25.0699H21.9705C22.7372 25.0699 23.3607 25.6934 23.3607 26.4601V26.6098C23.3607 27.3765 22.7372 28 21.9705 28ZM10.0308 25.8022C9.6679 25.8022 9.37393 26.0972 9.37393 26.459V26.6087C9.37393 26.9705 9.66897 27.2656 10.0308 27.2656H21.9705C22.3323 27.2656 22.6273 26.9705 22.6273 26.6087V26.459C22.6273 26.0972 22.3323 25.8022 21.9705 25.8022H10.0308Z" fill="#1CB496"/>
<path fill-rule="evenodd" clip-rule="evenodd" d="M6.39115 11.6505C5.26911 11.6505 4.35596 10.677 4.35596 9.48174C4.35596 8.2854 5.26911 7.31301 6.39115 7.31301C6.70451 7.31301 7.00495 7.38731 7.28492 7.53269C7.46475 7.62637 7.53475 7.84819 7.43998 8.02803C7.3463 8.20678 7.12448 8.27678 6.94464 8.18309C6.77127 8.09264 6.5839 8.04634 6.39008 8.04634C5.6729 8.04634 5.08819 8.69027 5.08819 9.48174C5.08819 10.2732 5.67183 10.9171 6.39008 10.9171C6.59791 10.9171 6.79605 10.8654 6.9791 10.7621C7.15569 10.663 7.37967 10.7255 7.47874 10.9021C7.57781 11.0787 7.51535 11.3026 7.33876 11.4017C7.04909 11.5643 6.72066 11.6505 6.39115 11.6505Z" fill="#1CB496"/>
<path fill-rule="evenodd" clip-rule="evenodd" d="M10.2494 11.6463C10.1212 11.6463 9.99634 11.5785 9.92956 11.459L9.02071 9.83942H8.8172V11.2802C8.8172 11.4827 8.65244 11.6474 8.45001 11.6474C8.24757 11.6474 8.08282 11.4827 8.08282 11.2802V7.68249C8.08282 7.48005 8.24757 7.3153 8.45001 7.3153H9.36638C10.0975 7.3153 10.6499 7.86771 10.6499 8.59997C10.6499 9.13085 10.3032 9.58418 9.81756 9.76077L10.5692 11.1003C10.6683 11.2769 10.6058 11.5009 10.4281 11.6C10.3711 11.6312 10.3097 11.6463 10.2494 11.6463ZM9.36641 9.10611C9.67008 9.10611 9.91559 8.8789 9.91559 8.60002C9.91559 8.27589 9.68946 8.04976 9.36641 8.04976H8.81722V9.10611H9.36641Z" fill="#1CB496"/>
<path fill-rule="evenodd" clip-rule="evenodd" d="M13.9601 11.6463C13.7577 11.6463 13.593 11.4816 13.593 11.2791V8.60324L13.0115 9.21812C12.8726 9.36457 12.6173 9.36457 12.4784 9.21812L11.8969 8.60324V11.2791C11.8969 11.4816 11.7322 11.6463 11.5298 11.6463C11.3273 11.6463 11.1626 11.4816 11.1626 11.2791V7.68141C11.1626 7.53066 11.2541 7.39604 11.3941 7.34113C11.5341 7.28514 11.6934 7.32067 11.7968 7.43051L12.7444 8.43302L13.692 7.43051C13.7954 7.32175 13.9548 7.28621 14.0947 7.34113C14.2347 7.39605 14.3263 7.53173 14.3263 7.68141V11.2791C14.3263 11.4816 14.1615 11.6463 13.9591 11.6463H13.9601Z" fill="#1CB496"/>
<path fill-rule="evenodd" clip-rule="evenodd" d="M23.8271 14.9477C21.7219 14.9477 20.0097 13.2345 20.0097 11.1303C20.0097 9.0251 21.7218 7.31174 23.8271 7.31174C25.9324 7.31174 27.6445 9.02496 27.6445 11.1303C27.6445 13.2355 25.9324 14.9477 23.8271 14.9477ZM23.8271 8.04529C22.1268 8.04529 20.7429 9.429 20.7429 11.1295C20.7429 12.8299 22.1266 14.2136 23.8271 14.2136C25.5275 14.2136 26.9113 12.8299 26.9113 11.1295C26.9113 9.429 25.5275 8.04529 23.8271 8.04529Z" fill="#1CB496"/>
<path fill-rule="evenodd" clip-rule="evenodd" d="M21.0627 13.563C20.9507 13.563 20.8409 13.5124 20.7687 13.4155C20.647 13.2529 20.6804 13.0235 20.843 12.9019L23.4597 10.9453V7.67806C23.4597 7.47562 23.6245 7.31087 23.8269 7.31087C24.0293 7.31087 24.1941 7.47563 24.1941 7.67806V11.1294C24.1941 11.2446 24.1392 11.3545 24.0466 11.4234L21.2825 13.4898C21.2168 13.5393 21.1392 13.563 21.0627 13.563Z" fill="#1CB496"/>
<path fill-rule="evenodd" clip-rule="evenodd" d="M26.181 14.0207C26.083 14.0207 25.985 13.9819 25.9129 13.9044L23.5589 11.3803C23.4211 11.2317 23.4286 11.0002 23.5772 10.8613C23.7248 10.7234 23.9574 10.731 24.0952 10.8796L26.4491 13.4036C26.587 13.5522 26.5794 13.7838 26.4308 13.9227C26.3608 13.9883 26.2704 14.0207 26.181 14.0207Z" fill="#1CB496"/>
<path fill-rule="evenodd" clip-rule="evenodd" d="M18.5117 13.4886H4.72282C4.52037 13.4886 4.35563 13.3239 4.35563 13.1214C4.35563 12.919 4.52038 12.7542 4.72282 12.7542H18.5117C18.7141 12.7542 18.8789 12.919 18.8789 13.1214C18.8789 13.3239 18.7141 13.4886 18.5117 13.4886Z" fill="#1CB496"/>
<path fill-rule="evenodd" clip-rule="evenodd" d="M20.5643 15.4516H4.7242C4.52175 15.4516 4.35701 15.2869 4.35701 15.0844C4.35701 14.882 4.52176 14.7173 4.7242 14.7173H20.5643C20.7667 14.7173 20.9315 14.882 20.9315 15.0844C20.9315 15.2869 20.7678 15.4516 20.5643 15.4516Z" fill="#1CB496"/>
<path fill-rule="evenodd" clip-rule="evenodd" d="M27.2782 17.4158H4.72309C4.52065 17.4158 4.35591 17.251 4.35591 17.0486C4.35591 16.8461 4.52066 16.6814 4.72309 16.6814H27.2782C27.4806 16.6814 27.6454 16.8461 27.6454 17.0486C27.6454 17.251 27.4806 17.4158 27.2782 17.4158Z" fill="#1CB496"/>
</svg>
