<svg width="32" height="32" viewBox="0 0 32 32" fill="none" xmlns="http://www.w3.org/2000/svg">
<path d="M23.7198 20.0431C22.5745 20.0431 21.2638 20.9696 18.569 22.9871C18.4541 22.5404 18.1122 22.0349 17.2831 21.6048C15.5497 20.7041 13.3676 19.6048 12.5093 19.1747C12.2041 19.0221 11.8622 18.9412 11.5203 18.9412H9.38154C9.38154 18.7381 9.21701 18.5736 9.01389 18.5736H6.80802C6.60489 18.5736 6.44037 18.7381 6.44037 18.9412V24.8235C6.44037 25.0267 6.60489 25.1912 6.80802 25.1912H9.01389C9.21701 25.1912 9.38154 25.0267 9.38154 24.8235H9.65728C9.89807 24.8235 10.1371 24.8833 10.3494 24.9963L14.8503 27.397C15.3007 27.6378 15.8098 27.7647 16.3209 27.7647H17.1986C17.9339 27.7647 18.649 27.5036 19.2115 27.0294L25.4265 21.796C25.5092 21.7261 25.557 21.6232 25.557 21.5148C25.557 21.0056 25.1729 20.0442 23.7188 20.0442L23.7198 20.0431ZM7.17583 24.4549V19.3078H8.64641V24.4549H7.17583ZM18.7384 26.4668C18.3082 26.829 17.7614 27.0284 17.1988 27.0284H16.3211C15.9295 27.0284 15.5417 26.931 15.1961 26.7472L10.6952 24.3465C10.3772 24.1773 10.0178 24.0873 9.65657 24.0873H9.38083V19.6755H11.5196C11.7475 19.6755 11.9755 19.7288 12.1786 19.8318C13.0352 20.2619 15.2144 21.3584 16.9433 22.2574C18.0591 22.8374 17.901 23.4302 17.8495 23.625C17.7742 23.9072 17.5848 24.1471 17.3146 24.2997C17.0499 24.4486 16.7374 24.4927 16.4562 24.4201L14.2696 23.7372C14.0757 23.6765 13.8698 23.785 13.8091 23.978C13.7485 24.1719 13.8569 24.3778 14.0499 24.4385L16.2448 25.1241C16.2503 25.126 16.254 25.1269 16.2595 25.1278C16.4121 25.1682 16.5701 25.1885 16.7292 25.1885C17.0563 25.1885 17.3854 25.1039 17.6758 24.9385C18.0784 24.7105 18.3734 24.3603 18.5196 23.9421C21.24 21.9017 22.7494 20.7777 23.7191 20.7777C24.5058 20.7777 24.7319 21.138 24.7963 21.3632L18.7375 26.4662L18.7384 26.4668Z" fill="#1CB496"/>
<path d="M6.20508 18.9412C6.20508 18.6081 6.47494 18.3383 6.80802 18.3383H9.01389C9.26348 18.3383 9.47762 18.4898 9.56926 18.7059H11.5203C11.8751 18.7059 12.2294 18.7844 12.5506 18.9334L12.6145 18.9642L12.6147 18.9644L13.4794 19.3989C14.537 19.932 16.0904 20.7198 17.3916 21.3959C18.091 21.7588 18.4829 22.1855 18.6814 22.6094C19.9011 21.6982 20.8368 21.0167 21.6046 20.5568C22.4238 20.0661 23.0826 19.808 23.7197 19.8079H24.2533L24.216 19.8484C24.7321 19.9339 25.1033 20.1523 25.3569 20.4297C25.6791 20.7823 25.7923 21.209 25.7923 21.5147C25.7923 21.6924 25.7141 21.8611 25.5784 21.9757L25.5782 21.9759L19.3631 27.2093C18.7582 27.7194 17.9893 28 17.1986 28H16.3208C15.7714 28 15.224 27.8637 14.7393 27.6046L10.2386 25.2041C10.0604 25.1092 9.85939 25.0588 9.65727 25.0588H9.56926C9.47762 25.275 9.26348 25.4265 9.01389 25.4265H6.80802C6.47494 25.4265 6.20508 25.1566 6.20508 24.8235V18.9412ZM11.5196 19.4403C11.7837 19.4403 12.0482 19.5018 12.285 19.6218C13.142 20.0522 15.3216 21.1491 17.0518 22.0487L17.1588 22.1064C17.6769 22.3962 17.9408 22.7051 18.0541 23.0019C18.1752 23.3195 18.1053 23.5784 18.077 23.6852L18.0768 23.6857C17.9842 24.0325 17.7522 24.3228 17.4302 24.5046L17.43 24.5048C17.1152 24.6819 16.7406 24.7366 16.3974 24.648L16.3916 24.6464L16.3861 24.6448L14.1995 23.9619L14.1993 23.9616C14.1298 23.94 14.0555 23.9789 14.0336 24.0485C14.0121 24.1179 14.0509 24.1921 14.1205 24.2139L16.3071 24.8971L16.3091 24.8975L16.3197 24.9003L16.4201 24.9235C16.5213 24.9433 16.6248 24.9531 16.7292 24.9531C17.0163 24.9531 17.3051 24.8788 17.5594 24.7339L17.5598 24.7337L17.6253 24.6949C17.9462 24.4944 18.1787 24.2042 18.2974 23.8644L18.3211 23.7969L18.3783 23.7539C19.7357 22.7358 20.8014 21.9383 21.6492 21.3964C22.4857 20.8617 23.1581 20.5423 23.719 20.5423C24.148 20.5423 24.4537 20.6409 24.6669 20.7955C24.8811 20.951 24.9792 21.1468 25.0226 21.2985L25.0644 21.4451L19.1218 26.4499L19.123 26.4506L18.89 26.6468C18.4174 27.0447 17.8167 27.2638 17.1988 27.2638H16.3211C15.8907 27.2638 15.4649 27.1568 15.0856 26.955L15.0853 26.9547L10.5847 24.554C10.3005 24.4029 9.97912 24.3226 9.65658 24.3226H9.14555V19.4403H11.5196ZM9.61614 23.852H9.65658C10.0565 23.852 10.4538 23.9517 10.8057 24.1388L15.3068 26.5395C15.6186 26.7054 15.9683 26.7932 16.3211 26.7932H17.1988C17.6917 26.7932 18.1711 26.6227 18.5536 26.3134L18.586 26.2863L24.5088 21.2974C24.4808 21.2563 24.4429 21.2146 24.3904 21.1765C24.2778 21.0947 24.0768 21.0129 23.719 21.0129C23.3103 21.0129 22.7432 21.2556 21.9026 21.793C21.0843 22.3161 20.0519 23.0867 18.7156 24.0889C18.5426 24.5319 18.2201 24.9002 17.7921 25.1427L17.7923 25.1429C17.4658 25.329 17.0964 25.4237 16.7292 25.4237C16.5515 25.4237 16.3745 25.4013 16.203 25.3562C16.1934 25.354 16.1842 25.3516 16.1747 25.3486L13.9799 24.6632L13.9794 24.6629C13.6631 24.5635 13.4851 24.226 13.5846 23.9076L13.606 23.8497C13.7262 23.5699 14.0415 23.4193 14.3399 23.5127L16.5185 24.193C16.7368 24.2484 16.9856 24.2147 17.1991 24.0947L17.239 24.0708C17.4353 23.9476 17.5678 23.7683 17.6223 23.5644C17.6455 23.4764 17.6799 23.3416 17.6143 23.1696C17.5522 23.0069 17.3841 22.7715 16.9295 22.5173L16.8349 22.4662C15.1076 21.5681 12.9296 20.4722 12.0729 20.0421L12.0722 20.0416C11.9028 19.9558 11.7114 19.9109 11.5196 19.9109H9.61614V23.852ZM8.88177 19.0726V24.6903H6.9406V19.0726H8.88177ZM7.41119 24.2197H8.41118V19.5432H7.41119V24.2197ZM6.67566 24.8235C6.67566 24.8967 6.73484 24.9559 6.80802 24.9559H9.01389C9.08706 24.9559 9.14624 24.8967 9.14624 24.8235V24.5882H9.65727C9.93664 24.5882 10.2136 24.6575 10.4599 24.7886L14.961 27.1893L14.9612 27.1896L15.0398 27.23C15.4361 27.4262 15.8778 27.5294 16.3208 27.5294H17.1986C17.8784 27.5294 18.5398 27.288 19.0598 26.8495L25.2746 21.6163L25.2946 21.5954C25.312 21.5725 25.3217 21.5442 25.3217 21.5147C25.3217 21.3113 25.2428 21.0026 25.0095 20.7473C24.7825 20.4989 24.3896 20.2794 23.7188 20.2794H23.6813C23.1829 20.2895 22.6225 20.4956 21.8463 20.9605C21.0511 21.4369 20.06 22.1649 18.7101 23.1756L18.4286 23.386L18.3411 23.0457C18.252 22.6995 17.9924 22.2762 17.3158 21.8902L17.1747 21.8137C15.4429 20.9138 13.2622 19.8149 12.404 19.3849C12.1315 19.2487 11.8256 19.1765 11.5203 19.1765H9.14624V18.9412C9.14624 18.868 9.08706 18.8089 9.01389 18.8089H6.80802C6.73484 18.8089 6.67566 18.868 6.67566 18.9412V24.8235Z" fill="#1CB496"/>
<path d="M25.2915 10.8667L23.4992 10.3548C23.3742 9.91174 23.1978 9.48619 22.9735 9.08455L23.8788 7.45495C23.9579 7.31157 23.934 7.13234 23.8173 7.01653L22.7768 5.97609C22.661 5.86028 22.4818 5.83455 22.3384 5.91451L20.7088 6.81985C20.3071 6.59558 19.8816 6.41912 19.4386 6.29411L18.9266 4.50183C18.8816 4.34374 18.7373 4.23529 18.5737 4.23529H17.1031C16.9395 4.23529 16.7943 4.34375 16.7502 4.50183L16.2382 6.29411C15.7952 6.41911 15.3697 6.59557 14.968 6.81985L13.3384 5.91451C13.195 5.83547 13.0158 5.85936 12.9 5.97609L11.8596 7.01653C11.7438 7.13234 11.718 7.31157 11.798 7.45495L12.7033 9.08455C12.4791 9.48619 12.3026 9.91174 12.1776 10.3548L10.3853 10.8667C10.2272 10.9117 10.1188 11.056 10.1188 11.2196V12.6902C10.1188 12.8538 10.2272 12.999 10.3853 13.0432L12.1776 13.5551C12.3026 13.9981 12.479 14.4237 12.7033 14.8253L11.798 16.4558C11.7189 16.5992 11.7428 16.7784 11.8596 16.8943L12.9 17.9347C13.0158 18.0505 13.195 18.0762 13.3384 17.9963L14.968 17.0909C15.3697 17.3152 15.7952 17.4917 16.2382 17.6167L16.7502 19.409C16.7952 19.567 16.9395 19.6755 17.1031 19.6755H18.5737C18.7373 19.6755 18.8825 19.567 18.9266 19.409L19.4386 17.6167C19.8816 17.4917 20.3071 17.3152 20.7088 17.0909L22.3384 17.9963C22.4818 18.0762 22.661 18.0514 22.7768 17.9347L23.8173 16.8943C23.9331 16.7784 23.9588 16.5992 23.8788 16.4558L22.9735 14.8253C23.1978 14.4237 23.3742 13.9981 23.4992 13.5551L25.2915 13.0432C25.4496 12.9981 25.5581 12.8538 25.5581 12.6902V11.2196C25.5581 11.056 25.4496 10.9108 25.2915 10.8667ZM24.8228 12.4127L23.0948 12.9062C22.968 12.943 22.8696 13.0441 22.8384 13.1728C22.7134 13.6875 22.5103 14.1774 22.2355 14.6296C22.1665 14.7426 22.1638 14.8832 22.2281 15L23.1003 16.5698L22.4533 17.2169L20.8834 16.3446C20.7676 16.2803 20.6261 16.2831 20.513 16.352C20.0608 16.6277 19.5709 16.8309 19.0562 16.9549C18.9276 16.9862 18.8265 17.0836 18.7897 17.2114L18.2961 18.9393H17.3807L16.8871 17.2114C16.8503 17.0845 16.7492 16.9862 16.6206 16.9549C16.1059 16.8299 15.616 16.6268 15.1638 16.352C15.0507 16.2831 14.9101 16.2803 14.7934 16.3446L13.2235 17.2169L12.5765 16.5698L13.4487 15C13.513 14.8841 13.5103 14.7426 13.4413 14.6296C13.1656 14.1774 12.9625 13.6875 12.8384 13.1728C12.8072 13.0441 12.7097 12.943 12.582 12.9062L10.854 12.4127V11.4972L12.582 11.0036C12.7088 10.9669 12.8072 10.8658 12.8384 10.7371C12.9634 10.2224 13.1665 9.73252 13.4413 9.28031C13.5103 9.16726 13.513 9.02664 13.4487 8.90991L12.5765 7.34006L13.2235 6.69301L14.7934 7.56524C14.9092 7.62958 15.0507 7.62682 15.1638 7.55788C15.616 7.28214 16.1059 7.07902 16.6206 6.95495C16.7492 6.9237 16.8503 6.82627 16.8871 6.69852L17.3807 4.97058H18.2961L18.7897 6.69852C18.8265 6.82536 18.9276 6.92371 19.0562 6.95495C19.5709 7.07994 20.0608 7.28306 20.513 7.55788C20.6261 7.62682 20.7667 7.62958 20.8834 7.56524L22.4533 6.69301L23.1003 7.34006L22.2281 8.90991C22.1638 9.02572 22.1665 9.16728 22.2355 9.28031C22.5112 9.73252 22.7143 10.2224 22.8384 10.7371C22.8696 10.8658 22.9671 10.9669 23.0948 11.0036L24.8228 11.4972V12.4127Z" fill="#1CB496"/>
<path d="M25.3227 11.2196C25.3227 11.16 25.2831 11.1086 25.2283 11.0933L25.2269 11.093L23.3085 10.545L23.2729 10.4186C23.1529 9.99346 22.9834 9.58491 22.7681 9.1992L22.7042 9.08477L23.6727 7.34144C23.702 7.28831 23.6922 7.22392 23.6516 7.18358L22.6104 6.14245C22.5685 6.10047 22.5038 6.09166 22.453 6.11994L22.4526 6.12017L20.7086 7.08914L20.5941 7.02526C20.2084 6.8099 19.7999 6.64065 19.3747 6.52067L19.2483 6.48482L18.7003 4.5664C18.6841 4.5096 18.6324 4.47059 18.5737 4.47059H17.1031C17.0435 4.47059 16.992 4.5102 16.9767 4.56503L16.9765 4.5664L16.4285 6.48482L16.3021 6.52067C15.877 6.64063 15.4684 6.80989 15.0827 7.02526L14.9682 7.08914L13.2249 6.1204C13.1718 6.09111 13.1074 6.10114 13.0671 6.14176L12.0259 7.18289C11.9892 7.21966 11.9779 7.27377 11.9947 7.32076L12.0034 7.34029L12.0036 7.34075L12.9726 9.08477L12.9087 9.1992C12.6934 9.5849 12.5241 9.99348 12.4041 10.4186L12.3683 10.545L10.4499 11.093C10.3931 11.1092 10.3541 11.161 10.3541 11.2196V12.6902C10.3541 12.7424 10.3844 12.7883 10.4287 12.8092L10.4485 12.8166L10.4499 12.8168L12.3683 13.3649L12.4041 13.4912C12.5241 13.9164 12.6934 14.325 12.9087 14.7107L12.9726 14.8251L12.0039 16.5691L12.0041 16.5693C11.9785 16.6159 11.9827 16.6711 12.0114 16.7111L12.0252 16.7272L13.0664 17.7683C13.1083 17.8103 13.173 17.8191 13.2238 17.7908L13.2242 17.7906L14.9682 16.8216L15.0827 16.8855C15.4202 17.074 15.7752 17.2273 16.1436 17.343L16.3021 17.3903L16.4285 17.426L16.9765 19.3444L16.9841 19.3648C17.0056 19.4104 17.0517 19.4402 17.1031 19.4402H18.5737C18.6333 19.4402 18.6848 19.4006 18.7001 19.3458L18.7003 19.3444L19.2483 17.426L19.3747 17.3903C19.7999 17.2704 20.2084 17.1009 20.5941 16.8855L20.7086 16.8216L22.4526 17.7906L22.453 17.7908L22.4728 17.7998C22.5202 17.8168 22.5738 17.8053 22.6098 17.769L23.6509 16.7279L23.6651 16.7111C23.6903 16.6758 23.6965 16.6303 23.6821 16.59L23.6734 16.5705L23.6732 16.57L22.7042 14.8251L22.7681 14.7107C22.9834 14.3249 23.1529 13.9164 23.2729 13.4912L23.3085 13.3649L25.2269 12.8168L25.2474 12.8092C25.2929 12.7877 25.3227 12.7416 25.3227 12.6902V11.2196ZM18.4735 4.73529L19.0158 6.63303L19.022 6.65026C19.0389 6.68872 19.0723 6.71672 19.1118 6.72632L19.2125 6.75183C19.6806 6.87513 20.1282 7.06059 20.5461 7.30375L20.6353 7.35683L20.6355 7.35706L20.6511 7.36511C20.683 7.37918 20.7194 7.38013 20.7531 7.36694L20.7699 7.35913L22.4942 6.40118L23.3921 7.29916L22.4337 9.02411C22.4104 9.06604 22.4115 9.11727 22.4363 9.15784L22.4896 9.24699C22.7509 9.69481 22.9453 10.1767 23.067 10.6815L23.0723 10.6983C23.0869 10.736 23.1182 10.7653 23.1592 10.7773L25.058 11.3198V12.59L24.8873 12.639L23.1601 13.1321L23.1603 13.1323C23.1189 13.1443 23.087 13.1742 23.0723 13.2118L23.067 13.2284C22.9363 13.7667 22.7238 14.279 22.4365 14.7518L22.4363 14.752C22.4117 14.7923 22.4102 14.843 22.4342 14.8864L23.3921 16.6107L22.4942 17.5087L20.7692 16.5503C20.7325 16.5299 20.6887 16.5282 20.6511 16.5448L20.6355 16.5528C20.1626 16.8412 19.65 17.0539 19.1114 17.1838L19.1111 17.1835C19.0657 17.1948 19.0295 17.229 19.0158 17.2757L19.016 17.2759L18.4735 19.1746H17.2033L16.661 17.2768L16.6548 17.2598C16.6403 17.2267 16.6138 17.2014 16.5815 17.1888L16.565 17.1835C16.0267 17.0528 15.5143 16.8403 15.0415 16.553L15.0413 16.5528C15.001 16.5282 14.9504 16.5268 14.9069 16.5507L14.9067 16.5505L13.1826 17.5087L12.2847 16.6107L13.2431 14.8858L13.2506 14.8697C13.2636 14.8367 13.2627 14.7999 13.2486 14.7676L13.2405 14.752C12.9522 14.2791 12.7394 13.7665 12.6096 13.2279C12.5983 13.1824 12.5642 13.1459 12.5174 13.1323L10.6188 12.59V11.3198L12.516 10.7775C12.5633 10.7638 12.5988 10.7268 12.6098 10.6815L12.6353 10.5809C12.7674 10.0793 12.971 9.60126 13.2403 9.15807L13.2405 9.15784L13.2486 9.14221C13.265 9.10494 13.2636 9.06145 13.2426 9.02342L12.2847 7.29916L13.1826 6.40118L14.9076 7.35959L14.9237 7.36717C14.9621 7.38227 15.0058 7.37872 15.0413 7.35706L15.1305 7.30375C15.5486 7.05975 15.9964 6.87422 16.4648 6.7516L16.5654 6.72609C16.6111 6.71484 16.6475 6.68053 16.661 6.63349L17.1544 4.90602L17.2033 4.73529H18.4735ZM17.1135 6.76309L17.1132 6.76355C17.0533 6.97181 16.8876 7.13221 16.6762 7.18358H16.6757C16.2156 7.29449 15.7762 7.47174 15.3676 7.71023L15.2863 7.75872C15.1124 7.86475 14.8977 7.87537 14.7153 7.78951L14.6792 7.77089L13.2642 6.98482L12.8683 7.38073L13.6544 8.79571L13.6548 8.7964L13.6732 8.83247C13.7585 9.0149 13.7482 9.22824 13.6422 9.40232L13.6424 9.40255C13.3965 9.8072 13.2108 10.2433 13.0903 10.7008L13.0671 10.7927C13.0155 11.0048 12.8538 11.1699 12.6475 11.2297L12.6466 11.23L11.0893 11.6746V12.235L12.6466 12.6799L12.647 12.6801L12.6856 12.6925C12.8624 12.7563 12.9996 12.8983 13.0563 13.0781L13.0671 13.1171V13.1176L13.0903 13.2093C13.21 13.6666 13.3955 14.1025 13.6422 14.5071L13.6622 14.5425C13.7492 14.7095 13.7529 14.9078 13.6727 15.0781L13.6544 15.1142L12.8683 16.5289L13.2642 16.9248L14.6792 16.139L14.6799 16.1385L14.7159 16.1201C14.8983 16.0348 15.1117 16.045 15.2858 16.1509C15.7174 16.4132 16.1851 16.607 16.6762 16.7263L16.7152 16.7373C16.8955 16.7942 17.0369 16.9322 17.1006 17.1077L17.113 17.1459L17.1135 17.1468L17.5583 18.704H18.1185L18.5634 17.1468L18.5636 17.1463L18.576 17.1077C18.6444 16.9183 18.8024 16.7744 19.0006 16.7263H19.0011L19.0928 16.7031C19.5501 16.5834 19.986 16.3978 20.3906 16.1511L20.4257 16.1312C20.6047 16.0378 20.8198 16.0402 20.9976 16.139L22.4124 16.9248L22.8083 16.5289L22.0224 15.1142L22.022 15.1135C21.9173 14.9235 21.9214 14.6928 22.0346 14.5071C22.2968 14.0755 22.4905 13.6081 22.6098 13.1171L22.6208 13.0781C22.6817 12.885 22.8358 12.7364 23.0293 12.6803L23.0302 12.6799L24.5875 12.235V11.6746L23.0302 11.23L23.0298 11.2297C22.8215 11.1698 22.6611 11.0041 22.6098 10.7927V10.7923C22.4988 10.3321 22.3216 9.89277 22.0831 9.48412L22.0346 9.40278C21.9215 9.21729 21.9171 8.98538 22.0224 8.79571L22.8083 7.38073L22.4124 6.98482L20.9976 7.77089L20.9969 7.77135C20.807 7.87599 20.5765 7.87189 20.3908 7.75872C19.9861 7.5128 19.5501 7.3273 19.0925 7.20679L19.0006 7.18358C18.7886 7.13206 18.6236 6.97036 18.5638 6.764L18.5634 6.76309L18.1185 5.20588H17.5583L17.1135 6.76309ZM25.7933 12.6902C25.7933 12.942 25.6369 13.1657 25.4036 13.2536L25.3561 13.2695L23.6876 13.7458C23.5736 14.1189 23.4241 14.4792 23.2414 14.8235L24.0842 16.3412L24.107 16.3862C24.2031 16.5984 24.1671 16.8471 24.0174 17.0238L23.9836 17.0606L22.9432 18.101C22.7526 18.2925 22.4586 18.3326 22.2237 18.2017L20.707 17.3591C20.3627 17.5417 20.0023 17.691 19.6293 17.8051L19.153 19.4735L19.1527 19.4733C19.0794 19.734 18.8409 19.9108 18.5737 19.9108H17.1031C16.8514 19.9108 16.6276 19.7543 16.5397 19.5211L16.5238 19.4735L16.0473 17.8051C15.6743 17.691 15.3139 17.5417 14.9696 17.3591L13.4529 18.2015L13.4531 18.2017C13.2171 18.3333 12.9233 18.2907 12.7336 18.101L11.6932 17.0606C11.5011 16.8693 11.4633 16.5756 11.5919 16.3423L11.5923 16.3416L12.4352 14.8235C12.2525 14.4792 12.103 14.1189 11.9889 13.7458L10.3207 13.2695C10.0602 13.1961 9.88347 12.9573 9.88347 12.6902V11.2196C9.88347 10.9511 10.0614 10.7143 10.3207 10.6404L11.9889 10.1638C12.103 9.7908 12.2523 9.43038 12.4349 9.08615L11.5926 7.56961L11.5698 7.52457C11.4668 7.29718 11.5155 7.02791 11.6932 6.85017L12.7336 5.80974C12.913 5.62951 13.1823 5.58518 13.4076 5.68634L13.4519 5.7084L13.4526 5.70886L14.9696 6.55146C15.3138 6.36881 15.6743 6.21953 16.0473 6.10546L16.5238 4.43727C16.5972 4.17666 16.836 4 17.1031 4H18.5737C18.8422 4 19.079 4.17794 19.153 4.43727L19.6293 6.10546C20.0023 6.21952 20.3627 6.36883 20.707 6.55146L22.2242 5.70886C22.4601 5.57751 22.7536 5.62023 22.9432 5.80974L23.9829 6.84948L24.0174 6.88648C24.1799 7.07724 24.2056 7.34945 24.0849 7.56846L24.0845 7.56915L23.2416 9.08615C23.4243 9.43039 23.5736 9.79079 23.6876 10.1638L25.3561 10.6404C25.6168 10.7137 25.7933 10.9524 25.7933 11.2196V12.6902Z" fill="#1CB496"/>
<path d="M17.8374 7.91071C15.6076 7.91071 13.7932 9.72504 13.7932 11.9549C13.7932 14.1848 15.6075 15.9992 17.8374 15.9992C20.0673 15.9992 21.8816 14.1848 21.8816 11.9549C21.8816 9.72504 20.0673 7.91071 17.8374 7.91071ZM17.8374 15.2636C16.013 15.2636 14.5287 13.7793 14.5287 11.9549C14.5287 10.1306 16.0131 8.64624 17.8374 8.64624C19.6617 8.64624 21.1461 10.1306 21.1461 11.9549C21.1461 13.7793 19.6617 15.2636 17.8374 15.2636Z" fill="#1CB496"/>
<path d="M21.6463 11.955C21.6463 9.85513 19.9374 8.14607 17.8375 8.14601C15.7377 8.14601 14.0285 9.8551 14.0285 11.955C14.0286 14.0549 15.7376 15.7639 17.8375 15.7639C19.9374 15.7638 21.6463 14.0549 21.6463 11.955ZM20.9108 11.955C20.9108 10.2607 19.5319 8.88159 17.8375 8.88153C16.1432 8.88153 14.764 10.2607 14.764 11.955C14.7641 13.6494 16.1431 15.0283 17.8375 15.0283C19.5318 15.0283 20.9108 13.6493 20.9108 11.955ZM21.3814 11.955C21.3814 13.9092 19.7917 15.4989 17.8375 15.4989C15.8832 15.4989 14.2935 13.9093 14.2934 11.955C14.2934 10.0008 15.8833 8.41094 17.8375 8.41094C19.7918 8.411 21.3814 10.0008 21.3814 11.955ZM22.1169 11.955C22.1169 14.3148 20.1973 16.2344 17.8375 16.2344C15.4777 16.2344 13.558 14.3148 13.5579 11.955C13.5579 9.5952 15.4778 7.67542 17.8375 7.67542C20.1973 7.67548 22.1169 9.59524 22.1169 11.955Z" fill="#1CB496"/>
<path d="M19.048 10.5919L17.1592 12.4806L16.6721 11.7509C16.5591 11.5817 16.3311 11.5358 16.1629 11.6488C15.9938 11.7619 15.9478 11.9898 16.0609 12.158L16.7962 13.261C16.8568 13.3529 16.9561 13.4117 17.0664 13.4227C17.0783 13.4246 17.0903 13.4246 17.1032 13.4246C17.2006 13.4246 17.2943 13.386 17.3633 13.317L19.5691 11.1112C19.7125 10.9678 19.7125 10.7343 19.5691 10.591C19.4258 10.4476 19.1923 10.4476 19.0489 10.591L19.048 10.5919Z" fill="#1CB496"/>
<path d="M18.8838 10.4237C19.1191 10.1894 19.5007 10.1897 19.7356 10.4246C19.9561 10.6452 19.9699 10.9951 19.7769 11.2318L19.7356 11.2775L17.5297 13.4834C17.4164 13.5967 17.2627 13.6599 17.1032 13.6599C17.0948 13.6599 17.0708 13.6595 17.043 13.6562V13.6569C17.0389 13.6565 17.0349 13.6558 17.0308 13.6553L17.0306 13.6551C16.8566 13.6341 16.6981 13.5396 16.5998 13.3906L15.8652 12.2886L15.8654 12.2883C15.6797 12.0111 15.7562 11.6381 16.0318 11.4536L16.0848 11.4216C16.3552 11.2775 16.6946 11.3613 16.8677 11.6201L17.1958 12.1112L18.8817 10.4255L18.8826 10.4244L18.8838 10.4237ZM19.4028 10.7573C19.3577 10.7122 19.2874 10.7067 19.236 10.7406L19.2153 10.7573L17.1227 12.8499L16.4764 11.8814C16.4348 11.8196 16.353 11.8046 16.2942 11.8442L16.2937 11.8444C16.2394 11.8807 16.2211 11.9479 16.2438 12.0036L16.2562 12.0269L16.992 13.1305L16.9925 13.1314L17.0106 13.153C17.0243 13.166 17.0411 13.1762 17.06 13.1824L17.0899 13.1886L17.0961 13.1893H17.1032C17.1386 13.1893 17.1724 13.1753 17.197 13.1507L19.4028 10.9448L19.4196 10.9241C19.4535 10.8728 19.4479 10.8024 19.4028 10.7573Z" fill="#1CB496"/>
</svg>
