<svg width="33" height="32" viewBox="0 0 33 32" fill="none" xmlns="http://www.w3.org/2000/svg">
<path d="M16.3334 5.33337C22.2246 5.33337 27.0001 10.1088 27.0001 16C27.0001 21.8912 22.2246 26.6667 16.3334 26.6667C10.4422 26.6667 5.66675 21.8912 5.66675 16C5.66675 10.1088 10.4422 5.33337 16.3334 5.33337ZM16.3334 7.46671C14.0702 7.46671 11.8997 8.36575 10.2994 9.96606C8.69913 11.5664 7.80008 13.7369 7.80008 16C7.80008 18.2632 8.69913 20.4337 10.2994 22.034C11.8997 23.6343 14.0702 24.5334 16.3334 24.5334C18.5966 24.5334 20.7671 23.6343 22.3674 22.034C23.9677 20.4337 24.8667 18.2632 24.8667 16C24.8667 13.7369 23.9677 11.5664 22.3674 9.96606C20.7671 8.36575 18.5966 7.46671 16.3334 7.46671ZM16.3334 20.2667C16.6163 20.2667 16.8876 20.3791 17.0877 20.5791C17.2877 20.7792 17.4001 21.0505 17.4001 21.3334C17.4001 21.6163 17.2877 21.8876 17.0877 22.0876C16.8876 22.2877 16.6163 22.4 16.3334 22.4C16.0505 22.4 15.7792 22.2877 15.5792 22.0876C15.3791 21.8876 15.2667 21.6163 15.2667 21.3334C15.2667 21.0505 15.3791 20.7792 15.5792 20.5791C15.7792 20.3791 16.0505 20.2667 16.3334 20.2667ZM16.3334 10.1334C17.2318 10.1334 18.1022 10.4463 18.795 11.0183C19.4879 11.5903 19.9599 12.3857 20.13 13.2679C20.3001 14.15 20.1578 15.0639 19.7273 15.8525C19.2969 16.6411 18.6053 17.2553 17.7713 17.5894C17.6478 17.6348 17.5364 17.7082 17.4459 17.8038C17.399 17.8571 17.3915 17.9254 17.3926 17.9958L17.4001 18.1334C17.3998 18.4052 17.2957 18.6667 17.109 18.8644C16.9224 19.0621 16.6673 19.1811 16.3959 19.197C16.1245 19.213 15.8573 19.1247 15.6488 18.9502C15.4403 18.7757 15.3063 18.5281 15.2742 18.2582L15.2667 18.1334V17.8667C15.2667 16.6368 16.2587 15.8987 16.9777 15.6096C17.2703 15.4928 17.5255 15.2985 17.716 15.0475C17.9065 14.7965 18.025 14.4984 18.0589 14.1852C18.0927 13.8719 18.0406 13.5554 17.9081 13.2695C17.7756 12.9837 17.5677 12.7393 17.3068 12.5627C17.0459 12.3861 16.7418 12.2838 16.4272 12.267C16.1126 12.2502 15.7993 12.3193 15.521 12.4671C15.2428 12.6149 15.01 12.8356 14.8478 13.1057C14.6855 13.3758 14.5999 13.685 14.6001 14C14.6001 14.2829 14.4877 14.5542 14.2877 14.7543C14.0876 14.9543 13.8163 15.0667 13.5334 15.0667C13.2505 15.0667 12.9792 14.9543 12.7792 14.7543C12.5791 14.5542 12.4667 14.2829 12.4667 14C12.4667 12.9745 12.8741 11.991 13.5993 11.2659C14.3244 10.5408 15.3079 10.1334 16.3334 10.1334Z" fill="#1CB496"/>
</svg>
