<svg width="21" height="30" viewBox="0 0 21 30" fill="none" xmlns="http://www.w3.org/2000/svg">
<path d="M2.05089 24.6455V26.7199C2.05198 28.0131 3.10126 29.0623 4.39442 29.0634H16.5835C17.8767 29.0623 18.9259 28.0131 18.927 26.7199V24.6455C19.7807 24.2731 20.3323 23.4315 20.3334 22.5009V7.4991C20.3323 6.56849 19.7807 5.72688 18.927 5.35442V3.28007C18.9259 1.98688 17.8767 0.93763 16.5835 0.936533H4.39442C3.10123 0.937632 2.05198 1.9869 2.05089 3.28007V5.35442C1.19718 5.72688 0.645638 6.56849 0.644541 7.4991V22.5009C0.645639 23.4315 1.19718 24.2731 2.05089 24.6455ZM17.9898 26.7199C17.9898 27.4967 17.3603 28.1262 16.5835 28.1262H4.39442C3.61764 28.1262 2.98807 27.4967 2.98807 26.7199V24.8444H17.9898V26.7199ZM7.67626 1.87372H13.3016V2.34288C13.3016 2.46703 13.2522 2.58679 13.1643 2.67469C13.0764 2.76259 12.9567 2.81203 12.8325 2.81203H8.14543C7.88613 2.81203 7.67627 2.60218 7.67627 2.34287L7.67626 1.87372ZM2.98807 3.28007C2.98807 2.50329 3.61764 1.87372 4.39442 1.87372H6.73795L6.73905 2.34288C6.73905 3.11966 7.36861 3.74922 8.1454 3.74922H12.8325C13.6092 3.74922 14.2388 3.11966 14.2388 2.34288V1.87372H16.5834C17.3602 1.87372 17.9898 2.50329 17.9898 3.28007V5.15557H2.98802L2.98807 3.28007ZM1.58173 7.4991C1.58173 6.72232 2.21129 6.09276 2.98807 6.09276H17.9898C18.7666 6.09276 19.3962 6.72232 19.3962 7.4991V22.5009C19.3962 23.2776 18.7666 23.9072 17.9898 23.9072H2.98807C2.21129 23.9072 1.58173 23.2776 1.58173 22.5009V7.4991Z" fill="#1CB496"/>
<path d="M18.7834 3.16691C18.7253 2.04141 17.8221 1.1382 16.6966 1.08019L16.5835 1.07717H4.39443C3.1789 1.07826 2.19261 2.06458 2.19152 3.28007V5.44645L2.10719 5.48326C1.30469 5.83338 0.786206 6.62465 0.785175 7.49938V22.5006L0.786823 22.5824C0.818924 23.4244 1.32976 24.1775 2.10719 24.5167L2.19152 24.5535V26.7199L2.19454 26.8331C2.25449 27.996 3.21688 28.9217 4.39443 28.9228H16.5835L16.6966 28.9198C17.8222 28.8618 18.7254 27.9585 18.7834 26.8331L18.7864 26.7199V24.5535L18.8707 24.5167C19.6732 24.1666 20.1916 23.3755 20.1927 22.5009V7.49938L20.1911 7.41753C20.159 6.57553 19.6481 5.82244 18.8707 5.48326L18.7864 5.44645V3.28007L18.7834 3.16691ZM17.8492 24.985H3.12872V26.7199C3.12872 27.419 3.69532 27.9856 4.39443 27.9856H16.5835C17.2826 27.9856 17.8492 27.419 17.8492 26.7199V24.985ZM19.2555 7.49911C19.2555 6.8 18.6889 6.2334 17.9898 6.2334H2.98808C2.28897 6.2334 1.72237 6.8 1.72237 7.49911V22.5009C1.72237 23.2 2.28897 23.7666 2.98808 23.7666H17.9898C18.6889 23.7666 19.2555 23.2 19.2555 22.5009V7.49911ZM2.84745 3.28007C2.84745 2.42562 3.53998 1.7331 4.39443 1.7331H6.87833L6.8797 2.3426L6.88135 2.40798C6.91523 3.07682 7.46814 3.60859 8.14541 3.60859H12.8325C13.5316 3.60857 14.0982 3.04198 14.0982 2.34288V1.7331H16.5835C17.4379 1.73312 18.1305 2.42564 18.1305 3.28007V5.2962H2.84745V3.28007ZM13.161 2.01436H7.8169V2.34288L7.81855 2.37639C7.8353 2.54223 7.97511 2.67138 8.14541 2.67139H12.8325C12.9195 2.67139 13.0034 2.6367 13.0649 2.57525C13.1263 2.5138 13.161 2.42983 13.161 2.34288V2.01436ZM18.1305 26.7199C18.1305 27.5743 17.4379 28.2669 16.5835 28.2669H4.39443C3.53998 28.2669 2.84745 27.5743 2.84745 26.7199V24.7038H18.1305V26.7199ZM19.5368 22.5009C19.5368 23.3553 18.8443 24.0478 17.9898 24.0478H2.98808C2.13363 24.0478 1.4411 23.3553 1.4411 22.5009V7.49911C1.4411 6.64466 2.13363 5.95213 2.98808 5.95213H17.9898C18.8443 5.95213 19.5368 6.64466 19.5368 7.49911V22.5009ZM19.0677 5.26434C19.9243 5.67662 20.4728 6.54343 20.474 7.49883V22.5011C20.4728 23.4565 19.9242 24.323 19.0677 24.7353V26.7199L19.0644 26.8476C18.999 28.1168 17.9805 29.1354 16.7112 29.2008L16.5835 29.2041H4.39443C3.06648 29.2029 1.98107 28.1591 1.91355 26.8476L1.91025 26.7199V24.7353C1.05367 24.323 0.505072 23.4565 0.503906 22.5011V7.49883L0.505829 7.40682C0.540835 6.48807 1.0812 5.66334 1.91025 5.26434V3.28007C1.91141 1.90934 3.02366 0.797063 4.39443 0.795898H16.5835L16.7112 0.799195C18.0227 0.866715 19.0665 1.9521 19.0677 3.28007V5.26434ZM13.4423 2.34288C13.4423 2.50423 13.3781 2.65978 13.2637 2.77412C13.1494 2.88847 12.9938 2.95266 12.8325 2.95266H8.14541C7.8295 2.95265 7.56984 2.71287 7.53865 2.40523L7.53563 2.34288V1.7331H13.4423V2.34288ZM14.3795 2.34288C14.3795 3.19732 13.6869 3.88984 12.8325 3.88986H8.14541C7.29105 3.88986 6.59858 3.19748 6.59843 2.34315L6.59761 2.01436H4.39443C3.69532 2.01436 3.12872 2.58096 3.12872 3.28007V5.01493H17.8492V3.28007C17.8492 2.58098 17.2826 2.01439 16.5835 2.01436H14.3795V2.34288Z" fill="#1CB496"/>
<path d="M7.20713 27.1879H13.7708C14.029 27.1879 14.2389 26.9781 14.2389 26.7199C14.2389 26.4606 14.029 26.2507 13.7708 26.2507H7.20713C6.94893 26.2507 6.73907 26.4606 6.73907 26.7199C6.73907 26.9781 6.94892 27.1879 7.20713 27.1879Z" fill="#1CB496"/>
<path d="M5.80082 22.0317H15.1772C16.4704 22.0306 17.5196 20.9813 17.5207 19.6882V18.7499C17.5207 18.4917 17.3109 18.2818 17.0516 18.2818C16.7934 18.2818 16.5835 18.4917 16.5835 18.7499V19.6882C16.5835 20.4649 15.954 21.0945 15.1772 21.0945H5.80079C5.02401 21.0945 4.39445 20.4649 4.39445 19.6882V18.7499C4.39445 18.4917 4.18459 18.2818 3.92639 18.2818C3.66709 18.2818 3.45723 18.4917 3.45723 18.7499V19.6882C3.45833 20.9814 4.50766 22.0306 5.80082 22.0317Z" fill="#1CB496"/>
<path d="M10.1569 19.0818C10.3404 19.2652 10.637 19.2652 10.8205 19.0818L13.1641 16.7382C13.342 16.5536 13.3388 16.2614 13.1586 16.0812C12.9773 15.8999 12.685 15.8977 12.5015 16.0746L10.9579 17.6183V8.90543C10.9579 8.64723 10.748 8.43737 10.4887 8.43737C10.2294 8.43737 10.0195 8.64722 10.0195 8.90543V17.6183L8.47586 16.0746C8.29237 15.8977 8.00012 15.8999 7.81884 16.0812C7.63865 16.2614 7.63536 16.5536 7.81335 16.7382L10.1569 19.0818Z" fill="#1CB496"/>
<path d="M4.19776 19.6881V18.7498C4.19773 18.6004 4.0761 18.4787 3.92665 18.4787C3.77581 18.4787 3.65447 18.6007 3.65445 18.7498V19.6881L3.65719 19.7983C3.71556 20.9317 4.65374 21.8338 5.80132 21.8347H15.1774L15.2876 21.832C16.3844 21.7755 17.2648 20.8951 17.3213 19.7983L17.324 19.6881V18.7498C17.324 18.6007 17.2027 18.4787 17.0518 18.4787C16.9024 18.4788 16.7807 18.6004 16.7807 18.7498V19.6881C16.7807 20.5736 16.0629 21.2914 15.1774 21.2914H5.80105C4.91554 21.2914 4.19776 20.5736 4.19776 19.6881ZM10.7612 8.90542C10.7612 8.75626 10.6398 8.63431 10.489 8.63431C10.3381 8.63433 10.2168 8.75626 10.2167 8.90542V18.0936L8.33961 16.2165L8.31873 16.1984C8.21935 16.1202 8.07774 16.1212 7.97896 16.2019L7.95836 16.2203C7.85403 16.3247 7.85191 16.4943 7.95534 16.6016L10.2964 18.9427L10.317 18.9613C10.4241 19.0488 10.5815 19.0425 10.6815 18.9427L13.0226 16.6016C13.1196 16.501 13.1238 16.3456 13.038 16.2407L13.0196 16.2203C12.9142 16.115 12.7447 16.114 12.6386 16.2162L10.7612 18.0936V8.90542ZM17.7179 19.6884C17.7167 21.0901 16.5794 22.2274 15.1777 22.2286H5.80105C4.39931 22.2274 3.26179 21.0902 3.26056 19.6884V18.7498C3.26059 18.3826 3.55894 18.0848 3.92665 18.0848C4.29359 18.0848 4.59162 18.3829 4.59165 18.7498V19.6881C4.59165 20.3562 5.13301 20.8975 5.80105 20.8975H15.1774C15.8455 20.8975 16.3868 20.3562 16.3868 19.6881V18.7498C16.3868 18.3829 16.6849 18.0849 17.0518 18.0848C17.4195 18.0848 17.7179 18.3826 17.7179 18.7498V19.6884ZM11.155 17.143L12.3653 15.9327L12.4158 15.8888C12.6772 15.6829 13.057 15.701 13.2981 15.9421L13.3431 15.9918C13.5537 16.2493 13.5428 16.6294 13.306 16.8749L10.96 19.2209C10.7159 19.465 10.3305 19.4803 10.0687 19.2668L10.0179 19.2209L7.67187 16.8749C7.41936 16.613 7.42388 16.1981 7.67984 15.9421L7.72983 15.8968C7.97103 15.6995 8.3181 15.6967 8.5621 15.8888L8.61291 15.9327L8.61538 15.9355L9.82286 17.143V8.90542C9.82287 8.53819 10.1212 8.24044 10.489 8.24043C10.8567 8.24043 11.155 8.53819 11.155 8.90542V17.143Z" fill="#1CB496"/>
</svg>
