<svg width="33" height="30" viewBox="0 0 33 30" fill="none" xmlns="http://www.w3.org/2000/svg">
<path d="M29.6994 4.37302H27.0032C26.5697 4.37302 26.22 4.73028 26.22 5.16975C26.22 5.61071 26.5712 5.96648 27.0032 5.96648H29.6994C30.1931 5.96648 30.5957 6.37457 30.5957 6.87832V22.927C30.5957 23.3679 30.246 23.7282 29.817 23.7282C22.1574 23.7252 10.8314 23.7282 3.17177 23.7282C2.73832 23.7282 2.38418 23.368 2.38418 22.927V6.76773C2.38418 6.32677 2.73829 5.96801 3.17177 5.96801H5.97674C7.0097 5.95456 7.00236 4.38649 5.97674 4.37302H3.17177C1.87287 4.37302 0.816406 5.4478 0.816406 6.76773V22.9281C0.816406 24.2495 1.87287 25.3243 3.17177 25.3243H12.8886L12.054 27.6099H10.8153C10.3818 27.6099 10.0321 27.9672 10.0321 28.4067C10.0321 28.8476 10.3833 29.2034 10.8153 29.2034C10.8182 29.2049 20.35 29.2034 20.3527 29.2034H22.1673C23.1958 29.1825 23.2002 27.6293 22.1673 27.6084H20.9286L20.094 25.3228H29.8153C31.1098 25.3228 32.1619 24.248 32.1619 22.9266L32.1633 6.87794C32.1633 5.49671 31.0584 4.3711 29.6992 4.3711L29.6994 4.37302ZM19.2582 27.6087H13.7246L14.5592 25.3231H18.4234L19.2582 27.6087Z" fill="#1CB496"/>
<path d="M16.4896 15.8445C19.2373 15.8445 21.4737 13.5709 21.4737 10.774C21.5545 7.14906 17.5635 4.56895 14.3798 6.18805C13.4585 6.65893 14.1197 8.06106 15.0557 7.62607C17.2348 6.52289 19.9604 8.29575 19.9047 10.7742C19.9047 12.6906 18.3722 14.2497 16.4885 14.2497C14.6048 14.2497 13.0708 12.6906 13.0708 10.7742C12.9753 10.0148 13.8451 8.92809 12.8504 8.49907C11.6323 8.15077 11.5485 9.94455 11.503 10.7742C11.503 13.5695 13.7393 15.8446 16.487 15.8446L16.4896 15.8445Z" fill="#1CB496"/>
<path d="M6.68499 11.6768C6.68499 12.2747 7.08318 12.7949 7.65475 12.9444L8.98746 13.2867C9.10942 13.6649 9.26076 14.0356 9.43854 14.3944L8.73472 15.5947C8.43204 16.1089 8.51138 16.7651 8.92868 17.1897L10.1865 18.4693C10.6023 18.8923 11.2473 18.9745 11.7528 18.6666L12.9327 17.9491C13.2853 18.1299 13.6497 18.2839 14.0215 18.408L14.3579 19.7653C14.5034 20.3453 15.0147 20.7504 15.6025 20.7504H17.3804C17.9711 20.7504 18.4824 20.3453 18.6264 19.7638L18.9629 18.408C19.3361 18.2824 19.7005 18.1299 20.0517 17.9491L21.2316 18.6651C21.7385 18.9745 22.3821 18.8923 22.7994 18.4678L24.0571 17.1882C24.4745 16.7636 24.5538 16.1089 24.2511 15.5947L23.5473 14.3944C23.7236 14.0386 23.8749 13.6679 23.9984 13.2867L25.3325 12.9444C25.9041 12.7979 26.3008 12.2762 26.3008 11.6783V9.8695C26.3008 9.27008 25.9026 8.74987 25.3311 8.60189L23.9984 8.25958C23.8749 7.8784 23.7236 7.50616 23.5473 7.15192L24.2511 5.95158C24.5538 5.43734 24.4744 4.78113 24.0571 4.35659L22.7994 3.077C22.3835 2.65395 21.7385 2.57026 21.233 2.87968L20.0531 3.5972C19.702 3.41632 19.3361 3.26236 18.9644 3.1383L18.6279 1.78397C18.4854 1.20249 17.9726 0.795898 17.3819 0.795898H15.6039C15.0147 0.795898 14.5034 1.201 14.3579 1.78247L14.0215 3.1383C13.6497 3.26237 13.2839 3.41633 12.9327 3.5972L11.7528 2.88118C11.2459 2.57175 10.6023 2.65396 10.185 3.07849L8.92721 4.35808C8.50991 4.78262 8.43058 5.43734 8.73326 5.95158L9.43855 7.15192C9.26076 7.50918 9.10942 7.88138 8.98747 8.25958L7.65329 8.60189C7.08319 8.74988 6.68499 9.27008 6.68499 9.86801L6.68499 11.6768ZM8.25133 10.0923C8.9904 9.86803 10.2159 9.81871 10.4392 8.87696C10.6287 8.08321 11.3869 7.29096 10.8682 6.47479L10.1938 5.32527L11.1386 4.3641C11.8086 4.73482 12.7328 5.58687 13.5307 5.07863C14.2169 4.6526 15.3042 4.63917 15.5026 3.68845L15.8243 2.39095H17.1629L17.4847 3.68845C17.6831 4.64066 18.7689 4.65409 19.4566 5.08013C20.2603 5.58985 21.1801 4.73333 21.8487 4.36559L22.7935 5.32676L22.1205 6.47479C21.5974 7.29245 22.3571 8.08023 22.5481 8.87845C22.6833 9.32243 23.0227 9.65425 23.4591 9.76488L24.7345 10.0922V11.454L23.4591 11.7814C23.0227 11.892 22.6818 12.2239 22.5466 12.6693C22.3571 13.4661 21.5974 14.2568 22.119 15.0715L22.7935 16.221L21.8487 17.1822L20.7173 16.4946C19.9136 15.9669 19.1363 16.7382 18.3561 16.9325C17.9197 17.0701 17.5935 17.4153 17.4847 17.8593L17.163 19.1568H15.8244C15.604 18.4049 15.5555 17.1582 14.6298 16.931C13.8525 16.7382 13.0664 15.9684 12.27 16.4946L11.1386 17.1807L10.1939 16.2195L10.8698 15.0685C11.3914 14.2479 10.6288 13.4616 10.4393 12.6663C10.2174 11.7231 8.98606 11.6768 8.25286 11.4525V10.0907L8.25133 10.0923Z" fill="#1CB496"/>
</svg>
