<svg width="28" height="30" viewBox="0 0 28 30" fill="none" xmlns="http://www.w3.org/2000/svg">
<path d="M26.9478 19.1127C26.9015 18.5052 26.4327 18.0195 25.8351 17.9586C24.3762 17.8077 22.9697 17.322 21.7232 16.5395C21.3544 16.3087 20.8918 16.2947 20.5105 16.504V2.14909C20.5105 1.40211 19.9129 0.797165 19.1778 0.795898H1.84175C1.1054 0.797167 0.509061 1.40211 0.507812 2.14909V25.8214C0.509063 26.5684 1.1054 27.1733 1.84175 27.1746H17.2326C17.8964 27.8176 18.6765 28.3261 19.5292 28.6724L20.6168 29.1137C20.9131 29.2342 21.2431 29.2342 21.5382 29.1137L22.6271 28.6724C24.0497 28.1004 25.2524 27.0808 26.0611 25.7631C26.87 24.4454 27.24 22.8995 27.1175 21.3536L26.9478 19.1127ZM1.84201 2.14914H19.1781V17.1887C18.9731 17.2788 18.7705 17.3739 18.5592 17.4487V17.45C17.8354 17.7087 17.0853 17.8786 16.3214 17.9585C15.7239 18.0194 15.2551 18.5051 15.2075 19.1126L15.0375 21.3535C14.9162 22.9235 15.3013 24.4923 16.1339 25.8215H1.84209L1.84201 2.14914ZM22.1321 27.4156L21.0782 27.8429L20.0243 27.4156V27.4168C19.2667 27.1099 18.5816 26.6458 18.0115 26.0548C17.9965 26.037 17.9815 26.0193 17.964 26.004C16.8176 24.7878 16.2363 23.1341 16.3675 21.4562L16.5313 19.2952V19.2965C17.7702 19.1608 18.9766 18.8107 20.0982 18.2616C20.1044 18.2591 20.1107 18.254 20.1169 18.2515C20.4457 18.0917 20.767 17.9167 21.077 17.7239H21.0783C22.461 18.5812 24.0137 19.1177 25.6239 19.2965L25.7876 21.4575L25.7889 21.4562C25.8876 22.7155 25.5864 23.9749 24.9288 25.0476C24.2699 26.1193 23.2897 26.9501 22.1321 27.4156Z" fill="#1CB496"/>
<path d="M4.5086 10.9416H16.5102C16.6877 10.9416 16.8565 10.8706 16.9815 10.7438C17.1078 10.617 17.1778 10.4445 17.1778 10.2656V4.85419C17.1778 4.67538 17.1078 4.50291 16.9815 4.37606C16.8565 4.24925 16.6877 4.17822 16.5102 4.17822H4.5086C4.33233 4.17822 4.16232 4.24924 4.03728 4.37606C3.91224 4.50289 3.84225 4.67536 3.84225 4.85419V10.2656C3.84225 10.4445 3.91226 10.6169 4.03728 10.7438C4.16229 10.8706 4.33232 10.9416 4.5086 10.9416ZM5.17493 5.53016H15.8439V9.58843H5.17621L5.17493 5.53016Z" fill="#1CB496"/>
<path d="M4.5086 17.3676H16.5102C16.879 17.3676 17.1778 17.0645 17.1778 16.6904C17.1778 16.3176 16.879 16.0145 16.5102 16.0145H4.5086C4.14107 16.0145 3.84227 16.3176 3.84227 16.6904C3.84227 17.0645 4.14106 17.3676 4.5086 17.3676Z" fill="#1CB496"/>
<path d="M11.8433 19.0581H4.5086C4.14107 19.0581 3.84227 19.3612 3.84227 19.7341C3.84227 20.1082 4.14106 20.4113 4.5086 20.4113H11.8433C12.2121 20.4113 12.5097 20.1082 12.5097 19.7341C12.5097 19.3612 12.2121 19.0581 11.8433 19.0581Z" fill="#1CB496"/>
<path d="M11.8433 22.1018H4.5086C4.14107 22.1018 3.84227 22.4049 3.84227 22.7778C3.84227 23.1519 4.14106 23.455 4.5086 23.455H11.8433C12.2121 23.455 12.5097 23.1519 12.5097 22.7778C12.5097 22.4049 12.2121 22.1018 11.8433 22.1018Z" fill="#1CB496"/>
<path d="M4.5086 14.3239H16.5102C16.879 14.3239 17.1778 14.0208 17.1778 13.6467C17.1778 13.2739 16.879 12.9708 16.5102 12.9708H4.5086C4.14107 12.9708 3.84227 13.2739 3.84227 13.6467C3.84227 14.0208 4.14106 14.3239 4.5086 14.3239Z" fill="#1CB496"/>
<path d="M22.206 21.086L20.4458 22.9287L20.0932 22.571C19.8332 22.3085 19.4131 22.3098 19.1531 22.5723C18.8931 22.8361 18.8931 23.2622 19.1506 23.5273L19.982 24.3706C20.107 24.4974 20.277 24.5685 20.4533 24.5685H20.4583C20.6371 24.5672 20.8071 24.4924 20.9321 24.363L23.1637 22.027C23.2862 21.8976 23.3549 21.7252 23.3512 21.5451C23.3487 21.3662 23.2762 21.195 23.1487 21.0708C23.0224 20.9452 22.8511 20.8767 22.6748 20.8793C22.4973 20.8831 22.3285 20.9566 22.206 21.086Z" fill="#1CB496"/>
</svg>
