<svg width="24" height="30" viewBox="0 0 24 30" fill="none" xmlns="http://www.w3.org/2000/svg">
<path d="M2.92274 15.1425L3.8337 10.8665L3.82697 10.8635C2.8633 10.439 2.02822 9.71595 1.46789 8.75898C0.907177 7.80239 0.682147 6.71663 0.778215 5.66174C0.874283 4.60648 1.2922 3.58097 2.01701 2.74301C2.74107 1.9043 3.69278 1.34654 4.71663 1.10589C5.74049 0.865986 6.83835 0.942061 7.85585 1.37064C8.87447 1.7996 9.70021 2.53437 10.2493 3.43861C10.7614 4.28071 11.0343 5.27082 11.0014 6.29784L15.6112 7.7749C15.8688 7.85776 16.0964 7.97865 16.2927 8.13795C16.4889 8.29651 16.6549 8.49498 16.7902 8.73149L23.2724 20.043C23.5621 20.5465 23.6204 21.1223 23.4821 21.6432C23.3437 22.1648 23.0073 22.6341 22.5079 22.9248L12.4656 28.7645C11.973 29.0394 11.4156 29.0933 10.9102 28.957C10.3929 28.8176 9.92711 28.4787 9.63891 27.9755C7.56765 24.1703 5.17193 20.4418 3.13768 16.6286C3.0132 16.4038 2.93208 16.1718 2.89433 15.9323C2.85471 15.6792 2.86256 15.4212 2.91863 15.1599L2.92274 15.1425ZM4.03705 9.91028L4.7185 6.71173L4.77158 6.51401C4.93232 5.99768 5.27846 5.58378 5.71544 5.32882C6.1513 5.07385 6.67874 4.97669 7.20356 5.09005L7.40018 5.14353L10.0535 5.99391C10.0295 5.25387 9.81235 4.5466 9.44116 3.93574C8.99447 3.20022 8.32162 2.60216 7.49251 2.25267C6.66192 1.90279 5.76665 1.84065 4.93194 2.03611C4.09798 2.23195 3.32234 2.68652 2.73172 3.36969C2.13924 4.05286 1.79833 4.88856 1.72021 5.74761C1.64171 6.60666 1.82599 7.49207 2.28353 8.27316C2.7078 8.99738 3.32383 9.5574 4.03705 9.91028ZM6.75425 11.2213C6.0728 11.3403 5.38874 11.3165 4.73906 11.1667L3.84566 15.3617C3.81389 15.5105 3.80828 15.6517 3.82884 15.7831C3.84866 15.9104 3.89276 16.0358 3.96005 16.1594C6.20326 19.7752 8.34629 23.8038 10.4744 27.5247C10.6329 27.7846 10.8807 27.9605 11.1547 28.0343C11.4279 28.1081 11.7281 28.0817 11.9928 27.9397L22.0332 22.0993C22.3061 21.9403 22.4903 21.6831 22.5662 21.3969C22.6421 21.1107 22.6107 20.7951 22.4537 20.5209L15.9708 9.20602C15.8968 9.07647 15.8056 8.96763 15.699 8.88138C15.5925 8.79514 15.4677 8.72886 15.3256 8.68329L7.1146 6.05191L7.00694 6.02404C6.71836 5.9619 6.42866 6.015 6.19018 6.15435C5.95244 6.29294 5.76329 6.51928 5.6747 6.80136L5.64517 6.91171L4.93793 10.233C5.41154 10.3434 5.90795 10.3716 6.40586 10.3076C6.37072 10.0361 6.38979 9.76265 6.45857 9.50317C6.59501 8.99022 6.9262 8.5285 7.41888 8.2419L7.42598 8.23776C7.91791 7.95417 8.47787 7.89655 8.98475 8.03288C9.49387 8.17034 9.95253 8.5044 10.237 9.00077L10.2531 9.03127C10.5241 9.52162 10.5772 10.076 10.4437 10.5776C10.3076 11.091 9.97571 11.5527 9.48303 11.8393L9.44976 11.857C8.96381 12.1285 8.41469 12.1816 7.91753 12.0479C7.45812 11.924 7.04021 11.6397 6.75425 11.2213ZM8.74028 8.95557C8.46441 8.88138 8.15976 8.91264 7.89436 9.06705C7.62746 9.22221 7.44803 9.47228 7.37439 9.74947C7.30337 10.0165 7.32954 10.3106 7.46672 10.5701L7.50111 10.6289C7.65549 10.8819 7.89622 11.0537 8.162 11.1252C8.42666 11.1968 8.71822 11.1708 8.97652 11.0322L9.03521 10.9976C9.28641 10.842 9.45686 10.5999 9.52789 10.3313C9.59966 10.0609 9.57274 9.76227 9.43032 9.49978L9.41761 9.47906C9.26398 9.21092 9.0154 9.02977 8.74028 8.95557ZM14.1078 15.7718C14.2797 15.9707 14.2588 16.2727 14.0614 16.446C13.864 16.6192 13.5642 16.5981 13.3923 16.3993C13.2058 16.1835 12.9534 16.0528 12.6907 16.0174C12.4271 15.9816 12.1505 16.0396 11.9135 16.1978C11.678 16.3571 11.5177 16.5925 11.4492 16.8505C11.3805 17.1099 11.4014 17.3943 11.527 17.6504C11.6533 17.9068 11.869 18.0967 12.1501 18.1923C12.4473 18.2936 12.823 18.2974 13.2551 18.1788C13.8764 18.0085 14.4416 18.0225 14.9126 18.1833C15.4374 18.3625 15.8411 18.72 16.0811 19.208C16.3125 19.6796 16.3517 20.2008 16.2254 20.6764C16.1278 21.0425 15.9323 21.3826 15.6512 21.6522L15.9831 22.2322C16.1128 22.4601 16.0351 22.7516 15.8089 22.8822C15.5828 23.0129 15.2935 22.9346 15.1638 22.7067L14.8359 22.1343C14.5444 22.2251 14.239 22.2492 13.9422 22.2089C13.4558 22.143 12.9927 21.9046 12.651 21.5087C12.4791 21.3099 12.5 21.0079 12.6974 20.8346C12.8948 20.6614 13.1945 20.6825 13.3665 20.8813C13.5534 21.0975 13.8053 21.2282 14.0685 21.2636C14.3305 21.299 14.6075 21.2406 14.8445 21.0817C15.0808 20.9231 15.2411 20.6877 15.3095 20.4301C15.3783 20.1707 15.3574 19.8863 15.2318 19.6306C15.1054 19.3737 14.8898 19.1839 14.6083 19.0879C14.3115 18.9866 13.9354 18.9828 13.5033 19.1015C12.8824 19.2717 12.3176 19.2581 11.8459 19.0969C11.3218 18.9184 10.9181 18.561 10.6777 18.0729C10.4463 17.6014 10.4071 17.0798 10.5334 16.6042C10.631 16.2377 10.8261 15.898 11.1076 15.628L10.7753 15.048C10.6456 14.8202 10.7233 14.5287 10.9495 14.398C11.1756 14.2673 11.4649 14.3456 11.5947 14.5735L11.9229 15.1467C12.2144 15.0555 12.5198 15.0314 12.817 15.0721C13.3026 15.138 13.7661 15.3764 14.1078 15.7718Z" fill="#1CB496"/>
<path d="M4.87695 0.892404C5.87804 0.698257 6.93768 0.793681 7.92435 1.20922L8.11958 1.2957C9.08371 1.74817 9.8675 2.4709 10.3998 3.34728L10.4965 3.51254C10.9427 4.30896 11.1858 5.22245 11.179 6.17034L15.6657 7.60799L15.8678 7.68249C16.064 7.76494 16.243 7.87137 16.4038 8.00187L16.5579 8.13973C16.7058 8.28539 16.8344 8.45389 16.9433 8.64406L23.4242 19.9552C23.6988 20.4325 23.7821 20.9699 23.6982 21.4741L23.652 21.6882C23.521 22.182 23.226 22.6333 22.7915 22.9495L22.5971 23.0762L12.555 28.9158L12.5515 28.9176C12.0844 29.1781 11.5635 29.2555 11.0736 29.1719L10.8656 29.1265C10.305 28.9755 9.80013 28.6079 9.48787 28.063L9.4853 28.0596C8.45142 26.1602 7.33641 24.279 6.22383 22.3938C5.11196 20.5098 4.00284 18.621 2.98377 16.7108C2.85106 16.4703 2.76273 16.2195 2.72176 15.9599C2.67877 15.685 2.68795 15.4048 2.7483 15.1233L2.75258 15.1019L3.63367 10.9662C2.75107 10.55 1.97999 9.88927 1.42967 9.03023L1.3175 8.84785C0.737749 7.85876 0.504958 6.73571 0.604246 5.64546L0.626509 5.44167C0.758529 4.42327 1.18255 3.44037 1.8852 2.62803L2.02819 2.46876C2.75719 1.6899 3.68469 1.16856 4.67744 0.935217L4.87695 0.892404ZM7.78821 1.53202C6.80587 1.11835 5.74567 1.04437 4.75707 1.27601L4.75793 1.27686C3.83112 1.4947 2.965 1.98114 2.28421 2.70852L2.15064 2.8575C1.49421 3.61641 1.09839 4.53488 0.975004 5.48706L0.953598 5.678C0.860842 6.6974 1.07817 7.74663 1.61976 8.6706L1.72422 8.841C2.26223 9.68097 3.02571 10.319 3.89825 10.7033L4.03525 10.7641L4.00614 10.9029L3.09509 15.179L3.09423 15.1833L3.08995 15.2004C3.03897 15.4402 3.03255 15.6752 3.06854 15.9051L3.10194 16.0678C3.1291 16.1755 3.16589 16.282 3.21325 16.3872L3.29202 16.5438L3.29288 16.5464L3.67819 17.2588C4.585 18.9195 5.55293 20.5667 6.52609 22.2157C7.6371 24.0982 8.75497 25.9836 9.79184 27.8883L9.89801 28.0544C10.163 28.4244 10.5417 28.6756 10.9563 28.7874L11.1319 28.8259C11.5459 28.8968 11.9861 28.8314 12.3811 28.611L22.4207 22.7731L22.5851 22.6661C22.9523 22.3989 23.2027 22.0173 23.3138 21.5983L23.3523 21.4168C23.4235 20.989 23.3534 20.5345 23.1211 20.1307L16.6384 8.81873C16.5443 8.65428 16.4359 8.51074 16.3122 8.3889L16.1829 8.27416C16.0494 8.16582 15.8991 8.0765 15.7317 8.00615L15.5587 7.94193L10.8228 6.42465L10.827 6.29193C10.8548 5.4238 10.6562 4.58302 10.2748 3.84134L10.1001 3.52966C9.60268 2.71058 8.87066 2.0358 7.97059 1.61337L7.78821 1.53202ZM7.96288 11.8781C8.41755 12.0004 8.92085 11.9519 9.36542 11.7034L9.36799 11.7017L9.3971 11.6863C9.84686 11.4241 10.1502 11.0026 10.2748 10.533L10.3124 10.3583C10.3817 9.947 10.3174 9.50898 10.1001 9.11585L10.0984 9.11328L10.0855 9.0876L9.98107 8.92491C9.75716 8.61209 9.45148 8.3856 9.11197 8.25789L8.93987 8.20223C8.47626 8.07757 7.9643 8.13028 7.51421 8.38975L7.51335 8.3889L7.50821 8.39318C7.11381 8.62261 6.83162 8.9749 6.68364 9.37444L6.62884 9.54826C6.56588 9.78588 6.54879 10.0361 6.58089 10.2846L6.60315 10.4593L6.42933 10.4816C5.91034 10.5483 5.39271 10.5186 4.89921 10.4037L4.73138 10.3651L5.47461 6.87504L5.47632 6.86648L5.50629 6.75602L5.50801 6.74832C5.6101 6.42357 5.8281 6.1624 6.10225 6.00252L6.20842 5.94772C6.42513 5.8462 6.67072 5.80289 6.91997 5.83213L7.04498 5.85268L7.05183 5.85439L7.15972 5.88179L7.16914 5.88436L15.3797 8.51648L15.4979 8.55929C15.6122 8.60721 15.7169 8.66937 15.8104 8.7451C15.935 8.84593 16.0392 8.97199 16.123 9.11842L22.6065 20.4338L22.6682 20.5545C22.7951 20.8404 22.8127 21.1545 22.7367 21.4416C22.6604 21.7293 22.4886 21.9929 22.2358 22.1771L22.1219 22.2508L12.0815 28.0913L12.0763 28.0947L12.0755 28.0938C11.8078 28.2372 11.5096 28.2789 11.2286 28.23L11.1096 28.2034C10.794 28.1183 10.5081 27.9157 10.3253 27.616L10.3227 27.6118C8.19074 23.884 6.05293 19.8644 3.81177 16.2519L3.80663 16.2433C3.7498 16.139 3.70687 16.0315 3.67905 15.9213L3.65679 15.81C3.63252 15.6548 3.63922 15.492 3.67477 15.3254L4.5687 11.1298L4.60552 10.9559L4.77933 10.9953C5.40662 11.1401 6.06691 11.1633 6.72474 11.0484L6.83605 11.0287L6.89942 11.1221C7.16086 11.5046 7.54312 11.7646 7.96288 11.8781ZM6.87887 6.18062C6.69627 6.15926 6.51625 6.19021 6.35741 6.26453L6.27949 6.30563C6.0784 6.42286 5.91794 6.61456 5.8428 6.85363L5.8154 6.95724L5.14581 10.0971C5.49503 10.1628 5.8553 10.1822 6.21784 10.1511C6.20629 9.91629 6.23036 9.68253 6.28976 9.45835L6.35484 9.25285C6.52982 8.78038 6.86314 8.36231 7.33097 8.09006L7.33867 8.08664L7.33953 8.08578L7.54246 7.98218C8.02398 7.76601 8.55005 7.73367 9.03149 7.86316L9.23527 7.92909C9.63796 8.08051 10 8.34984 10.2653 8.72027L10.3904 8.91378L10.3929 8.91892L10.4075 8.94632L10.5068 9.14839C10.6833 9.55868 10.7286 9.99935 10.6584 10.4165L10.6138 10.6229C10.4663 11.179 10.1062 11.6802 9.57178 11.9911L9.56664 11.9946L9.56579 11.9937L9.53325 12.0117L9.53239 12.0108C9.0718 12.2672 8.5594 12.3437 8.07762 12.2617L7.87298 12.2172C7.40843 12.0919 6.98451 11.8141 6.67765 11.4098C6.06868 11.5032 5.45974 11.4874 4.87438 11.3729L4.01813 15.3982C3.9902 15.5289 3.9859 15.6486 4.00271 15.7561L4.01898 15.8349C4.03891 15.914 4.07017 15.9939 4.11403 16.0746C6.35678 19.6905 8.50302 23.7233 10.625 27.4337L10.6789 27.5124C10.8121 27.6891 10.998 27.8105 11.2012 27.8652L11.2894 27.8841C11.4946 27.9197 11.7111 27.8906 11.9051 27.7882L21.9455 21.9477L22.0285 21.8937C22.2141 21.7587 22.341 21.565 22.3976 21.3517C22.4542 21.1381 22.4403 20.9066 22.3471 20.6967L22.3025 20.6076L15.8199 9.2931C15.7557 9.18087 15.6778 9.08881 15.5895 9.01738C15.5233 8.9638 15.4474 8.91883 15.3618 8.88295L15.2727 8.85042L7.0621 6.21915L6.97049 6.19518L6.87887 6.18062ZM10.8622 14.2465C11.1726 14.0671 11.5696 14.1744 11.7475 14.4863L12.0078 14.9409C12.2823 14.8739 12.5655 14.8603 12.8418 14.8981L13.0379 14.9341C13.4916 15.0373 13.9169 15.2819 14.2409 15.6568L14.282 15.7099C14.4715 15.9799 14.4304 16.3561 14.1776 16.5781C13.9237 16.8006 13.5468 16.7884 13.3068 16.5618L13.2605 16.5139C13.1222 16.3538 12.9414 16.25 12.7502 16.2065L12.668 16.1911C12.4459 16.1609 12.2126 16.2098 12.0121 16.3435C11.8379 16.4615 11.7122 16.6285 11.6448 16.8144L11.6199 16.8958C11.5616 17.1161 11.579 17.3567 11.685 17.5731L11.7278 17.6501C11.8359 17.8251 11.9991 17.9551 12.2073 18.026L12.3075 18.0551C12.5492 18.1135 12.8528 18.1075 13.2091 18.0097L13.4506 17.9515C14.008 17.8369 14.5248 17.8653 14.9705 18.0175L15.1768 18.0988C15.6458 18.3107 16.0114 18.6668 16.2394 19.1306L16.3233 19.325C16.4726 19.717 16.5068 20.1319 16.4381 20.5263L16.3953 20.7215C16.3013 21.0741 16.1226 21.404 15.8695 21.6788L16.1358 22.1454L16.1666 22.2045C16.2996 22.5049 16.1888 22.866 15.8978 23.0342C15.6066 23.2025 15.2396 23.1178 15.0484 22.8493L15.0124 22.7936L14.7513 22.339C14.4772 22.4055 14.1945 22.42 13.919 22.3826C13.4577 22.32 13.0152 22.1143 12.6637 21.7764L12.519 21.6231C12.2843 21.3514 12.3127 20.9394 12.5824 20.7027C12.8362 20.4798 13.2139 20.4915 13.454 20.7181L13.5619 20.832C13.7119 20.9762 13.8991 21.0636 14.0928 21.0897L14.1759 21.0974C14.3431 21.1049 14.5147 21.0675 14.6708 20.9827L14.7478 20.9356C14.9474 20.8015 15.083 20.6027 15.1408 20.385L15.1588 20.3019C15.1883 20.1331 15.1741 19.9562 15.1109 19.7899L15.0749 19.7077C14.9827 19.5204 14.8343 19.3758 14.6391 19.2881L14.5526 19.2539C14.329 19.1776 14.0413 19.1619 13.6998 19.2342L13.5508 19.2702C12.9016 19.4481 12.3003 19.4367 11.7903 19.2624C11.2932 19.0931 10.8943 18.7741 10.6275 18.342L10.5214 18.1502C10.2707 17.6393 10.2279 17.0742 10.3647 16.5593L10.4092 16.412C10.5101 16.1143 10.6724 15.8368 10.8904 15.6003L10.6241 15.1353C10.4473 14.8248 10.552 14.4261 10.8622 14.2465ZM11.4427 14.6601C11.361 14.5168 11.1794 14.4678 11.0377 14.5496C10.8963 14.6315 10.8461 14.8158 10.9281 14.9606L11.2603 15.5412L11.3288 15.6593L11.2295 15.7544C11.0042 15.9705 10.8392 16.236 10.7414 16.5242L10.7037 16.6492C10.5879 17.0853 10.6238 17.5632 10.8356 17.9952L10.9255 18.157C11.1497 18.5206 11.4834 18.788 11.9034 18.9311L12.0703 18.9799C12.4699 19.0799 12.939 19.074 13.4575 18.9319L13.627 18.8908C14.0165 18.8084 14.3698 18.8207 14.6656 18.9217L14.7838 18.9688C15.0516 19.0894 15.2612 19.2916 15.39 19.5536L15.4388 19.6657C15.525 19.8926 15.5445 20.1333 15.5048 20.3619L15.4799 20.4749C15.4108 20.7351 15.2607 20.9761 15.0415 21.1548L14.9431 21.2275C14.7039 21.3879 14.4287 21.4596 14.1604 21.4476L14.0457 21.4373C13.7789 21.4014 13.5228 21.2809 13.3187 21.0846L13.2348 20.9964C13.1263 20.8709 12.9375 20.8576 12.8136 20.9664C12.6888 21.0761 12.6758 21.2678 12.7844 21.3937L12.9069 21.523C13.1613 21.7677 13.4718 21.9303 13.8008 22.005L13.9669 22.035L14.1716 22.0513C14.3773 22.0567 14.5846 22.0288 14.7846 21.9665L14.9191 21.9254L14.9893 22.047L15.3164 22.6198L15.3523 22.6695C15.4438 22.7736 15.5983 22.8019 15.7222 22.7303C15.8461 22.6586 15.9003 22.5084 15.8567 22.3749L15.8318 22.3193L15.4996 21.7396L15.432 21.6206L15.5304 21.5255C15.7876 21.2788 15.9675 20.9675 16.057 20.6316L16.093 20.4663C16.1512 20.1322 16.1218 19.7809 15.9954 19.4491L15.9243 19.2856C15.7322 18.8949 15.4269 18.5966 15.0312 18.4182L14.8566 18.3488C14.478 18.2196 14.0258 18.1912 13.5217 18.2949L13.3025 18.348C12.9027 18.4577 12.5365 18.4715 12.2245 18.3959L12.0943 18.3582C11.7701 18.2479 11.518 18.0268 11.3708 17.728C11.2258 17.4324 11.2018 17.1042 11.2809 16.8059L11.3151 16.6954C11.4071 16.4413 11.5784 16.2131 11.816 16.0524L11.8169 16.0515L11.9213 15.989C12.17 15.8543 12.4483 15.8072 12.7151 15.8434L12.8281 15.864C13.0909 15.9238 13.3378 16.0667 13.526 16.2844L13.5696 16.3264C13.68 16.4115 13.8379 16.4094 13.9464 16.3144C14.0713 16.2047 14.0852 16.0122 13.9763 15.8862C13.7027 15.5696 13.3431 15.3629 12.96 15.2757L12.7939 15.2458C12.522 15.2086 12.2427 15.2309 11.9761 15.3143L11.8417 15.3562L11.4435 14.6609L11.4427 14.6601ZM7.92435 8.8547C8.20239 8.7291 8.50762 8.71117 8.7866 8.7862L8.90476 8.82387C9.17561 8.9258 9.41552 9.12037 9.57092 9.39157L9.58034 9.40784L9.58548 9.4164L9.64114 9.53199C9.73978 9.76662 9.76466 10.0192 9.72419 10.2581L9.69851 10.3763C9.61646 10.6864 9.41901 10.9668 9.12824 11.1469L9.12482 11.1486L9.06659 11.1828L9.0606 11.1871L9.05974 11.1863C8.79799 11.3267 8.50716 11.3673 8.23346 11.3198L8.11701 11.2942C7.80933 11.2112 7.53082 11.0128 7.35237 10.7205L7.35066 10.717L7.31641 10.6588L7.31213 10.652C7.15356 10.3519 7.12408 10.0119 7.20595 9.7041L7.24363 9.58594C7.34452 9.31378 7.53684 9.07259 7.80704 8.91549L7.92435 8.8547ZM8.69583 9.12527C8.49199 9.07045 8.26997 9.08364 8.0682 9.17494L7.98343 9.2186C7.78674 9.33296 7.64624 9.50853 7.57243 9.70752L7.54503 9.79486C7.48496 10.0209 7.50728 10.2696 7.62295 10.4884L7.65121 10.5372L7.70344 10.6143C7.8326 10.786 8.01286 10.9032 8.20863 10.9559L8.2934 10.9748C8.49274 11.0093 8.70442 10.98 8.89448 10.878L8.94329 10.8481L9.0195 10.7958C9.1897 10.6659 9.30691 10.4849 9.35943 10.2864L9.37827 10.199C9.41276 9.99496 9.38196 9.77873 9.27809 9.58594L9.26867 9.57052L9.2661 9.56624C9.15271 9.36836 8.9784 9.22686 8.78146 9.15267L8.69583 9.12527ZM5.22202 1.80174C5.9951 1.68274 6.804 1.77217 7.5613 2.09116L7.72142 2.16223C8.5121 2.53359 9.15521 3.12647 9.59147 3.84476L9.72933 4.08794C10.0319 4.66556 10.2075 5.31371 10.2294 5.98796L10.2379 6.23713L7.34724 5.31067L7.15886 5.25929C6.68151 5.15846 6.2022 5.248 5.80513 5.48021C5.40679 5.7127 5.08937 6.0889 4.94117 6.55823L4.94202 6.55908L4.88893 6.75688L4.16198 10.1673L3.9599 10.0672C3.30958 9.74533 2.73717 9.2583 2.30819 8.63635L2.13266 8.3615C1.65639 7.54826 1.46447 6.62631 1.54612 5.73194L1.58979 5.39801C1.72065 4.62218 2.06 3.87766 2.60017 3.2548L2.71748 3.12465C3.31643 2.48537 4.07752 2.0565 4.89236 1.86511L5.22202 1.80174ZM7.42516 2.41396C6.72908 2.1208 5.98567 2.03908 5.2751 2.14853L4.97285 2.20675C4.1742 2.3943 3.4315 2.82981 2.86561 3.48428C2.3688 4.05714 2.05616 4.74225 1.93572 5.45623L1.89548 5.76362C1.82026 6.58704 1.99725 7.43556 2.43577 8.18425L2.59675 8.4377C2.9465 8.94469 3.40091 9.35182 3.91538 9.64416L4.54815 6.67553L4.54986 6.66612L4.60295 6.46832L4.60466 6.46147L4.67915 6.25768C4.87416 5.79285 5.21354 5.41885 5.62788 5.17709L5.80941 5.08205C6.18107 4.90758 6.60156 4.83335 7.02785 4.8834L7.24106 4.9185L7.25048 4.92022L7.44742 4.97416L7.45427 4.97673L9.86205 5.74821C9.81183 5.21815 9.65918 4.71012 9.41851 4.25063L9.29179 4.02714C8.9173 3.41053 8.37737 2.89453 7.71628 2.55097L7.42516 2.41396Z" fill="#1CB496"/>
</svg>
