<svg width="33" height="32" viewBox="0 0 33 32" fill="none" xmlns="http://www.w3.org/2000/svg">
<path d="M16.6665 26.6667C16.3307 26.6667 16.0495 26.5529 15.8227 26.3254C15.5959 26.0978 15.4822 25.8165 15.4814 25.4815C15.4806 25.1465 15.5944 24.8652 15.8227 24.6377C16.051 24.4101 16.3323 24.2963 16.6665 24.2963H24.9628V15.8815C24.9628 13.5704 24.1581 11.6101 22.5486 10.0006C20.9391 8.39115 18.9785 7.58602 16.6665 7.58523C14.3546 7.58444 12.3944 8.38957 10.7857 10.0006C9.17697 11.6117 8.37183 13.572 8.37025 15.8815V21.926C8.37025 22.2618 8.25647 22.5434 8.02892 22.771C7.80136 22.9986 7.52008 23.1119 7.18507 23.1112C6.53322 23.1112 5.97539 22.8792 5.51159 22.4154C5.04778 21.9516 4.81549 21.3934 4.8147 20.7408V18.3704C4.8147 17.9556 4.9186 17.5657 5.1264 17.2006C5.3342 16.8356 5.62536 16.544 5.99988 16.326L6.08877 14.7556C6.2468 13.4124 6.63712 12.1679 7.25973 11.0223C7.88235 9.87658 8.6626 8.87905 9.60048 8.02967C10.5384 7.18029 11.6145 6.51856 12.8289 6.04448C14.0433 5.57041 15.3225 5.33337 16.6665 5.33337C18.0105 5.33337 19.2846 5.57041 20.4888 6.04448C21.6929 6.51856 22.7695 7.17555 23.7184 8.01545C24.6673 8.85535 25.4476 9.84774 26.0591 10.9926C26.6707 12.1375 27.0658 13.382 27.2443 14.726L27.3332 16.2667C27.7085 16.4445 28.0001 16.7112 28.2079 17.0667C28.4157 17.4223 28.5192 17.7976 28.5184 18.1926V20.9186C28.5184 21.3136 28.4149 21.6889 28.2079 22.0445C28.0009 22.4 27.7093 22.6667 27.3332 22.8445V24.2963C27.3332 24.9482 27.1013 25.5064 26.6375 25.971C26.1737 26.4356 25.6155 26.6675 24.9628 26.6667H16.6665ZM13.111 18.3704C12.7752 18.3704 12.4939 18.2566 12.2671 18.0291C12.0404 17.8015 11.9266 17.5202 11.9258 17.1852C11.925 16.8502 12.0388 16.5689 12.2671 16.3414C12.4955 16.1138 12.7768 16 13.111 16C13.4452 16 13.7269 16.1138 13.956 16.3414C14.1852 16.5689 14.2985 16.8502 14.2962 17.1852C14.2938 17.5202 14.18 17.8019 13.9548 18.0303C13.7297 18.2586 13.4484 18.372 13.111 18.3704ZM20.2221 18.3704C19.8863 18.3704 19.605 18.2566 19.3783 18.0291C19.1515 17.8015 19.0377 17.5202 19.0369 17.1852C19.0361 16.8502 19.1499 16.5689 19.3783 16.3414C19.6066 16.1138 19.8879 16 20.2221 16C20.5563 16 20.838 16.1138 21.0671 16.3414C21.2963 16.5689 21.4097 16.8502 21.4073 17.1852C21.4049 17.5202 21.2911 17.8019 21.066 18.0303C20.8408 18.2586 20.5595 18.372 20.2221 18.3704ZM9.58507 16.5334C9.4468 14.4395 10.0789 12.642 11.4814 11.1408C12.8838 9.63955 14.632 8.88893 16.7258 8.88893C18.4838 8.88893 20.0297 9.44676 21.3634 10.5624C22.6972 11.6781 23.5019 13.1058 23.7777 14.8457C21.9801 14.8251 20.326 14.3408 18.8153 13.3926C17.3046 12.4445 16.1439 11.1605 15.3332 9.54078C15.0172 11.121 14.3507 12.5286 13.3338 13.7636C12.3169 14.9986 11.0673 15.9218 9.58507 16.5334Z" fill="#1CB496"/>
</svg>
