<svg width="26" height="30" viewBox="0 0 26 30" fill="none" xmlns="http://www.w3.org/2000/svg">
<path fill-rule="evenodd" clip-rule="evenodd" d="M23.6476 12.0936C22.9908 11.445 22.0834 11.0438 21.0811 11.0438C20.0788 11.0438 19.1715 11.445 18.5146 12.0936C17.8578 12.7422 17.4515 13.6381 17.4515 14.6279C17.4515 15.6176 17.8578 16.5135 18.5146 17.1621C19.1715 17.8107 20.0788 18.2119 21.0811 18.2119C22.0834 18.2119 22.9908 17.8107 23.6476 17.1621C24.3044 16.5135 24.7107 15.6176 24.7107 14.6279C24.7107 13.6381 24.3044 12.7422 23.6476 12.0936ZM19.4273 15.0363C19.2671 14.9046 19.2449 14.6694 19.3786 14.5109C19.5119 14.3527 19.7501 14.3308 19.9106 14.4627L20.8243 15.2145L22.4359 13.2425C22.5667 13.0818 22.8049 13.0562 22.968 13.1856C23.1311 13.3151 23.1567 13.5499 23.0256 13.711L21.1726 15.9785L21.1682 15.9828C21.0349 16.1411 20.7967 16.163 20.6362 16.031L19.4273 15.0363ZM17.2263 23.7822L17.2089 25.9922L19.447 23.7822H17.2263ZM9.42177 3.16688H8.05461C8.00077 3.16688 7.95516 3.17627 7.92254 3.1919V5.35119C7.95516 5.36714 8.00108 5.37683 8.05461 5.37683H15.0237C15.0776 5.37683 15.1232 5.36745 15.1558 5.35182V3.1919C15.1232 3.17627 15.0776 3.16688 15.0237 3.16688H13.6566C13.4472 3.16688 13.2772 2.99927 13.2772 2.79225C13.2772 2.5843 13.0644 2.29723 12.7265 2.05956C12.4104 1.83722 11.9946 1.67712 11.5392 1.67712C11.0838 1.67712 10.668 1.83722 10.3519 2.05956C10.014 2.29723 9.80116 2.5843 9.80116 2.79225C9.80116 2.99896 9.63142 3.16688 9.42177 3.16688ZM7.16375 4.87368H2.76331C2.55398 4.87368 2.38391 5.04129 2.38391 5.24831V26.9019C2.38391 27.1086 2.55366 27.2765 2.76331 27.2765H16.8238C16.871 27.2765 16.9163 27.2681 16.9578 27.2524L16.9657 27.2493L16.967 27.2487L16.9733 27.2459L16.9761 27.2446L16.9825 27.2418L16.9837 27.2412L16.9901 27.238L16.9936 27.2365L16.9977 27.2346L17.0024 27.2321L17.0056 27.2302L17.01 27.2277L17.0138 27.2255L17.0179 27.2233L17.0214 27.2212L17.0268 27.2177L17.0284 27.2168L17.0347 27.2127L17.0363 27.2115L17.0417 27.2077L17.0442 27.2058L17.0487 27.2024L17.0528 27.1993L17.0553 27.1974L17.0607 27.1933L17.0626 27.1918C17.0674 27.188 17.0718 27.1843 17.0762 27.1802L17.0769 27.1796C17.0822 27.1746 17.0876 27.1696 17.0927 27.1646L20.627 23.6747C20.6305 23.6715 20.6336 23.6681 20.6371 23.6647L20.6403 23.6612L20.6409 23.6606L20.6434 23.6578L20.6466 23.6543L20.6609 23.6371L20.6694 23.6259L20.6716 23.6221L20.6792 23.6109L20.6814 23.6071L20.684 23.6031L20.6862 23.5993L20.6884 23.5952L20.6903 23.5918L20.6928 23.5871L20.6944 23.584V23.583L20.697 23.579L20.6985 23.5752L20.7008 23.5708L20.7023 23.5674V23.5665L20.7046 23.5624L20.7061 23.559V23.558L20.7084 23.554L20.709 23.5524L20.7118 23.5452L20.7131 23.5421V23.5411L20.716 23.5355L20.7169 23.5324L20.7185 23.528V23.5268L20.7191 23.5258L20.7213 23.5192V23.518L20.722 23.5167L20.7239 23.5102V23.5092C20.7255 23.5039 20.7271 23.4977 20.7286 23.492V23.4911L20.7293 23.4895L20.7308 23.483V23.482L20.7312 23.4811L20.7328 23.4736L20.7343 23.4645L20.7356 23.4558V23.453C20.7365 23.4473 20.7372 23.442 20.7375 23.4364V23.4348L20.7381 23.4267V23.4251L20.7385 23.4167V18.9474C20.8506 18.9558 20.9636 18.9602 21.0776 18.9602C21.211 18.9602 21.3427 18.9543 21.4729 18.943V27.0945C21.4729 27.4319 21.3329 27.739 21.1071 27.9617C20.8813 28.1843 20.5706 28.3228 20.2289 28.3228H2.84597C2.50426 28.3228 2.19326 28.1846 1.96778 27.9617C1.74229 27.739 1.602 27.4319 1.602 27.0945V4.95999C1.602 4.62257 1.74198 4.31548 1.96778 4.09283C2.19358 3.86987 2.50426 3.73165 2.84597 3.73165H7.16375V4.87368ZM15.8766 5.62263H19.9831V10.4315C19.2126 10.6276 18.5238 11.0251 17.9782 11.5639C17.1842 12.3479 16.693 13.4311 16.693 14.6275C16.693 15.824 17.1842 16.9072 17.9782 17.6912C18.5238 18.23 19.2123 18.6275 19.9831 18.8235V23.0327H16.8514V23.0342C16.6433 23.0342 16.4745 23.2003 16.4736 23.4057L16.4489 26.5269H3.14271V5.62263H7.20175C7.24862 5.74771 7.33666 5.85685 7.45447 5.94191C7.46302 5.94879 7.47189 5.95536 7.48139 5.96161C7.63372 6.06293 7.83704 6.12578 8.05461 6.12578H15.0237C15.2277 6.12578 15.4196 6.06981 15.5688 5.9785C15.5783 5.97318 15.5878 5.96755 15.597 5.9613C15.7287 5.87374 15.8262 5.75803 15.8766 5.62263ZM15.9143 3.73165V4.87368H20.3622C20.5716 4.87368 20.7416 5.04129 20.7416 5.24831V10.308C20.8537 10.2996 20.9668 10.2952 21.0808 10.2952C21.2141 10.2952 21.3459 10.3011 21.476 10.3124V4.95999C21.476 4.62257 21.336 4.31548 21.1102 4.09283C20.8848 3.87018 20.5738 3.73165 20.2321 3.73165H15.9143ZM8.05429 2.41793H9.11489C9.24093 2.07708 9.52469 1.72433 9.91296 1.45102C10.3449 1.14707 10.9143 0.928165 11.5389 0.928165C12.1634 0.928165 12.7328 1.14707 13.1648 1.45102C13.553 1.72433 13.8368 2.07708 13.9628 2.41793H15.0234C15.2397 2.41793 15.4427 2.48079 15.595 2.58211L15.596 2.58273C15.7474 2.68312 15.8544 2.82071 15.8956 2.98238H20.2321C20.7831 2.98238 21.2841 3.20472 21.6467 3.56309C22.0097 3.92146 22.2348 4.41586 22.2348 4.95999V10.4462C22.9828 10.647 23.6514 11.0382 24.1837 11.5639C24.9777 12.3479 25.4689 13.4311 25.4689 14.6275C25.4689 15.824 24.9777 16.9072 24.1837 17.6912C23.6514 18.2169 22.9828 18.6081 22.2348 18.8088V27.0945C22.2348 27.6386 22.0097 28.1333 21.6467 28.4914C21.2838 28.8495 20.7831 29.0718 20.2321 29.0718H2.84597C2.29492 29.0718 1.79423 28.8495 1.4313 28.4911C1.06837 28.133 0.843204 27.6383 0.843204 27.0942V4.95999C0.843204 4.41586 1.06837 3.92146 1.4313 3.56309C1.79423 3.20472 2.29492 2.98238 2.84597 2.98238H7.18243C7.2236 2.82102 7.33096 2.6828 7.48266 2.58211C7.63499 2.48079 7.83799 2.41793 8.05429 2.41793ZM11.1595 2.86261C11.1595 2.65591 11.3292 2.48798 11.5389 2.48798C11.7485 2.48798 11.9183 2.6556 11.9183 2.86261V2.92297C11.9183 3.12967 11.7485 3.2976 11.5389 3.2976C11.3292 3.2976 11.1595 3.12998 11.1595 2.92297V2.86261ZM7.8212 18.8045C7.61187 18.8045 7.4418 18.6368 7.4418 18.4298C7.4418 18.2228 7.61155 18.0552 7.8212 18.0552H17.0924C17.3017 18.0552 17.4718 18.2228 17.4718 18.4298C17.4718 18.6368 17.302 18.8045 17.0924 18.8045H7.8212ZM6.03253 18.8045H6.18485C6.39419 18.8045 6.56425 18.6368 6.56425 18.4298C6.56425 18.2228 6.3945 18.0552 6.18485 18.0552H6.03253C5.82319 18.0552 5.65313 18.2228 5.65313 18.4298C5.65313 18.6368 5.82287 18.8045 6.03253 18.8045ZM7.8212 21.6164H17.0924C17.3017 21.6164 17.4718 21.4488 17.4718 21.2418C17.4718 21.0347 17.302 20.8671 17.0924 20.8671H7.8212C7.61187 20.8671 7.4418 21.0347 7.4418 21.2418C7.4418 21.4488 7.61155 21.6164 7.8212 21.6164ZM6.03253 21.6164H6.18485C6.39419 21.6164 6.56425 21.4488 6.56425 21.2418C6.56425 21.0347 6.3945 20.8671 6.18485 20.8671H6.03253C5.82319 20.8671 5.65313 21.0347 5.65313 21.2418C5.65313 21.4488 5.82287 21.6164 6.03253 21.6164ZM7.8212 24.4283H14.5253C14.7346 24.4283 14.9047 24.2607 14.9047 24.0537C14.9047 23.8467 14.7349 23.679 14.5253 23.679H7.8212C7.61187 23.679 7.4418 23.8467 7.4418 24.0537C7.4418 24.2607 7.61155 24.4283 7.8212 24.4283ZM6.03253 24.4283H6.18485C6.39419 24.4283 6.56425 24.2607 6.56425 24.0537C6.56425 23.8467 6.3945 23.679 6.18485 23.679H6.03253C5.82319 23.679 5.65313 23.8467 5.65313 24.0537C5.65313 24.2607 5.82287 24.4283 6.03253 24.4283ZM12.2524 9.60441C12.228 9.47776 12.271 9.34205 12.3768 9.25167L13.8228 8.01395C13.579 7.9808 13.3307 7.98331 13.0865 8.02146C12.6413 8.09119 12.2093 8.28101 11.8432 8.59435C11.4774 8.90737 11.226 9.30233 11.093 9.72731C10.9561 10.1648 10.9438 10.6345 11.06 11.0801C11.0996 11.2155 11.0591 11.3675 10.9441 11.4657L7.29803 14.5863L8.46662 15.9175L12.113 12.7966C12.2185 12.7068 12.3702 12.6781 12.507 12.735C12.939 12.9148 13.4146 12.9708 13.8757 12.8985C14.321 12.8288 14.753 12.639 15.1191 12.3257C15.4848 12.0126 15.7363 11.6177 15.8693 11.1927C15.9425 10.9594 15.9798 10.7167 15.9814 10.4738L14.5354 11.7115C14.4369 11.795 14.2972 11.8266 14.1652 11.7818L12.805 11.3171C12.6688 11.2815 12.5583 11.1717 12.5301 11.026L12.2524 9.60441ZM13.0374 9.67478L14.8496 8.12403C14.8923 8.08744 14.9271 8.04116 14.9506 7.98643C15.0317 7.79661 14.9414 7.57771 14.7492 7.49766C14.1864 7.26344 13.5679 7.19058 12.9684 7.28439C12.3876 7.37539 11.8251 7.62243 11.3485 8.03021C10.8716 8.4383 10.5438 8.95366 10.3703 9.50841C10.2144 10.0056 10.1831 10.5351 10.2791 11.0476L6.5177 14.267C6.35967 14.4018 6.34257 14.6379 6.47906 14.7936L8.14296 16.6893C8.27946 16.8453 8.51856 16.8622 8.67627 16.7274L12.4386 13.5074C12.939 13.6741 13.4742 13.7185 13.9948 13.6369C14.5756 13.5459 15.1381 13.2988 15.6147 12.891C16.0916 12.4829 16.4194 11.9676 16.5929 11.4128C16.7709 10.844 16.7868 10.2333 16.6348 9.65382C16.6214 9.59628 16.5939 9.54093 16.5521 9.49309C16.4156 9.33704 16.1765 9.32016 16.0188 9.45494L14.2054 11.0069L13.2328 10.6748L13.0374 9.67478Z" fill="#1CB496"/>
<path d="M22.1029 4.95973C22.1029 4.51629 21.9425 4.10775 21.6752 3.78822L21.5541 3.65681C21.2153 3.32193 20.7472 3.11407 20.2323 3.114H15.7928L15.7679 3.01523C15.7367 2.89281 15.6548 2.78232 15.53 2.69745L15.5231 2.69315L15.5222 2.6923C15.3928 2.60621 15.2151 2.54972 15.0232 2.54972H13.8706L13.8388 2.46383C13.7383 2.19195 13.5239 1.90295 13.223 1.65993L13.0891 1.55858C12.6763 1.26816 12.1327 1.06043 11.5388 1.06043C11.0193 1.06045 10.5385 1.21949 10.15 1.4538L9.98851 1.55858C9.61728 1.81993 9.3536 2.15315 9.23871 2.46383L9.20693 2.54972H8.05432C7.91039 2.54972 7.77443 2.58094 7.66096 2.63303L7.55532 2.6923C7.42605 2.7782 7.34223 2.89102 7.31054 3.01523L7.28477 3.114H2.8461C2.33128 3.114 1.86353 3.32195 1.52429 3.65681C1.18512 3.99173 0.975543 4.45291 0.975471 4.95973V27.0938C0.975471 27.6008 1.18512 28.063 1.52429 28.3976L1.65742 28.517C1.98122 28.781 2.39568 28.9395 2.8461 28.9395H20.2323C20.7472 28.9395 21.2149 28.7322 21.5541 28.3976C21.8933 28.063 22.1029 27.6016 22.1029 27.0947V18.7077L22.2009 18.6811C22.9263 18.4864 23.5749 18.1071 24.0912 17.5972C24.8612 16.8368 25.3366 15.7867 25.3366 14.6272C25.3365 13.468 24.8611 12.4184 24.0912 11.6581C23.5749 11.1482 22.9264 10.7681 22.2009 10.5733L22.1029 10.5476V4.95973ZM20.6068 18.8048L20.7485 18.816C20.8573 18.8242 20.9669 18.828 21.0775 18.828C21.2068 18.828 21.3349 18.8226 21.4614 18.8117L21.6048 18.7988V27.0947C21.6048 27.4693 21.4489 27.8098 21.1994 28.0557C20.9501 28.3014 20.6068 28.4551 20.2289 28.4551H2.8461C2.51541 28.4551 2.21053 28.3377 1.97263 28.1434L1.87471 28.0557C1.62573 27.8099 1.47023 27.4693 1.47018 27.0947V4.95973C1.47026 4.58518 1.62533 4.2446 1.87471 3.99865L1.97263 3.91104C2.21064 3.71673 2.51534 3.60013 2.8461 3.60013H7.29594V5.00525H2.76365C2.62553 5.00525 2.51543 5.11579 2.51543 5.24831V26.9023C2.51566 27.0344 2.62549 27.1445 2.76365 27.1445H16.8234C16.8548 27.1445 16.8846 27.139 16.911 27.129L16.9171 27.1264L16.9196 27.1256L16.9205 27.1247L16.9222 27.1239L16.9291 27.1213L16.9317 27.1196L16.936 27.1179L16.9385 27.1161L16.9428 27.1144L16.948 27.111L16.9514 27.1093L16.9557 27.1067L16.9634 27.1015L16.9677 27.0981L16.9686 27.0972L16.9729 27.0938L16.9746 27.0929L16.978 27.0895L16.9815 27.0878C16.9836 27.0861 16.9849 27.0842 16.9866 27.0826L17.0004 27.0706L20.5346 23.581L20.5389 23.5767L20.5467 23.5681L20.5475 23.5664L20.551 23.563L20.5621 23.5467V23.5449L20.5724 23.5286V23.5269L20.581 23.5114V23.5097L20.5862 23.4994V23.4865L20.5922 23.4771L20.5965 23.4685V23.4651L20.6016 23.453L20.6025 23.4487L20.6034 23.4462V23.4419L20.6059 23.4307V23.4204L20.6068 23.417V18.8048ZM17.0098 27.2175L16.9866 27.1745L16.9841 27.1702L17.0098 27.2175ZM16.5615 14.6272C16.5616 13.394 17.0681 12.2775 17.8859 11.47C18.4241 10.9386 19.0979 10.5421 19.851 10.332V5.75419H15.9594C15.893 5.8809 15.7938 5.98879 15.67 6.07111L15.6691 6.07025C15.656 6.07909 15.6439 6.08735 15.633 6.09344L15.6322 6.09258C15.4623 6.19533 15.2491 6.25742 15.0241 6.25749H8.05432C7.81255 6.25743 7.58372 6.18769 7.40845 6.07111C7.39505 6.06228 7.38281 6.05357 7.37152 6.04449C7.2648 5.96616 7.17779 5.86757 7.11815 5.75419H3.27468V26.3947H16.3176L16.3416 23.4049L16.3528 23.3036C16.3922 23.1165 16.5359 22.9702 16.7195 22.9214V22.9008H19.851V18.9225C19.0977 18.7124 18.4241 18.3167 17.8859 17.7853C17.068 16.9778 16.5615 15.8606 16.5615 14.6272ZM19.7685 23.6506L17.3018 26.0863L17.0742 26.3105L17.094 23.7811L17.0957 23.6506H19.7685ZM17.3431 25.6741L19.1261 23.9142H17.3577L17.3431 25.6741ZM6.43191 24.0534C6.43175 23.9209 6.32282 23.8112 6.18455 23.8112H6.03253C5.89451 23.8112 5.78533 23.921 5.78517 24.0534C5.78517 24.186 5.89416 24.2964 6.03253 24.2964H6.18455C6.32267 24.2964 6.43191 24.1859 6.43191 24.0534ZM14.7724 24.0534C14.7723 23.9209 14.6634 23.8112 14.5251 23.8112H7.82157C7.68354 23.8112 7.57351 23.921 7.57335 24.0534C7.57335 24.186 7.6832 24.2964 7.82157 24.2964H14.5251C14.6632 24.2964 14.7724 24.1859 14.7724 24.0534ZM6.43191 21.2414C6.43173 21.109 6.32281 20.9992 6.18455 20.9992H6.03253C5.89452 20.9992 5.78535 21.1091 5.78517 21.2414C5.78517 21.374 5.89416 21.4845 6.03253 21.4845H6.18455C6.32267 21.4845 6.43191 21.3739 6.43191 21.2414ZM17.3396 21.2414C17.3394 21.109 17.2305 20.9992 17.0923 20.9992H7.82157C7.68356 20.9992 7.57353 21.1091 7.57335 21.2414C7.57335 21.374 7.6832 21.4845 7.82157 21.4845H17.0923C17.2304 21.4845 17.3396 21.3739 17.3396 21.2414ZM6.43191 18.4295C6.43171 18.297 6.32279 18.1873 6.18455 18.1873H6.03253C5.89453 18.1873 5.78537 18.2971 5.78517 18.4295C5.78517 18.5621 5.89416 18.6725 6.03253 18.6725H6.18455C6.32267 18.6725 6.43191 18.562 6.43191 18.4295ZM17.3396 18.4295C17.3394 18.2971 17.2303 18.1873 17.0923 18.1873H7.82157C7.68332 18.1873 7.57355 18.297 7.57335 18.4295C7.57335 18.562 7.68344 18.6725 7.82157 18.6725H17.0923C17.2306 18.6725 17.3396 18.5621 17.3396 18.4295ZM24.5791 14.6281C24.5791 13.6753 24.1882 12.8121 23.5553 12.1872C22.9223 11.5622 22.0474 11.1754 21.0809 11.1754C20.1146 11.1755 19.2402 11.5623 18.6073 12.1872C17.9744 12.8121 17.5835 13.6753 17.5835 14.6281C17.5836 15.5808 17.9745 16.4432 18.6073 17.0682C19.2402 17.6931 20.1145 18.0798 21.0809 18.0799C22.0474 18.0799 22.9223 17.6932 23.5553 17.0682C24.188 16.4432 24.579 15.5807 24.5791 14.6281ZM13.1827 7.12581C13.7313 7.07831 14.2878 7.16258 14.7999 7.37574L14.8901 7.4247C15.0579 7.53821 15.1423 7.74173 15.1023 7.94002L15.0722 8.03794C15.0565 8.07467 15.0366 8.10917 15.0138 8.14014L14.9356 8.22431L13.1818 9.72391L13.3467 10.5742L14.1764 10.8568L15.9328 9.35459L16.017 9.29619C16.2234 9.18152 16.4903 9.22167 16.6517 9.40612L16.6903 9.4568C16.7245 9.5074 16.7487 9.56271 16.7625 9.61998L16.8131 9.84845C16.8991 10.3061 16.8877 10.7765 16.7805 11.2278L16.7187 11.452C16.5605 11.9575 16.2797 12.432 15.8795 12.827L15.7 12.9911C15.2663 13.3622 14.7642 13.6053 14.2408 13.7237L14.0149 13.7675C13.4986 13.8484 12.9691 13.8082 12.4698 13.6541L8.76204 16.8277C8.57624 16.9864 8.30666 16.9894 8.11874 16.8466L8.04402 16.7761L6.37952 14.8806C6.19466 14.6695 6.21827 14.3493 6.43191 14.1669L10.1371 10.9942C10.0542 10.4847 10.09 9.96165 10.2445 9.46882L10.32 9.2541C10.5133 8.75862 10.829 8.30112 11.2631 7.92972L11.4529 7.77856C11.9053 7.44395 12.4197 7.23696 12.9482 7.15415L13.1827 7.12581ZM13.205 7.38863L12.9886 7.41439C12.5008 7.49085 12.0265 7.68196 11.6092 7.9907L11.434 8.13069C11.0337 8.47329 10.7434 8.89435 10.5657 9.3503L10.4961 9.54784C10.3468 10.0244 10.3165 10.5321 10.4085 11.0234L10.4231 11.0981L10.3647 11.1479L6.60368 14.367C6.50166 14.454 6.49036 14.6059 6.57792 14.7062L8.24242 16.6026L8.27849 16.6361C8.36916 16.7049 8.50012 16.7043 8.59026 16.6275L12.353 13.4068L12.4097 13.3587L12.4801 13.3819C12.9605 13.5419 13.4747 13.5848 13.9746 13.5064L14.1824 13.4669C14.6655 13.3577 15.1288 13.1334 15.5291 12.791L15.694 12.6389C16.0628 12.2749 16.3215 11.8388 16.467 11.3738L16.5237 11.1668C16.6388 10.6819 16.6348 10.1728 16.5074 9.68698L16.5065 9.68354C16.5023 9.66519 16.4957 9.64691 16.4868 9.62943L16.4524 9.57962C16.3748 9.49126 16.2458 9.47198 16.1458 9.52723L16.1046 9.55557L14.2915 11.1076L14.2339 11.1565L14.1626 11.1316L13.1904 10.8001L13.1183 10.7752L12.9078 9.69986L12.8932 9.62428L12.9516 9.57446L14.7639 8.02419L14.8008 7.98383C14.8118 7.96895 14.8215 7.9527 14.8291 7.93487L14.8437 7.88849C14.8627 7.79497 14.8233 7.69755 14.7424 7.64285L14.6986 7.61966C14.2258 7.4229 13.7118 7.34468 13.205 7.38863ZM22.4061 13.0864C22.5888 12.9369 22.8584 12.9298 23.0503 13.0821C23.2432 13.2353 23.2936 13.4987 23.1843 13.7082L23.1276 13.7941L21.275 16.0616L21.2355 16.1105H21.2243C21.0645 16.2593 20.8286 16.2908 20.6377 16.1895L20.5527 16.1328L19.3442 15.1383C19.3427 15.137 19.3406 15.1353 19.3391 15.134L19.3348 15.1305C19.1266 14.9511 19.0995 14.6382 19.2781 14.4263L19.3511 14.3541C19.536 14.2079 19.8052 14.2055 19.9944 14.361L20.8052 15.0283L22.334 13.1594L22.4061 13.0864ZM13.2591 7.86788C13.453 7.85182 13.6481 7.85717 13.8406 7.88334L14.1317 7.92285L12.4629 9.35202C12.3944 9.41058 12.3668 9.49761 12.3822 9.57876L12.5205 10.2899L12.6596 11.0011L12.6828 11.0663C12.7041 11.1069 12.7363 11.1404 12.7756 11.1634L12.8383 11.1892L12.8477 11.1917L14.2082 11.6572C14.2945 11.6865 14.385 11.6654 14.4495 11.6109L16.1149 10.186L16.1132 10.4746C16.1119 10.6664 16.0898 10.8582 16.0462 11.0457L15.9955 11.2321C15.8728 11.6241 15.6541 11.9915 15.3436 12.298L15.2045 12.4259C14.8673 12.7144 14.477 12.9035 14.0707 12.9954L13.8964 13.0289C13.472 13.0953 13.0357 13.0585 12.6287 12.9215L12.4561 12.8571C12.3667 12.82 12.2674 12.8387 12.1984 12.8975L12.1975 12.8966L8.55247 16.0177L8.4537 16.1028L7.19888 14.6736L7.11042 14.5731L7.21262 14.4864L10.8586 11.3652L10.9049 11.312C10.9425 11.2536 10.9523 11.1822 10.9333 11.117L10.9324 11.1136C10.8099 10.6439 10.8226 10.1488 10.9668 9.68784L11.0252 9.52121C11.1751 9.13688 11.421 8.78226 11.7578 8.494L11.9047 8.37633C12.2562 8.11615 12.6558 7.95532 13.0659 7.89107L13.2591 7.86788ZM22.8862 13.2891C22.7928 13.215 22.6618 13.2189 22.5736 13.2908L22.5384 13.326L20.9263 15.298L20.843 15.4002L19.8269 14.5645C19.7353 14.4892 19.6045 14.4908 19.5152 14.5611L19.4791 14.5963C19.4042 14.6856 19.4056 14.8122 19.4765 14.8995L19.5109 14.9347L20.7202 15.9293L20.7614 15.9568C20.8627 16.0103 20.9913 15.9875 21.0671 15.8975L21.0689 15.8966L21.0723 15.8924L22.9232 13.6275L22.9507 13.5871C23.0028 13.4876 22.9786 13.3626 22.8862 13.2891ZM13.2814 8.13069L13.1071 8.15217C12.7379 8.20998 12.3783 8.35428 12.0618 8.58848L11.9287 8.69498C11.6257 8.95439 11.4061 9.27282 11.2717 9.61741L11.2193 9.76685C11.0902 10.1797 11.0777 10.6227 11.1866 11.0431L11.2021 11.1127C11.2222 11.2537 11.1812 11.4007 11.0836 11.5129L11.0295 11.5662L7.48489 14.5989L8.47947 15.7326L12.0275 12.6965L12.0833 12.6544C12.2198 12.5672 12.3963 12.5462 12.5574 12.6132L12.7129 12.6716C13.0794 12.795 13.4726 12.8285 13.8552 12.7686L14.0132 12.7377C14.3787 12.6549 14.7301 12.4855 15.0335 12.2258L15.1581 12.1107C15.4375 11.835 15.6329 11.5047 15.743 11.1531L15.7894 10.9865C15.8053 10.9181 15.8158 10.8488 15.8254 10.7795L14.6213 11.8118C14.489 11.924 14.3007 11.9671 14.1231 11.9072L14.1223 11.9063L12.7713 11.4442C12.6115 11.4023 12.4769 11.2846 12.42 11.123L12.4002 11.0509L12.1228 9.62943C12.0897 9.45747 12.1483 9.27307 12.2912 9.15104L13.4901 8.12382C13.4206 8.12355 13.3509 8.12496 13.2814 8.13069ZM21.3437 4.95973C21.3436 4.69716 21.2487 4.45486 21.0895 4.2649L21.0173 4.18674C20.8155 3.98746 20.5376 3.86387 20.2323 3.8638H16.0462V4.74157H20.362C20.6426 4.74157 20.8739 4.96679 20.8739 5.24831V10.1705C20.9425 10.1674 21.0115 10.1637 21.0809 10.1637C21.1692 10.1637 21.2568 10.1665 21.3437 10.1714V4.95973ZM13.1449 2.79193C13.1448 2.72914 13.1107 2.63347 13.0229 2.51623C12.9587 2.43052 12.8714 2.34042 12.7644 2.25341L12.6502 2.16752C12.3533 1.95873 11.9634 1.80937 11.5388 1.80937C11.1673 1.80945 10.8226 1.92346 10.5433 2.09194L10.4274 2.16752C10.2677 2.27989 10.1411 2.40195 10.0555 2.51623C9.96771 2.63349 9.9328 2.72914 9.93268 2.79193C9.93268 3.07298 9.70266 3.29866 9.42165 3.29866H8.05432V5.24487H15.0241V3.29866H13.6568C13.3762 3.29866 13.1449 3.07344 13.1449 2.79193ZM11.7861 2.86235C11.786 2.72988 11.6771 2.62015 11.5388 2.62015C11.4006 2.62019 11.2916 2.73014 11.2914 2.86235V2.92333C11.2916 3.05574 11.4006 3.1655 11.5388 3.16554C11.6769 3.16554 11.7859 3.05552 11.7861 2.92333V2.86235ZM6.69644 24.0534C6.69644 24.3349 6.4651 24.5601 6.18455 24.5601H6.03253C5.7516 24.5601 5.5215 24.3348 5.5215 24.0534C5.52166 23.772 5.75208 23.5475 6.03253 23.5475H6.18455C6.46539 23.5475 6.69628 23.7721 6.69644 24.0534ZM15.037 24.0534C15.037 24.3349 14.8056 24.5601 14.5251 24.5601H7.82157C7.54063 24.5601 7.30968 24.3348 7.30968 24.0534C7.30983 23.772 7.54112 23.5475 7.82157 23.5475H14.5251C14.8059 23.5475 15.0368 23.7721 15.037 24.0534ZM6.69644 21.2414C6.69644 21.5229 6.46509 21.7482 6.18455 21.7482H6.03253C5.7516 21.7482 5.5215 21.5229 5.5215 21.2414C5.52168 20.9601 5.75209 20.7356 6.03253 20.7356H6.18455C6.46538 20.7356 6.69626 20.9601 6.69644 21.2414ZM17.6033 21.2414C17.6033 21.5229 17.3728 21.7482 17.0923 21.7482H7.82157C7.54064 21.7482 7.30968 21.5229 7.30968 21.2414C7.30985 20.9601 7.54113 20.7356 7.82157 20.7356H17.0923C17.3731 20.7356 17.6031 20.9601 17.6033 21.2414ZM6.69644 18.4295C6.69644 18.711 6.46509 18.9362 6.18455 18.9362H6.03253C5.7516 18.9362 5.5215 18.7109 5.5215 18.4295C5.52169 18.1481 5.75211 17.9236 6.03253 17.9236H6.18455C6.46536 17.9236 6.69625 18.1482 6.69644 18.4295ZM17.6033 18.4295C17.6033 18.7109 17.3732 18.9362 17.0923 18.9362H7.82157C7.54102 18.9362 7.30968 18.711 7.30968 18.4295C7.30987 18.1482 7.54075 17.9236 7.82157 17.9236H17.0923C17.3727 17.9236 17.6031 18.1481 17.6033 18.4295ZM24.8428 14.6281C24.8427 15.6547 24.4206 16.5841 23.74 17.2562C23.0593 17.9282 22.1189 18.3436 21.0809 18.3436C20.0428 18.3435 19.1024 17.9283 18.4218 17.2562C17.7412 16.5841 17.3199 15.6547 17.3199 14.6281C17.3199 13.6015 17.7412 12.6721 18.4218 11.9999C19.1024 11.3279 20.0428 10.9118 21.0809 10.9117C22.119 10.9117 23.0593 11.3278 23.74 11.9999C24.4207 12.6721 24.8428 13.6014 24.8428 14.6281ZM16.8252 14.6272C16.8252 15.7866 17.3006 16.8369 18.0705 17.5972C18.5998 18.1199 19.2682 18.5055 20.0159 18.6957L20.1147 18.7206V23.1645H16.9832V23.1662H16.8518C16.7319 23.1662 16.6334 23.2496 16.6104 23.3586L16.6053 23.4067L16.5804 26.5278L16.5795 26.6592H3.01101V5.49051H7.29336L7.32514 5.5764C7.35255 5.64956 7.39891 5.71815 7.46256 5.77823L7.53213 5.83492L7.53728 5.83922L7.5536 5.85124L7.55446 5.8521L7.6601 5.9105C7.77355 5.96248 7.90957 5.99377 8.05432 5.99381H15.0241C15.2046 5.99375 15.3724 5.94389 15.4999 5.86584L15.5042 5.86326L15.5231 5.8521L15.524 5.85124L15.6013 5.79198C15.6147 5.78009 15.6262 5.76677 15.6382 5.75419H15.5549L15.7842 5.52916L15.877 5.58756V5.49051H20.1147V10.5338L20.0159 10.5596C19.2685 10.7498 18.5998 11.1355 18.0705 11.6581C17.3007 12.4184 16.8252 13.468 16.8252 14.6272ZM1.73386 27.0947C1.7339 27.3946 1.85847 27.6683 2.06023 27.8677L2.14011 27.9389C2.33269 28.0962 2.57885 28.1906 2.8461 28.1906H20.2289C20.5343 28.1906 20.8124 28.0671 21.0148 27.8677C21.2167 27.6684 21.3411 27.3946 21.3411 27.0947V19.0831C21.254 19.088 21.166 19.0925 21.0775 19.0925C21.008 19.0925 20.9392 19.087 20.8705 19.0839V23.4213L20.8696 23.4255L20.8705 23.4367L20.8696 23.4359V23.4436C20.8694 23.4477 20.8683 23.4518 20.8679 23.4556V23.4659L20.8662 23.4762L20.8645 23.484V23.4874L20.8627 23.4951V23.4986L20.8602 23.5089V23.5106L20.8559 23.5278L20.8533 23.5363V23.5406L20.8507 23.5475V23.5509L20.843 23.5733L20.8413 23.5776L20.8404 23.581L20.8387 23.5853L20.8378 23.5862V23.5939L20.8267 23.6136V23.6154L20.8224 23.6231V23.6257L20.8112 23.6454V23.6514L20.7889 23.6849L20.7837 23.6918L20.7811 23.6961L20.7794 23.6995L20.7743 23.7055L20.7717 23.7098L20.7708 23.709L20.7691 23.7133L20.7657 23.7167L20.7622 23.721L20.7571 23.7279L20.7537 23.7313L20.7485 23.7382L20.7433 23.7442L20.7425 23.7433L20.7408 23.7451L20.7416 23.7459L20.7391 23.7485L20.7339 23.7545L20.733 23.7554L20.7322 23.7545L20.7296 23.7588C20.7288 23.7596 20.7287 23.7596 20.7262 23.7622C20.724 23.7645 20.7196 23.7684 20.715 23.7725L17.185 27.2587C17.1785 27.2651 17.172 27.2713 17.167 27.2759L17.1653 27.2776L17.1447 27.2956L17.1404 27.2991L17.1395 27.2982L17.1352 27.3025L17.1335 27.3034H17.1318L17.1326 27.3042L17.1283 27.3077L17.1249 27.3102L17.1232 27.312L17.1206 27.3137L17.1172 27.3163L17.112 27.3197L17.1112 27.3205L17.106 27.324L17.1 27.3274L17.0974 27.3283L17.0983 27.3291L17.0923 27.3326L17.088 27.3352L17.0802 27.3403L17.0794 27.3394L17.076 27.342L17.0751 27.3429L17.0708 27.3455L17.0588 27.3515L17.0528 27.3549L17.0485 27.3566L17.0425 27.3592L17.0407 27.3601L17.0364 27.3626L17.0296 27.3652L17.0261 27.3669L17.0244 27.3678L17.0141 27.3721L17.0064 27.3755H17.0047C16.9482 27.3968 16.8864 27.4082 16.8234 27.4082H2.76365C2.48278 27.4082 2.25198 27.1831 2.25176 26.9023V5.24831C2.25176 4.96679 2.48311 4.74157 2.76365 4.74157H7.0314V3.8638H2.8461C2.57891 3.8638 2.33289 3.95816 2.14011 4.11545L2.06023 4.18674C1.85823 4.38596 1.73393 4.65973 1.73386 4.95973V27.0947ZM21.6082 10.4565L21.4648 10.4436C21.3383 10.4327 21.2103 10.4273 21.0809 10.4273C20.9704 10.4273 20.8607 10.4312 20.7519 10.4394L20.6094 10.4505V5.24831C20.6094 5.11579 20.5001 5.00525 20.362 5.00525H15.7825V3.60013H20.2323C20.6101 3.6002 20.9539 3.7529 21.2028 3.99865L21.2922 4.0957C21.4889 4.33068 21.6082 4.63209 21.6082 4.95973V10.4565ZM22.3666 10.3483C23.0975 10.5622 23.7518 10.9517 24.2768 11.47C25.0944 12.2775 25.6011 13.394 25.6011 14.6272C25.6011 15.8606 25.0946 16.9778 24.2768 17.7853C23.7519 18.3036 23.0974 18.6922 22.3666 18.9061V27.0947C22.3666 27.6759 22.1263 28.2042 21.7396 28.5857C21.3531 28.967 20.8193 29.204 20.2323 29.2041H2.8461C2.3323 29.2041 1.85911 29.0225 1.48994 28.7214L1.33878 28.5848C0.952105 28.2033 0.710938 27.6751 0.710938 27.0938V4.95973C0.711009 4.37855 0.952263 3.85128 1.33878 3.46958C1.72538 3.08783 2.25895 2.85033 2.8461 2.85033H7.08809C7.15184 2.69655 7.26557 2.56792 7.40931 2.47242L7.55016 2.39427C7.69977 2.3254 7.87365 2.28605 8.05432 2.28605H9.02829C9.17835 1.9443 9.46378 1.60597 9.83735 1.343L10.0126 1.22877C10.4378 0.97207 10.9654 0.795914 11.5388 0.795898C12.1939 0.795898 12.7899 1.02551 13.2411 1.343L13.3879 1.4538C13.6899 1.6975 13.9204 1.99054 14.0501 2.28605H15.0232C15.1792 2.28605 15.3292 2.31793 15.4638 2.37022V2.33672L15.6691 2.47242C15.8128 2.56775 15.9258 2.69647 15.9895 2.85033H20.2323C20.8193 2.8504 21.3534 3.08783 21.7396 3.46958L21.8771 3.61902C22.1822 3.98369 22.3666 4.45109 22.3666 4.95973V10.3483ZM12.0498 2.92333C12.0496 3.20422 11.8197 3.42921 11.5388 3.42921C11.258 3.42917 11.0279 3.20458 11.0277 2.92333V2.86235C11.0279 2.58144 11.2579 2.35651 11.5388 2.35648C11.8196 2.35648 12.0497 2.58103 12.0498 2.86235V2.92333ZM13.4094 2.79193C13.4094 2.92444 13.5186 3.03499 13.6568 3.03499H15.0241C15.0913 3.03503 15.1579 3.04632 15.213 3.07278L15.2878 3.10885V5.43468L15.213 5.47076C15.1579 5.49721 15.0913 5.50851 15.0241 5.50855H8.05432C7.98686 5.50851 7.91984 5.49695 7.86451 5.4699L7.79065 5.43383V3.10885L7.86537 3.07278C7.92058 3.04631 7.98707 3.03502 8.05432 3.03499H9.42165C9.55995 3.03499 9.66901 2.92427 9.66901 2.79193C9.66912 2.6469 9.74142 2.49552 9.84422 2.35819C9.94949 2.2176 10.0982 2.07718 10.2762 1.95194L10.4068 1.86692C10.7225 1.67633 11.1136 1.54492 11.5388 1.54484C12.0249 1.54484 12.467 1.71614 12.8022 1.95194L12.9302 2.04814C13.052 2.14708 13.1552 2.25274 13.2342 2.35819C13.337 2.49551 13.4093 2.64692 13.4094 2.79193Z" fill="#1CB496"/>
</svg>
