<svg width="32" height="32" viewBox="0 0 32 32" fill="none" xmlns="http://www.w3.org/2000/svg">
<path d="M23.3746 16.2105H17.1254C16.5509 16.2105 16.0833 16.6776 16.0833 17.2519V20.8234C16.0833 21.3976 16.5509 21.8647 17.1254 21.8647H18.7123L18.4348 23.287C18.4006 23.4626 18.48 23.6408 18.6326 23.7315C18.6981 23.7704 18.7709 23.7895 18.8438 23.7895C18.9402 23.7895 19.0358 23.7558 19.1131 23.6898L21.2465 21.8647H23.3746C23.9491 21.8647 24.4167 21.3976 24.4167 20.8234V17.2519C24.4167 16.6776 23.9491 16.2105 23.3746 16.2105ZM23.5833 20.8234C23.5833 20.9332 23.4897 21.0226 23.3746 21.0226H21.0939C20.9954 21.0226 20.8998 21.058 20.8245 21.1223L19.4826 22.2706L19.6278 21.5251C19.6519 21.4015 19.6197 21.2734 19.5408 21.1762C19.4614 21.0789 19.3434 21.0226 19.2189 21.0226H17.1254C17.0103 21.0226 16.9167 20.9332 16.9167 20.8234V17.2519C16.9167 17.1421 17.0103 17.0526 17.1254 17.0526H23.3746C23.4897 17.0526 23.5833 17.1421 23.5833 17.2519V20.8234Z" fill="#1CB496"/>
<path d="M21.5 22.8799C21.2697 22.8799 21.0833 23.0685 21.0833 23.301V24.6316H11.9167V11.9747C11.9167 11.5243 12.2792 11.1579 12.7252 11.1579H20.2748C20.7208 11.1579 21.0833 11.5243 21.0833 11.9747V14.9474C21.0833 15.1799 21.2697 15.3684 21.5 15.3684C21.7303 15.3684 21.9167 15.1799 21.9167 14.9474V11.9747C21.9167 11.06 21.1802 10.3158 20.2748 10.3158H12.7252C11.8198 10.3158 11.0833 11.06 11.0833 11.9747V26.3411C11.0833 27.2558 11.8198 28 12.7252 28H20.2748C21.1802 28 21.9167 27.2558 21.9167 26.3411V23.301C21.9167 23.0685 21.7303 22.8799 21.5 22.8799ZM20.2748 27.1579H12.7252C12.2792 27.1579 11.9167 26.7915 11.9167 26.3411V25.4737H21.0833V26.3411C21.0833 26.7915 20.7208 27.1579 20.2748 27.1579Z" fill="#1CB496"/>
<path d="M16.0833 12C15.853 12 15.6667 12.1885 15.6667 12.4211C15.6667 12.6536 15.853 12.8421 16.0833 12.8421H16.9167C17.147 12.8421 17.3333 12.6536 17.3333 12.4211C17.3333 12.1885 17.147 12 16.9167 12H16.0833Z" fill="#1CB496"/>
<path d="M16.9167 25.8947H16.0833C15.853 25.8947 15.6667 26.0833 15.6667 26.3158C15.6667 26.5483 15.853 26.7368 16.0833 26.7368H16.9167C17.147 26.7368 17.3333 26.5483 17.3333 26.3158C17.3333 26.0833 17.147 25.8947 16.9167 25.8947Z" fill="#1CB496"/>
<path d="M27.3582 4H19.8085C18.9032 4 18.1667 4.74424 18.1667 5.65892V9.05263C18.1667 9.28516 18.353 9.47368 18.5833 9.47368C18.8136 9.47368 19 9.28516 19 9.05263V5.65892C19 5.20847 19.3625 4.84211 19.8085 4.84211H27.3582C27.8041 4.84211 28.1667 5.20847 28.1667 5.65892V18.3158H25.6667C25.4364 18.3158 25.25 18.5043 25.25 18.7368C25.25 18.9694 25.4364 19.1579 25.6667 19.1579H28.1667V20.0253C28.1667 20.4757 27.8041 20.8421 27.3582 20.8421H25.6252C25.3949 20.8421 25.2085 21.0306 25.2085 21.2632C25.2085 21.4957 25.3949 21.6842 25.6252 21.6842H27.3582C28.2635 21.6842 29 20.94 29 20.0253V5.65892C29 4.74424 28.2635 4 27.3582 4Z" fill="#1CB496"/>
<path d="M24 5.68421H23.1667C22.9364 5.68421 22.75 5.87274 22.75 6.10526C22.75 6.33779 22.9364 6.52632 23.1667 6.52632H24C24.2303 6.52632 24.4167 6.33779 24.4167 6.10526C24.4167 5.87274 24.2303 5.68421 24 5.68421Z" fill="#1CB496"/>
<path d="M9.83333 19.5789H9C8.76969 19.5789 8.58333 19.7675 8.58333 20C8.58333 20.2325 8.76969 20.4211 9 20.4211H9.83333C10.0636 20.4211 10.25 20.2325 10.25 20C10.25 19.7675 10.0636 19.5789 9.83333 19.5789Z" fill="#1CB496"/>
<path d="M9.83333 18.3158H4.83333V5.65892C4.83333 5.20847 5.19588 4.84211 5.64185 4.84211H13.1915C13.6375 4.84211 14 5.20847 14 5.65892V9.05263C14 9.28516 14.1864 9.47368 14.4167 9.47368C14.647 9.47368 14.8333 9.28516 14.8333 9.05263V5.65892C14.8333 4.74424 14.0968 4 13.1915 4H5.64185C4.73649 4 4 4.74424 4 5.65892V20.0253C4 20.94 4.73649 21.6842 5.64185 21.6842H9.83333C10.0636 21.6842 10.25 21.4957 10.25 21.2632C10.25 21.0306 10.0636 20.8421 9.83333 20.8421H5.64185C5.19588 20.8421 4.83333 20.4757 4.83333 20.0253V19.1579H9.83333C10.0636 19.1579 10.25 18.9694 10.25 18.7368C10.25 18.5043 10.0636 18.3158 9.83333 18.3158Z" fill="#1CB496"/>
<path d="M9.83333 5.68421H9C8.76969 5.68421 8.58333 5.87274 8.58333 6.10526C8.58333 6.33779 8.76969 6.52632 9 6.52632H9.83333C10.0636 6.52632 10.25 6.33779 10.25 6.10526C10.25 5.87274 10.0636 5.68421 9.83333 5.68421Z" fill="#1CB496"/>
</svg>
