<svg width="29" height="30" viewBox="0 0 29 30" fill="none" xmlns="http://www.w3.org/2000/svg">
<path d="M26.3751 9.73783C26.2229 9.4047 26.3698 9.01069 26.703 8.85848C27.0361 8.70627 27.4301 8.85327 27.5823 9.18639C27.9946 10.0901 28.3129 11.039 28.526 12.021C28.7339 12.983 28.8435 13.9797 28.8435 15C28.8435 18.8714 27.2744 22.3766 24.7373 24.9137C22.2001 27.4508 18.6949 29.0199 14.8235 29.0199C13.1649 29.0199 11.568 28.7285 10.0815 28.1945C8.98908 27.8014 7.96013 27.2786 7.01555 26.6446L7.14515 28.4954C7.1695 28.8616 6.89205 29.1782 6.52587 29.2026C6.15969 29.2269 5.84309 28.9495 5.81787 28.5833L5.58825 25.2955C5.56477 24.9468 5.81526 24.6432 6.15534 24.5936L9.34308 23.9891C9.70404 23.9213 10.0502 24.1596 10.1181 24.5197C10.1859 24.8807 9.94844 25.2268 9.58749 25.2947L7.87576 25.6191C8.70031 26.1601 9.58923 26.6072 10.5286 26.9446C11.8646 27.4248 13.3101 27.6866 14.8227 27.6866C18.3261 27.6866 21.4991 26.2662 23.7944 23.97C26.0906 21.6738 27.511 18.5017 27.511 14.9982C27.511 14.0702 27.4118 13.1674 27.224 12.3002C27.0291 11.4017 26.7421 10.5432 26.3742 9.73609L26.3751 9.73783ZM14.8235 13.2822C14.3486 13.2822 13.9198 13.4744 13.6085 13.7849C13.298 14.0954 13.1057 14.5251 13.1057 15C13.1057 15.4749 13.298 15.9037 13.6085 16.2151C13.919 16.5256 14.3486 16.7178 14.8235 16.7178C15.2984 16.7178 15.7272 16.5256 16.0386 16.2151C16.3491 15.9046 16.5414 15.4749 16.5414 15C16.5414 14.5251 16.3491 14.0963 16.0386 13.7849C15.7281 13.4744 15.2984 13.2822 14.8235 13.2822ZM12.6665 12.8438C13.2188 12.2915 13.9807 11.9505 14.8235 11.9505C15.6655 11.9505 16.4283 12.2924 16.9806 12.8438C17.5329 13.3961 17.8739 14.158 17.8739 15.0009C17.8739 15.8428 17.532 16.6056 16.9806 17.1579C16.4283 17.7102 15.6664 18.0512 14.8235 18.0512C13.9816 18.0512 13.2188 17.7093 12.6665 17.1579C12.1142 16.6056 11.7732 15.8437 11.7732 15.0009C11.7732 14.1589 12.1151 13.3961 12.6665 12.8438ZM16.8058 8.61408C17.0032 8.67496 17.1954 8.74454 17.3816 8.82108C17.572 8.90023 17.7573 8.98721 17.9373 9.08202L19.0141 8.00523C19.2742 7.74517 19.6952 7.74517 19.9552 8.00523L21.8174 9.86743C22.0775 10.1275 22.0775 10.5485 21.8174 10.8085L20.7415 11.8853C20.8363 12.0654 20.9233 12.2506 21.0024 12.4411C21.0799 12.6272 21.1494 12.8195 21.2103 13.0178H22.7333C23.1012 13.0178 23.3996 13.3161 23.3996 13.6831V16.3168C23.3996 16.6847 23.1012 16.9822 22.7333 16.9822H21.2103C21.1494 17.1796 21.0799 17.3719 21.0033 17.558C20.9242 17.7485 20.8372 17.9337 20.7424 18.1138L21.8192 19.1906C22.0792 19.4506 22.0792 19.8716 21.8192 20.1317L19.957 21.9939C19.6969 22.2539 19.2759 22.2539 19.0159 21.9939L17.9391 20.9179C17.759 21.0128 17.5738 21.0997 17.3833 21.1789C17.1972 21.2563 17.0049 21.3259 16.8066 21.3868V22.9097C16.8066 23.2777 16.5083 23.576 16.1413 23.576H13.5076C13.1397 23.576 12.8422 23.2777 12.8422 22.9097V21.3868C12.6448 21.3259 12.4525 21.2563 12.2664 21.1798C12.0759 21.1006 11.8907 21.0136 11.7106 20.9188L10.6338 21.9956C10.3738 22.2557 9.95279 22.2557 9.69273 21.9956L7.83054 20.1334C7.57047 19.8733 7.57047 19.4524 7.83054 19.1923L8.90645 18.1155C8.81164 17.9355 8.72467 17.7502 8.64552 17.5597C8.56811 17.3736 8.49852 17.1814 8.43764 16.9831H6.91466C6.54674 16.9831 6.24841 16.6847 6.24841 16.3177V13.684C6.24841 13.3161 6.54674 13.0186 6.91466 13.0186H8.43764C8.49852 12.8212 8.56811 12.629 8.64552 12.4428C8.72467 12.2524 8.81164 12.0671 8.90645 11.887L7.83054 10.8103C7.57047 10.5502 7.57047 10.1292 7.83054 9.86917L9.69273 8.00697C9.95279 7.74691 10.3738 7.74691 10.6338 8.00697L11.7106 9.08376C11.8907 8.98895 12.0759 8.90197 12.2664 8.82282C12.4525 8.74541 12.6448 8.6767 12.8422 8.61582V7.09284C12.8422 6.72492 13.1405 6.42659 13.5076 6.42659H16.1413C16.5092 6.42659 16.8066 6.72492 16.8066 7.09284V8.61582L16.8058 8.61408ZM16.8719 10.0492C16.6031 9.93788 16.3283 9.84829 16.0499 9.78306C15.7246 9.7387 15.4741 9.46037 15.4741 9.1229V7.75648H14.1721V9.1229H14.1695C14.1695 9.42732 13.959 9.70217 13.6493 9.77001C13.3528 9.83611 13.0596 9.93005 12.7744 10.0483C12.4986 10.1623 12.2316 10.3014 11.9776 10.4606C11.7184 10.6407 11.3592 10.6154 11.1279 10.3841L10.1615 9.41775L9.24045 10.3388L10.2068 11.3052C10.4225 11.5209 10.4677 11.8644 10.2981 12.1323C10.132 12.3933 9.98845 12.6672 9.87103 12.9517C9.7597 13.2204 9.67011 13.4953 9.60488 13.7736C9.56052 14.0989 9.28219 14.3494 8.94472 14.3494H7.57917V15.6514H8.94472V15.6541C9.24914 15.6541 9.52399 15.8645 9.5927 16.1742C9.65881 16.4708 9.75274 16.7639 9.87103 17.0492C9.98497 17.3249 10.1233 17.5911 10.2833 17.845C10.4634 18.1042 10.4381 18.4634 10.2068 18.6948L9.24045 19.6611L10.1615 20.5822L11.1279 19.6159C11.3436 19.4002 11.6871 19.355 11.955 19.5246C12.216 19.6907 12.4899 19.8333 12.7744 19.9516C13.0431 20.063 13.318 20.1525 13.5963 20.2178C13.9216 20.2621 14.1721 20.5405 14.1721 20.8779V22.2444H15.4741V20.8788H15.4767C15.4767 20.5744 15.6872 20.2995 15.9969 20.2308C16.2935 20.1647 16.5866 20.0708 16.8719 19.9525C17.1476 19.8386 17.4137 19.7003 17.6677 19.5402C17.9269 19.3602 18.2861 19.3854 18.5175 19.6168L19.4838 20.5831L20.4049 19.662L19.4386 18.6957C19.2229 18.48 19.1777 18.1364 19.3473 17.8685C19.5134 17.6076 19.656 17.3336 19.7743 17.0492C19.8857 16.7804 19.9752 16.5056 20.0405 16.2272C20.0848 15.9019 20.3632 15.6514 20.7006 15.6514H22.0671V14.3494H20.7015V14.3468C20.3971 14.3468 20.1222 14.1363 20.0535 13.8267C19.9874 13.5301 19.8935 13.2369 19.7752 12.9517C19.6612 12.6759 19.523 12.4098 19.3629 12.1558C19.1829 11.8966 19.2081 11.5374 19.4395 11.306L20.4058 10.3397L19.4847 9.41862L18.5184 10.3849C18.3027 10.6006 17.9591 10.6459 17.6912 10.4763C17.4303 10.3101 17.1563 10.1675 16.8719 10.0492ZM22.5011 1.50452C22.4767 1.13834 22.7542 0.82174 23.1204 0.797387C23.4865 0.773033 23.8031 1.05049 23.8284 1.41667L24.058 4.70443C24.0815 5.05321 23.831 5.35676 23.4909 5.40634L20.3031 6.01083C19.9422 6.07867 19.596 5.84036 19.5282 5.48027C19.4603 5.11931 19.6978 4.77314 20.0587 4.7053L21.7705 4.38087C20.9459 3.83987 20.057 3.3928 19.1176 3.05533C17.7817 2.57521 16.3361 2.31341 14.8235 2.31341C11.3201 2.31341 8.14713 3.73376 5.85179 6.02997C3.55558 8.32618 2.13523 11.4983 2.13523 15.0017C2.13523 15.9298 2.23439 16.8326 2.42226 17.6998C2.61709 18.5983 2.90412 19.4567 3.27203 20.2639C3.42424 20.597 3.27725 20.991 2.94413 21.1432C2.611 21.2954 2.21699 21.1484 2.06478 20.8153C1.65251 19.9116 1.3333 18.9627 1.12107 17.9807C0.912326 17.0187 0.802734 16.022 0.802734 15.0017C0.802734 11.1303 2.37181 7.62514 4.90895 5.088C7.44609 2.55086 10.9513 0.981779 14.8227 0.981779C16.4813 0.981779 18.0783 1.27315 19.5647 1.8072C20.6571 2.20034 21.6861 2.72307 22.6307 3.35714L22.5011 1.50626V1.50452Z" fill="#1CB496"/>
</svg>
