<svg width="46" height="48" viewBox="0 0 46 48" fill="none" xmlns="http://www.w3.org/2000/svg">
<path d="M10.6648 27.9863C12.4389 27.9863 13.8771 26.5428 13.8771 24.7621C13.8771 22.9814 12.4389 21.5379 10.6648 21.5379C8.8907 21.5379 7.45251 22.9814 7.45251 24.7621C7.45251 26.5428 8.8907 27.9863 10.6648 27.9863Z" fill="#1CB496"/>
<path d="M29.6816 24.7621C29.6816 26.5428 28.2433 27.9863 26.4693 27.9863C24.6952 27.9863 23.257 26.5428 23.257 24.7621C23.257 22.9814 24.6952 21.5379 26.4693 21.5379C28.2433 21.5379 29.6816 22.9814 29.6816 24.7621Z" fill="#1CB496"/>
<path fill-rule="evenodd" clip-rule="evenodd" d="M27.6899 3.78052C28.4719 3.534 29.0391 2.80076 29.0391 1.93454C29.0391 0.866119 28.1762 0 27.1117 0C26.0473 0 25.1844 0.866119 25.1844 1.93454C25.1844 2.82431 25.7829 3.57378 26.5978 3.79954V7.64239C26.5978 7.74499 26.6384 7.84341 26.7107 7.91597L28.2837 9.49489C28.356 9.56745 28.3966 9.66586 28.3966 9.76847V10.5054C28.3966 10.6618 28.259 10.782 28.1041 10.7651C27.7359 10.725 27.362 10.7045 26.9832 10.7045H10.2793C4.60221 10.7045 0 15.3237 0 21.022V31.3395C0 36.054 3.14797 40.0299 7.45006 41.2622L7.44965 46.7078C7.44956 47.8094 8.7368 48.404 9.57042 47.6873L16.5848 41.6571H26.9836C32.6608 41.6571 37.2626 37.0378 37.2626 31.3395V30.5166C37.2626 30.3849 37.3127 30.2584 37.4026 30.1627L41.4621 25.8412C41.5295 25.7694 41.567 25.6744 41.567 25.5758V20.9268C41.567 20.8227 41.6088 20.723 41.6829 20.6503L44.4707 17.9115C44.5448 17.8388 44.5866 17.7391 44.5866 17.635V10.5059C45.4015 10.2802 46 9.53072 46 8.64094C46 7.57252 45.1371 6.7064 44.0726 6.7064C43.0082 6.7064 42.1453 7.57252 42.1453 8.64094C42.1453 9.48326 42.6816 10.1998 43.4302 10.4654V16.8636C43.4302 16.9663 43.3896 17.0647 43.3172 17.1373L40.4593 20.0058C40.387 20.0785 40.3464 20.1769 40.3464 20.2795V24.7261C40.3464 24.8315 40.3036 24.9323 40.2278 25.0053L37.48 27.6506C37.3983 27.7293 37.2626 27.6711 37.2626 27.5576V23.1278C37.2626 23.0297 37.3363 22.9494 37.4151 22.8913L38.3907 22.1697C38.4893 22.0968 38.5475 21.9811 38.5475 21.8582V14.0186C38.5475 13.9194 38.5096 13.8241 38.4416 13.7523L36.2763 11.4613C36.2083 11.3894 36.1704 11.2941 36.1704 11.195V7.13372C36.9524 6.88721 37.5196 6.15396 37.5196 5.28774C37.5196 4.21932 36.6566 3.3532 35.5922 3.3532C34.5278 3.3532 33.6648 4.21932 33.6648 5.28774C33.6648 6.13005 34.2011 6.84663 34.9497 7.11221V11.7818C34.9497 11.877 34.9847 11.9689 35.0479 12.0398L37.0359 14.2699C37.0991 14.3409 37.1341 14.4327 37.1341 14.5279V18.1847C37.1341 18.1946 37.1337 18.2043 37.1329 18.2141C37.1198 18.3899 36.9118 18.3339 36.8632 18.1644C35.929 14.9042 33.4362 12.3063 30.2467 11.2353C30.1402 11.1995 30.067 11.1001 30.067 10.9875V9.76847C30.067 9.66586 30.0264 9.56745 29.9541 9.49489L27.8029 7.33561C27.7305 7.26305 27.6899 7.16463 27.6899 7.06202V3.78052ZM28.1397 1.93454C28.1397 2.50436 27.6794 2.96629 27.1117 2.96629C26.5441 2.96629 26.0838 2.50436 26.0838 1.93454C26.0838 1.36471 26.5441 0.902785 27.1117 0.902785C27.6794 0.902785 28.1397 1.36471 28.1397 1.93454ZM36.6201 5.28774C36.6201 5.85757 36.1599 6.3195 35.5922 6.3195C35.0245 6.3195 34.5642 5.85757 34.5642 5.28774C34.5642 4.71792 35.0245 4.25599 35.5922 4.25599C36.1599 4.25599 36.6201 4.71792 36.6201 5.28774ZM4.49721 21.2799C4.49721 17.861 7.25853 15.0894 10.6648 15.0894H26.5978C30.0041 15.0894 32.7654 17.861 32.7654 21.2799V28.2443C32.7654 31.6633 30.0041 34.4348 26.5978 34.4348H10.6648C7.25853 34.4348 4.49721 31.6633 4.49721 28.2443V21.2799ZM44.0726 9.6727C44.6403 9.6727 45.1006 9.21077 45.1006 8.64094C45.1006 8.07112 44.6403 7.60919 44.0726 7.60919C43.5049 7.60919 43.0447 8.07112 43.0447 8.64094C43.0447 9.21077 43.5049 9.6727 44.0726 9.6727Z" fill="#1CB496"/>
</svg>
