<svg width="113" height="116" viewBox="0 0 113 116" fill="none" xmlns="http://www.w3.org/2000/svg">
<path d="M25.97 67.3344C30.2775 67.3739 33.8016 63.9139 33.8411 59.6064C33.8806 55.2988 30.4206 51.7748 26.1131 51.7353C21.8055 51.6957 18.2814 55.1557 18.2419 59.4633C18.2024 63.7709 21.6624 67.2949 25.97 67.3344Z" fill="#E7F0FA"/>
<path d="M72.2151 59.9583C72.1756 64.2659 68.6515 67.7259 64.344 67.6864C60.0364 67.6469 56.5764 64.1228 56.6159 59.8153C56.6554 55.5077 60.1795 52.0477 64.487 52.0872C68.7946 52.1267 72.2546 55.6508 72.2151 59.9583Z" fill="#E7F0FA"/>
<path fill-rule="evenodd" clip-rule="evenodd" d="M67.8449 9.1584C69.7491 8.57948 71.1425 6.81836 71.1617 4.72292C71.1854 2.13836 69.1093 0.0239528 66.5248 0.000248653C63.9404 -0.0234555 61.8259 2.05252 61.8022 4.63708C61.7824 6.78949 63.219 8.61582 65.1926 9.18009L65.1073 18.4761C65.1051 18.7244 65.2015 18.9633 65.3755 19.1405L69.1598 22.995C69.3338 23.1721 69.4302 23.4111 69.4279 23.6593L69.4116 25.4419C69.4081 25.8203 69.0713 26.1079 68.6954 26.0637C67.8025 25.9585 66.8951 25.9005 65.9754 25.892L25.4175 25.52C11.6332 25.3936 0.356301 36.4654 0.229874 50.2498L0.00095865 75.2085C-0.103641 86.6131 7.45156 96.301 17.8699 99.3778L17.7481 112.551C17.7234 115.216 20.8357 116.683 22.8757 114.968L40.0407 100.537L65.2895 100.768C79.0739 100.895 90.3498 89.8227 90.4762 76.0383L90.4945 74.0476C90.4974 73.729 90.6219 73.4241 90.8424 73.1946L100.795 62.8311C100.96 62.6588 101.053 62.43 101.056 62.1913L101.159 50.9452C101.161 50.6935 101.265 50.4532 101.446 50.2789L108.276 43.7157C108.457 43.5414 108.561 43.3012 108.563 43.0494L108.722 25.8038C110.705 25.2759 112.175 23.4762 112.195 21.3238C112.218 18.7392 110.142 16.6248 107.558 16.6011C104.973 16.5774 102.859 18.6534 102.835 21.2379C102.817 23.2755 104.103 25.0209 105.915 25.68L105.773 41.1577C105.77 41.406 105.67 41.6432 105.492 41.8172L98.4895 48.6927C98.3123 48.8667 98.2115 49.1039 98.2092 49.3522L98.1106 60.1088C98.1082 60.3637 98.0021 60.6067 97.8164 60.7816L91.0859 67.1195C90.8858 67.308 90.5576 67.1643 90.5601 66.8897L90.6584 56.1737C90.6606 55.9363 90.8414 55.7439 91.034 55.6049L93.4189 53.8811C93.6598 53.707 93.8037 53.4285 93.8064 53.1312L93.9804 34.1666C93.9826 33.9267 93.8926 33.6953 93.7292 33.52L88.5225 27.9297C88.359 27.7543 88.2691 27.5229 88.2713 27.2832L88.3614 17.4588C90.2656 16.8799 91.659 15.1188 91.6782 13.0234C91.7019 10.4388 89.6258 8.32438 87.0414 8.30068C84.4569 8.27697 82.3424 10.3529 82.3187 12.9375C82.3 14.9751 83.5863 16.7205 85.398 17.3796L85.2944 28.6757C85.2923 28.906 85.3751 29.1289 85.5271 29.302L90.3046 34.741C90.4565 34.914 90.5393 35.1369 90.5372 35.3672L90.4561 44.2131C90.4559 44.2372 90.4547 44.2605 90.4526 44.2842C90.4169 44.7092 89.9131 44.5691 89.7989 44.1581C87.6028 36.2507 81.6079 29.9106 73.8873 27.2487C73.6295 27.1599 73.4542 26.9179 73.4567 26.6453L73.4837 23.6965C73.486 23.4483 73.3896 23.2093 73.2156 23.0322L68.0402 17.7609C67.8662 17.5837 67.7698 17.3448 67.7721 17.0965L67.8449 9.1584ZM68.9778 4.70289C68.9651 6.08133 67.8374 7.18851 66.459 7.17587C65.0807 7.16323 63.9734 6.03555 63.986 4.65711C63.9987 3.27867 65.1265 2.17149 66.5048 2.18413C67.8832 2.19678 68.9904 3.32446 68.9778 4.70289ZM89.4943 13.0033C89.4817 14.3818 88.3539 15.4889 86.9755 15.4763C85.5972 15.4637 84.4899 14.336 84.5026 12.9575C84.5152 11.5791 85.643 10.4719 87.0213 10.4846C88.3997 10.4972 89.507 11.6249 89.4943 13.0033ZM11.1436 50.9739C11.2194 42.7032 17.9855 36.0602 26.2561 36.1361L64.9421 36.4909C73.2128 36.5667 79.8558 43.3328 79.78 51.6035L79.6255 68.4506C79.5496 76.7213 72.7836 83.3643 64.5129 83.2884L25.8269 82.9336C17.5563 82.8578 10.9132 76.0917 10.9891 67.821L11.1436 50.9739ZM107.492 23.7767C108.87 23.7894 109.998 22.6822 110.011 21.3038C110.023 19.9253 108.916 18.7976 107.538 18.785C106.16 18.7724 105.032 19.8795 105.019 21.258C105.006 22.6364 106.114 23.7641 107.492 23.7767Z" fill="#E7F0FA"/>
</svg>
