<svg width="32" height="32" viewBox="0 0 32 32" fill="none" xmlns="http://www.w3.org/2000/svg">
<path d="M11.5556 10.6667C11.3198 10.6667 11.0938 10.7604 10.9271 10.9271C10.7604 11.0938 10.6667 11.3198 10.6667 11.5556C10.6667 11.7913 10.7604 12.0174 10.9271 12.1841C11.0938 12.3508 11.3198 12.4445 11.5556 12.4445H20.4445C20.6802 12.4445 20.9063 12.3508 21.073 12.1841C21.2397 12.0174 21.3334 11.7913 21.3334 11.5556C21.3334 11.3198 21.2397 11.0938 21.073 10.9271C20.9063 10.7604 20.6802 10.6667 20.4445 10.6667H11.5556ZM11.5556 15.1112C11.3198 15.1112 11.0938 15.2048 10.9271 15.3715C10.7604 15.5382 10.6667 15.7643 10.6667 16C10.6667 16.2358 10.7604 16.4619 10.9271 16.6286C11.0938 16.7953 11.3198 16.8889 11.5556 16.8889H16.8889C17.1247 16.8889 17.3508 16.7953 17.5175 16.6286C17.6842 16.4619 17.7778 16.2358 17.7778 16C17.7778 15.7643 17.6842 15.5382 17.5175 15.3715C17.3508 15.2048 17.1247 15.1112 16.8889 15.1112H11.5556ZM11.5556 19.5556C11.3198 19.5556 11.0938 19.6492 10.9271 19.8159C10.7604 19.9826 10.6667 20.2087 10.6667 20.4445C10.6667 20.6802 10.7604 20.9063 10.9271 21.073C11.0938 21.2397 11.3198 21.3334 11.5556 21.3334H20.4445C20.6802 21.3334 20.9063 21.2397 21.073 21.073C21.2397 20.9063 21.3334 20.6802 21.3334 20.4445C21.3334 20.2087 21.2397 19.9826 21.073 19.8159C20.9063 19.6492 20.6802 19.5556 20.4445 19.5556H11.5556ZM9.77782 5.33337C8.59908 5.33337 7.46862 5.80163 6.63512 6.63512C5.80163 7.46862 5.33337 8.59908 5.33337 9.77782V22.2223C5.33337 23.401 5.80163 24.5315 6.63512 25.365C7.46862 26.1985 8.59908 26.6667 9.77782 26.6667H22.2223C23.401 26.6667 24.5315 26.1985 25.365 25.365C26.1985 24.5315 26.6667 23.401 26.6667 22.2223V9.77782C26.6667 8.59908 26.1985 7.46862 25.365 6.63512C24.5315 5.80163 23.401 5.33337 22.2223 5.33337H9.77782ZM7.11115 9.77782C7.11115 9.07057 7.3921 8.3923 7.8922 7.8922C8.3923 7.3921 9.07057 7.11115 9.77782 7.11115H22.2223C22.9295 7.11115 23.6078 7.3921 24.1079 7.8922C24.608 8.3923 24.8889 9.07057 24.8889 9.77782V22.2223C24.8889 22.9295 24.608 23.6078 24.1079 24.1079C23.6078 24.608 22.9295 24.8889 22.2223 24.8889H9.77782C9.07057 24.8889 8.3923 24.608 7.8922 24.1079C7.3921 23.6078 7.11115 22.9295 7.11115 22.2223V9.77782Z" fill="#2E5E99"/>
</svg>
