<svg width="32" height="32" viewBox="0 0 32 32" fill="none" xmlns="http://www.w3.org/2000/svg">
<path d="M8.2231 25.5135C8.2757 25.5618 8.27996 25.6443 8.23163 25.6969C8.20604 25.7253 8.17049 25.7381 8.13637 25.7381C8.1051 25.7381 8.07382 25.7267 8.04965 25.704C7.69707 25.3813 7.36014 25.0358 7.04736 24.6747C7.00044 24.6207 7.00613 24.5382 7.06015 24.4913C7.11418 24.4444 7.19663 24.4501 7.24355 24.5041C7.5478 24.8581 7.87763 25.1964 8.2231 25.5135ZM4.63757 19.5694C4.61908 19.4997 4.548 19.4585 4.47976 19.477C4.41009 19.4954 4.36887 19.5665 4.38735 19.6348C4.50677 20.0968 4.65605 20.556 4.82806 21.001C4.84796 21.0522 4.89772 21.0835 4.9489 21.0835C4.96454 21.0835 4.98018 21.0806 4.99582 21.0749C5.06264 21.0479 5.09534 20.974 5.06975 20.9072C4.90057 20.4722 4.75557 20.0215 4.63757 19.5694ZM10.498 27.1596C10.0899 26.9307 9.69187 26.6763 9.31369 26.4005C9.25539 26.3592 9.17436 26.372 9.13313 26.4289C9.0919 26.4872 9.1047 26.5682 9.16157 26.6095C9.54827 26.8895 9.9563 27.1497 10.3714 27.3843C10.3913 27.3957 10.4127 27.4013 10.4354 27.4013C10.4809 27.4013 10.525 27.3772 10.5477 27.3345C10.5833 27.2748 10.5605 27.1952 10.498 27.1596ZM5.65409 22.1866C5.61997 22.1226 5.54178 22.0998 5.4778 22.1325C5.41382 22.1667 5.39107 22.2449 5.42377 22.3088C5.64698 22.7311 5.89578 23.1448 6.16591 23.5386C6.1915 23.5756 6.23131 23.5955 6.27396 23.5955C6.29955 23.5955 6.32514 23.5884 6.34647 23.5727C6.40618 23.5315 6.4204 23.4519 6.38059 23.3922C6.11615 23.0055 5.87162 22.6017 5.65409 22.1866ZM26.8999 23.1533C26.8402 23.1135 26.7592 23.1306 26.7208 23.1903C26.4649 23.5812 26.182 23.9608 25.8834 24.3205C25.8365 24.3746 25.845 24.457 25.9005 24.5039C25.9246 24.5238 25.9545 24.5338 25.9829 24.5338C26.0199 24.5338 26.0568 24.5181 26.0824 24.4869C26.3881 24.1201 26.6767 23.732 26.9383 23.3324C26.9767 23.2742 26.9596 23.1931 26.8999 23.1533ZM24.9195 25.347C24.5811 25.6697 24.22 25.9754 23.8461 26.2569C23.7893 26.2995 23.7779 26.382 23.8205 26.4388C23.8461 26.473 23.8845 26.49 23.9243 26.49C23.9513 26.49 23.9783 26.4815 24.0025 26.463C24.3835 26.1758 24.7518 25.8631 25.0986 25.5332C25.1498 25.4834 25.1527 25.401 25.1029 25.3498C25.0546 25.3 24.9721 25.2986 24.9195 25.347ZM28.1482 20.6043C28.0814 20.5801 28.006 20.6142 27.9818 20.6811C27.8212 21.1189 27.6335 21.554 27.4231 21.972C27.3918 22.0359 27.4174 22.1141 27.48 22.1454C27.4984 22.1539 27.5184 22.1596 27.5383 22.1596C27.5852 22.1596 27.6307 22.1326 27.6548 22.0871C27.8695 21.6606 28.0614 21.217 28.2249 20.7678C28.2505 20.7038 28.215 20.6285 28.1482 20.6043ZM28.778 17.8348C28.7083 17.8263 28.6429 17.876 28.6344 17.9485C28.579 18.4134 28.4965 18.8798 28.3885 19.3333C28.3714 19.4029 28.4155 19.474 28.4851 19.4897C28.4951 19.4925 28.505 19.4939 28.515 19.4939C28.5733 19.4939 28.6273 19.4541 28.6415 19.3944C28.7524 18.931 28.8377 18.4547 28.8932 17.9798C28.9003 17.9073 28.8491 17.8433 28.778 17.8348ZM17.1216 4.2604C17.5709 4.28315 18.023 4.33148 18.4651 4.40399C18.4722 4.40541 18.4794 4.40541 18.4865 4.40541C18.549 4.40541 18.6045 4.35992 18.6144 4.29594C18.6258 4.22486 18.5774 4.15804 18.5064 4.14666C18.0543 4.07273 17.5922 4.0244 17.133 4.00023C17.0634 3.99597 17.0008 4.05141 16.9965 4.1225C16.9951 4.19642 17.0491 4.25755 17.1216 4.2604ZM19.7859 4.69544C20.2181 4.81628 20.6489 4.96272 21.0654 5.13189C21.0825 5.13758 21.0981 5.14042 21.1137 5.14042C21.1649 5.14042 21.2133 5.10914 21.2332 5.05938C21.2602 4.99256 21.2275 4.91721 21.1607 4.8902C20.7341 4.71817 20.2948 4.56748 19.8541 4.44519C19.7845 4.42671 19.7134 4.46652 19.6935 4.53476C19.6764 4.60442 19.7162 4.67695 19.7859 4.69544ZM14.4048 4.4182C14.4119 4.4182 14.419 4.41678 14.4261 4.41678C14.8683 4.34286 15.319 4.29167 15.7697 4.26466C15.8422 4.2604 15.8962 4.19926 15.8919 4.12675C15.8877 4.05425 15.8251 4.00165 15.754 4.00449C15.2948 4.0315 14.8342 4.08268 14.3835 4.15945C14.3124 4.17083 14.2655 4.23907 14.2769 4.30873C14.2883 4.37271 14.3423 4.4182 14.4048 4.4182ZM11.7832 5.16886C11.8003 5.16886 11.8159 5.16602 11.833 5.15891C12.2481 4.9883 12.6789 4.83903 13.1097 4.71532C13.1793 4.69542 13.2177 4.62291 13.1992 4.55467C13.1793 4.485 13.1068 4.4452 13.0386 4.4651C12.5979 4.59163 12.1585 4.74375 11.7349 4.91863C11.6681 4.94564 11.6368 5.02099 11.6638 5.08781C11.6837 5.13899 11.732 5.16886 11.7832 5.16886ZM9.39052 6.47826C9.41611 6.47826 9.4417 6.47115 9.46444 6.45409C9.83266 6.19534 10.2194 5.95507 10.6117 5.74041C10.6743 5.70629 10.697 5.62668 10.6629 5.56412C10.6288 5.50156 10.5506 5.47882 10.4866 5.51294C10.0843 5.7333 9.69047 5.97782 9.31513 6.24227C9.25684 6.2835 9.24262 6.36454 9.28385 6.42282C9.30944 6.45979 9.35071 6.47826 9.39052 6.47826ZM19.3141 20.0698C19.3141 19.602 19.6951 19.221 20.1643 19.221C20.6334 19.221 21.0144 19.6021 21.0144 20.0698C21.0144 20.5389 20.6334 20.9185 20.1643 20.9185C19.6951 20.9185 19.3141 20.5375 19.3141 20.0698ZM20.1628 20.6584C20.4884 20.6584 20.7528 20.3939 20.7528 20.0698C20.7528 19.7456 20.4884 19.4812 20.1628 19.4812C19.8373 19.4812 19.5728 19.7456 19.5728 20.0698C19.5714 20.3953 19.8373 20.6584 20.1628 20.6584ZM22.1916 23.4122V26.3139C22.1916 26.6309 21.9328 26.8882 21.6158 26.8882H19.0525L18.7099 26.8911C18.4426 26.8911 18.2194 26.7091 18.154 26.4631H17.3948V27.0219H17.9507C18.1113 27.0219 18.2421 27.1527 18.2421 27.3133V27.7086C18.2421 27.8692 18.1113 28 17.9507 28H14.5884C14.4277 28 14.2969 27.8692 14.2969 27.7086V27.3133C14.2969 27.1527 14.4277 27.0219 14.5884 27.0219H15.1442V26.4631H12.5482C12.0279 26.4631 11.6042 26.0409 11.6042 25.522V22.3203H11.1834C10.6559 22.3203 10.2266 21.9222 10.2266 21.4346V19.9219C10.2266 19.4329 10.6559 19.0362 11.1834 19.0362H13.9031C14.4306 19.0362 14.8599 19.4343 14.8599 19.9219V20.0769H15.204C15.2025 20.0627 15.2025 20.0485 15.2025 20.0357C15.2025 19.4485 15.6816 18.9708 16.2688 18.9708C16.856 18.9708 17.3351 19.4485 17.3351 20.0357C17.3351 20.0499 17.3351 20.0641 17.3337 20.0769H18.1341V18.9993C18.1341 18.6822 18.3928 18.4249 18.7099 18.4249H21.6158C21.9328 18.4249 22.1916 18.6837 22.1916 18.9993V21.9024C22.1916 22.2194 21.9328 22.4767 21.6158 22.4767H21.2732L20.6121 22.4753V22.8379H21.6158C21.9343 22.8379 22.1916 23.0966 22.1916 23.4122ZM21.6158 26.6309C21.7907 26.6309 21.9329 26.4888 21.9329 26.3153V23.4122C21.9329 23.2387 21.7907 23.0966 21.6158 23.0966H18.7099C18.535 23.0966 18.3928 23.2387 18.3928 23.4122V26.3153C18.3928 26.4887 18.535 26.6309 18.7099 26.6309H18.9388L19.0056 26.0963C19.0496 25.7466 19.3482 25.4822 19.7008 25.4822H20.6278C20.9803 25.4822 21.2803 25.7466 21.323 26.0963L21.3898 26.6309H21.6158ZM21.1253 26.6309L21.0628 26.1291C21.0357 25.9087 20.8467 25.7424 20.6249 25.7424H19.6979C19.4761 25.7424 19.2871 25.9087 19.2601 26.1291L19.1975 26.6309H21.1253ZM18.1326 26.203V25.5817H12.7501C12.5767 25.5817 12.4359 25.441 12.4359 25.2675V22.3189H11.8601V25.5206C11.8601 25.8959 12.1672 26.203 12.544 26.203H15.2694C15.3419 26.203 15.4002 26.2613 15.4002 26.3338V27.1513C15.4002 27.2238 15.3419 27.2821 15.2694 27.2821H14.5841C14.5656 27.2821 14.5514 27.2963 14.5514 27.3148V27.71C14.5514 27.727 14.5671 27.7427 14.5841 27.7427H17.9464C17.9649 27.7427 17.9791 27.7285 17.9791 27.71V27.3148C17.9791 27.2963 17.9649 27.2821 17.9464 27.2821L17.264 27.2806C17.1915 27.2806 17.1332 27.2223 17.1332 27.1498V26.3324C17.1332 26.2599 17.1915 26.2016 17.264 26.2016L18.1326 26.203ZM10.4838 21.4319C10.4838 21.7774 10.7965 22.0589 11.1818 22.0589H14.0508C14.0721 22.0589 14.092 22.0646 14.1119 22.0745L14.5981 22.3319V19.9192C14.5981 19.5738 14.2854 19.2923 13.9015 19.2923H11.1818C10.7965 19.2923 10.4837 19.5737 10.4837 19.9192L10.4838 21.4319ZM15.3473 20.3344H14.8582V20.9556H18.1338V20.3344H17.1883C17.15 20.3344 17.113 20.3173 17.0888 20.2874C17.0647 20.2576 17.0547 20.2178 17.0604 20.1808C17.0703 20.1296 17.0746 20.0813 17.0746 20.033C17.0746 19.5894 16.7121 19.2269 16.2671 19.2269C15.8221 19.2269 15.4595 19.588 15.4595 20.033C15.4595 20.0813 15.4638 20.1296 15.4737 20.1808C15.4809 20.2192 15.4709 20.2576 15.4453 20.2874C15.4211 20.3173 15.3857 20.3344 15.3473 20.3344ZM18.7096 18.6823C18.5347 18.6823 18.3926 18.8245 18.3926 18.998V21.9011C18.3926 22.0745 18.5347 22.2167 18.7096 22.2167H18.9385L19.0053 21.6821C19.0494 21.3324 19.3479 21.0679 19.7005 21.0679H20.6275C20.9801 21.0679 21.2801 21.3324 21.3227 21.6821L21.3895 22.2167H21.6184C21.7933 22.2167 21.9355 22.0745 21.9355 21.9011V18.998C21.9355 18.8245 21.7933 18.6823 21.6184 18.6823H18.7096ZM17.5538 24.3735C17.5139 24.0536 17.2339 23.8062 16.9055 23.8062H15.6331C15.3032 23.8062 15.0231 24.0522 14.9833 24.3792L14.9194 25.3203H17.622L17.5538 24.3735ZM20.3517 22.838V22.4755H18.7096C18.3926 22.4755 18.1338 22.2168 18.1338 21.9012V21.2173H14.8582V22.5509C14.8582 22.5964 14.8341 22.6376 14.7957 22.6618C14.7744 22.6746 14.7516 22.6803 14.7289 22.6803C14.7075 22.6803 14.6876 22.6746 14.6677 22.6646L14.0195 22.3206H12.6973V25.2692C12.6973 25.299 12.7215 25.3246 12.7527 25.3246H14.6578L14.7246 24.3593C14.7815 23.8959 15.1725 23.5518 15.6331 23.5518H16.9055C17.3661 23.5518 17.7557 23.8958 17.8126 24.3522L17.8794 25.3246H18.1339V23.4153C18.1339 23.0983 18.3926 22.8409 18.7096 22.8409H19.5883L20.3517 22.838ZM21.1251 22.2154L21.0625 21.7135C21.0355 21.4931 20.8464 21.3268 20.6246 21.3268H19.6977C19.4759 21.3268 19.2868 21.4931 19.2598 21.7135L19.1972 22.2154H21.1251ZM21.0113 24.4844C21.0113 24.9521 20.6303 25.3331 20.1612 25.3331C19.692 25.3331 19.311 24.9521 19.311 24.4844C19.311 24.0152 19.692 23.6356 20.1612 23.6356C20.6303 23.6356 21.0113 24.0167 21.0113 24.4844ZM20.1626 25.0744C20.4881 25.0744 20.7526 24.81 20.7526 24.4858C20.7526 24.1617 20.4882 23.8972 20.1626 23.8972C19.837 23.8972 19.5726 24.1617 19.5726 24.4858C19.5712 24.81 19.837 25.0744 20.1626 25.0744ZM17.2851 22.4457C17.2851 23.0058 16.8287 23.4636 16.2671 23.4636C15.7056 23.4636 15.2492 23.0072 15.2492 22.4457C15.2492 21.8841 15.7056 21.4291 16.2671 21.4291C16.8287 21.4291 17.2851 21.8855 17.2851 22.4457ZM17.0263 22.4457C17.0263 22.0277 16.6866 21.6893 16.2672 21.6893C15.8492 21.6893 15.508 22.0291 15.508 22.4457C15.508 22.8636 15.8478 23.202 16.2672 23.202C16.6851 23.2034 17.0263 22.8636 17.0263 22.4457ZM7.88635 9.90052C7.81385 9.90052 7.75555 9.95881 7.75555 10.0313C7.75555 10.1038 7.81385 10.1621 7.88635 10.1621L13.5051 10.1607C13.5776 10.1607 13.6359 10.1024 13.6359 10.0299C13.6359 9.95739 13.5776 9.8991 13.5051 9.8991L7.88635 9.90052ZM7.73281 16.1533L7.40582 16.3295L5.32731 17.4484C5.30883 17.4584 5.2875 17.4641 5.26475 17.4641C5.24201 17.4641 5.21784 17.4584 5.19793 17.4456C5.15813 17.4214 5.13538 17.3802 5.13538 17.3347V16.1462C4.55676 16.0822 4.10608 15.5889 4.10608 14.9931V11.9038C4.10608 11.264 4.62642 10.7437 5.26618 10.7437H6.07227V9.18836C6.07227 8.5486 6.59261 8.02826 7.23237 8.02826H14.1602C14.8 8.02826 15.3203 8.5486 15.3203 9.18836V13.2144C15.3203 13.8542 14.8 14.3745 14.1602 14.3745H14.0095V16.0237C14.0095 16.0706 13.9854 16.1118 13.9456 16.136C13.9257 16.1474 13.9029 16.1545 13.8802 16.1545C13.8588 16.1545 13.8361 16.1488 13.8176 16.1374L11.4818 14.8394V14.993C11.4818 15.6327 10.9614 16.1531 10.3217 16.1531L7.73281 16.1533ZM5.39411 16.0225V17.1157L7.63756 15.9073C7.65604 15.8974 7.67737 15.8917 7.70012 15.8917H10.3217C10.8179 15.8917 11.2217 15.4879 11.2217 14.9917V11.9024C11.2217 11.4062 10.8179 11.0024 10.3217 11.0024H5.26457C4.76839 11.0024 4.36462 11.4062 4.36462 11.9024V14.9917C4.36462 15.4879 4.76839 15.8917 5.26457 15.8917C5.33565 15.8931 5.39411 15.9514 5.39411 16.0225ZM14.1603 8.28697H7.23099C6.73481 8.28697 6.33104 8.69074 6.33104 9.18692V10.7422H10.3203C10.8833 10.7422 11.3539 11.146 11.4577 11.6791H13.5049C13.5774 11.6791 13.6357 11.7374 13.6357 11.8099C13.6357 11.8824 13.5774 11.9407 13.5049 11.9407H11.4819V14.5438L13.7509 15.8035V14.2453C13.7509 14.1728 13.8092 14.1145 13.8817 14.1145H14.1632C14.6594 14.1145 15.0631 13.7107 15.0631 13.2145V9.18848C15.0603 8.69088 14.6579 8.28697 14.1603 8.28697ZM5.73404 12.7825H9.85401C9.92651 12.7825 9.9848 12.7242 9.9848 12.6517C9.9848 12.5792 9.92651 12.5209 9.85401 12.5209L5.73404 12.5224C5.66154 12.5224 5.60324 12.5807 5.60324 12.6532C5.60324 12.7242 5.66154 12.7825 5.73404 12.7825ZM5.73404 14.2796H9.85401C9.92651 14.2796 9.9848 14.2213 9.9848 14.1488C9.9848 14.0763 9.92651 14.018 9.85401 14.018L5.73404 14.0194C5.66154 14.0194 5.60324 14.0777 5.60324 14.1502C5.60324 14.2213 5.66154 14.2796 5.73404 14.2796ZM27.8061 15.9671C27.6482 16.1249 27.4393 16.2131 27.2175 16.2131L25.5612 16.2174L19.6098 16.2287H19.6084C19.3781 16.2287 19.162 16.1392 18.9985 15.9771C18.835 15.8136 18.744 15.5961 18.744 15.3658V11.1916C18.744 11.0764 18.7582 10.9641 18.7824 10.8546C18.7838 10.8447 18.7866 10.8347 18.7881 10.8248C18.8463 10.5888 18.9587 10.367 19.1207 10.1793C19.1293 10.1708 19.1378 10.1608 19.1463 10.1523L19.3539 9.94333L19.9083 9.40165L19.9098 8.68226C19.9112 8.47327 20.0249 8.28988 20.1927 8.19034C20.278 8.14058 20.3775 8.11072 20.4827 8.11072H20.4841L21.2234 8.11215L22.6081 6.75725C23.0403 6.33358 23.7199 6.33216 24.1549 6.75299L25.5709 8.1235L26.1083 8.12492C26.4055 8.12634 26.6458 8.36803 26.6443 8.66375L26.6429 9.16135L27.4248 9.91768L27.6921 10.2034C27.695 10.2063 27.6964 10.2091 27.6978 10.2106C27.8286 10.3741 27.9238 10.5646 27.9793 10.765C27.9807 10.7707 27.9836 10.775 27.9836 10.7806C27.985 10.7849 27.985 10.7906 27.9878 10.7949C28.0177 10.9143 28.0347 11.0394 28.0347 11.1631L28.0461 15.3726C28.0504 15.5986 27.9637 15.809 27.8059 15.9668L27.8061 15.9671ZM19.6087 15.97L27.2161 15.9543C27.4109 15.9529 27.5843 15.8548 27.6881 15.7055C27.6625 15.7027 27.6369 15.6942 27.6156 15.6743L24.5433 12.9076L23.7514 13.3711C23.6419 13.4351 23.5183 13.4678 23.3946 13.4678C23.2737 13.4678 23.1515 13.4365 23.0434 13.3754L22.3127 12.9574L19.1067 15.7041C19.1281 15.7368 19.1537 15.7681 19.1821 15.7965C19.2958 15.9103 19.4479 15.9728 19.6086 15.9728C19.6072 15.97 19.6087 15.97 19.6087 15.97ZM19.3187 10.3513C19.2021 10.4849 19.1168 10.6413 19.0642 10.8062L19.903 11.2796L19.9073 9.76696L19.5376 10.1295L19.3315 10.3371C19.3258 10.3413 19.3215 10.3456 19.3187 10.3513ZM20.4845 8.37225C20.311 8.37225 20.1717 8.513 20.1703 8.68503L20.1632 11.426L23.1715 13.1491C23.3094 13.2288 23.4814 13.2273 23.6207 13.1477L26.3816 11.5327L26.3888 8.66654C26.3888 8.51299 26.2651 8.38789 26.1115 8.38789L20.4845 8.37225ZM23.3862 6.70177C23.1729 6.70177 22.9582 6.78423 22.7919 6.94631L21.5948 8.11493L25.1988 8.12488L23.9761 6.94203C23.8098 6.78138 23.598 6.70177 23.3862 6.70177ZM27.7678 11.0194L26.6049 11.6933C26.5963 11.7032 26.5864 11.7117 26.575 11.7189L24.778 12.7709L27.782 15.4764C27.7877 15.4451 27.7906 15.4124 27.7906 15.3783L27.7792 11.1688C27.7778 11.1176 27.7749 11.0691 27.7678 11.0194ZM19.0089 15.4421L22.0727 12.8177L19.9686 11.6135L19.0089 11.0718C19.0047 11.1117 19.0032 11.1515 19.0032 11.1913V15.3655C19.0032 15.3911 19.006 15.4165 19.0089 15.4421ZM27.7081 10.7548C27.6612 10.6211 27.593 10.496 27.502 10.3809L27.2432 10.1036L26.6447 9.52503L26.6404 11.3747L27.7081 10.7548ZM20.7872 10.2813C20.7872 10.9567 21.3374 11.5054 22.0113 11.5054H22.6254C22.6979 11.5054 22.7562 11.4471 22.7562 11.3746C22.7562 11.3021 22.6979 11.2438 22.6254 11.2438H22.0113C21.4796 11.2438 21.0459 10.8102 21.0459 10.2785C21.0459 9.74682 21.4796 9.3132 22.0113 9.3132H22.9567C23.4884 9.3132 23.922 9.74682 23.922 10.2785C23.922 10.388 23.9035 10.496 23.868 10.5984C23.8438 10.6652 23.8794 10.7406 23.9476 10.7633C24.0144 10.7875 24.0898 10.7519 24.1125 10.6837C24.1594 10.5529 24.1822 10.4164 24.1822 10.2771C24.1822 9.60177 23.632 9.053 22.9581 9.053H22.0126C21.3373 9.05585 20.7872 9.6046 20.7872 10.2813ZM23.8808 9.31602H24.5362C25.0679 9.31602 25.5015 9.74964 25.5015 10.2813C25.5015 10.813 25.0679 11.2467 24.5362 11.2467H23.5907C23.059 11.2467 22.6254 10.813 22.6254 10.2813C22.6254 10.1662 22.6453 10.0553 22.6851 9.94866C22.7093 9.88184 22.6766 9.8065 22.6084 9.78232C22.5415 9.75816 22.4662 9.79085 22.442 9.8591C22.3923 9.99416 22.3667 10.1363 22.3667 10.2828C22.3667 10.9581 22.9169 11.5069 23.5908 11.5069H24.5362C25.2115 11.5069 25.7603 10.9567 25.7603 10.2828C25.7603 9.60746 25.2101 9.05869 24.5362 9.05869H23.8808C23.8083 9.05869 23.75 9.11698 23.75 9.18949C23.7514 9.25773 23.8097 9.31602 23.8808 9.31602Z" fill="#2E5E99" stroke="#2E5E99" stroke-width="0.3"/>
</svg>
