<svg width="32" height="32" viewBox="0 0 32 32" fill="none" xmlns="http://www.w3.org/2000/svg">
<path d="M11.3845 16.9231C11.1306 16.9231 10.9229 17.1308 10.9229 17.3846V18.7692C10.9229 19.0231 11.1306 19.2308 11.3845 19.2308C11.6383 19.2308 11.846 19.0231 11.846 18.7692V17.3846C11.846 17.1308 11.6383 16.9231 11.3845 16.9231Z" fill="#2E5E99"/>
<path d="M18.7691 16.9231C18.5152 16.9231 18.3076 17.1308 18.3076 17.3846V18.7692C18.3076 19.0231 18.5152 19.2308 18.7691 19.2308C19.0229 19.2308 19.2306 19.0231 19.2306 18.7692V17.3846C19.2306 17.1308 19.0229 16.9231 18.7691 16.9231Z" fill="#2E5E99"/>
<path d="M17.4077 21.2062C16.8907 21.7046 16.0184 22 15.0769 22C14.1354 22 13.2631 21.7046 12.7461 21.2062C12.5615 21.0308 12.2708 21.0354 12.0954 21.22C11.92 21.4046 11.9246 21.6954 12.1092 21.8708C12.7923 22.5308 13.9046 22.9231 15.077 22.9231C16.2493 22.9231 17.3616 22.5308 18.0447 21.8708C18.2293 21.6954 18.2339 21.4 18.0585 21.22C17.8831 21.0354 17.5876 21.0308 17.4077 21.2062Z" fill="#2E5E99"/>
<path d="M19.2308 14.1538H10.9231C9.14156 14.1538 7.69217 15.6031 7.69217 17.3848V22.0001C7.69217 23.7817 9.14139 25.2311 10.9231 25.2311H19.2308C21.0123 25.2311 22.4617 23.7818 22.4617 22.0001V17.3848C22.4617 15.6032 21.0125 14.1538 19.2308 14.1538ZM21.5385 21.9999C21.5385 23.2737 20.5046 24.3075 19.2308 24.3075H10.9231C9.64924 24.3075 8.6154 23.2737 8.6154 21.9999V17.3845C8.6154 16.1106 9.64924 15.0768 10.9231 15.0768H19.2308C20.5046 15.0768 21.5385 16.1106 21.5385 17.3845V21.9999Z" fill="#2E5E99"/>
<path d="M25.2306 16H25.2076C24.9722 13.4154 22.7983 11.3846 20.1538 11.3846H15.5384V9.47383C16.3323 9.26614 16.923 8.55075 16.923 7.69231C16.923 6.67232 16.0969 5.84615 15.0769 5.84615C14.0569 5.84615 13.2307 6.67232 13.2307 7.69231C13.2307 8.55075 13.8215 9.26615 14.6154 9.47383V11.3846H9.99997C7.35537 11.3846 5.18166 13.4154 4.94624 16H4.92316C3.39546 16 2.15393 17.2415 2.15393 18.7692V20.6154C2.15393 22.1431 3.39546 23.3846 4.92316 23.3846H4.94624C5.18162 25.9692 7.35545 28 9.99997 28H20.1538C22.7984 28 24.9721 25.9692 25.2076 23.3846H25.2306C26.7583 23.3846 27.9999 22.1431 27.9999 20.6154V18.7692C27.9999 17.2415 26.7583 16 25.2306 16ZM14.1537 7.69231C14.1537 7.1846 14.5691 6.76923 15.0768 6.76923C15.5845 6.76923 15.9999 7.1846 15.9999 7.69231C15.9999 8.20001 15.5845 8.61538 15.0768 8.61538C14.5691 8.61538 14.1537 8.20001 14.1537 7.69231ZM3.07679 20.6154V18.7692C3.07679 17.7492 3.90295 16.9231 4.92294 16.9231V22.4615C3.90295 22.4615 3.07679 21.6354 3.07679 20.6154ZM20.1536 27.0769H9.99971C7.71048 27.0769 5.84602 25.2123 5.84602 22.9232V16.4617C5.84602 14.1725 7.71063 12.308 9.99971 12.308H20.1536C22.4428 12.308 24.3073 14.1726 24.3073 16.4617V22.9232C24.3073 25.2125 22.4426 27.0769 20.1536 27.0769ZM27.0768 20.6154C27.0768 21.6354 26.2506 22.4615 25.2306 22.4615V16.9231C26.2506 16.9231 27.0768 17.7492 27.0768 18.7692V20.6154Z" fill="#2E5E99"/>
<path d="M24.7692 6.76923C24.7692 7.38422 23.8462 7.38422 23.8462 6.76923C23.8462 6.15424 24.7692 6.15424 24.7692 6.76923Z" fill="#2E5E99"/>
<path d="M27.5382 6.76923C27.5382 7.38422 26.6151 7.38422 26.6151 6.76923C26.6151 6.15424 27.5382 6.15424 27.5382 6.76923Z" fill="#2E5E99"/>
<path d="M21.9997 6.76923C21.9997 7.38422 21.0766 7.38422 21.0766 6.76923C21.0766 6.15424 21.9997 6.15424 21.9997 6.76923Z" fill="#2E5E99"/>
<path d="M28.4615 4H20.1539C19.3923 4 18.7692 4.62308 18.7692 5.38462V8.15385C18.7692 8.91538 19.3923 9.53846 20.1539 9.53846H22.9231V10.9231C22.9231 11.0985 23.0246 11.26 23.1862 11.3384C23.2508 11.3708 23.32 11.3846 23.3846 11.3846C23.4862 11.3846 23.5877 11.3523 23.6708 11.2831L25.8538 9.53846H28.4615C29.2231 9.53846 29.8461 8.91538 29.8461 8.15385V5.38462C29.8461 4.62308 29.2231 4 28.4615 4ZM28.9231 8.1537C28.9231 8.40755 28.7154 8.61524 28.4615 8.61524H25.6923C25.5862 8.61524 25.4846 8.65216 25.4062 8.71678L23.8462 9.96294V9.07679C23.8462 8.82294 23.6385 8.61525 23.3846 8.61525H20.1537C19.8999 8.61525 19.6922 8.40756 19.6922 8.15371V5.38448C19.6922 5.13063 19.8999 4.92294 20.1537 4.92294H28.4614C28.7153 4.92294 28.923 5.13063 28.923 5.38448L28.9231 8.1537Z" fill="#2E5E99"/>
</svg>
