<svg width="32" height="32" viewBox="0 0 32 32" fill="none" xmlns="http://www.w3.org/2000/svg">
<path d="M15.9999 26.6667C15.6641 26.6667 15.3828 26.5529 15.1561 26.3254C14.9293 26.0978 14.8155 25.8165 14.8147 25.4815C14.8139 25.1465 14.9277 24.8652 15.1561 24.6377C15.3844 24.4101 15.6657 24.2963 15.9999 24.2963H24.2962V15.8815C24.2962 13.5704 23.4915 11.6101 21.882 10.0006C20.2725 8.39115 18.3118 7.58602 15.9999 7.58523C13.688 7.58444 11.7277 8.38957 10.119 10.0006C8.51034 11.6117 7.70521 13.572 7.70363 15.8815V21.926C7.70363 22.2618 7.58985 22.5434 7.36229 22.771C7.13474 22.9986 6.85345 23.1119 6.51844 23.1112C5.86659 23.1112 5.30876 22.8792 4.84496 22.4154C4.38116 21.9516 4.14886 21.3934 4.14807 20.7408V18.3704C4.14807 17.9556 4.25197 17.5657 4.45978 17.2006C4.66758 16.8356 4.95874 16.544 5.33326 16.326L5.42215 14.7556C5.58017 13.4124 5.97049 12.1679 6.59311 11.0223C7.21573 9.87658 7.99597 8.87905 8.93385 8.02967C9.87173 7.18029 10.9479 6.51856 12.1623 6.04448C13.3767 5.57041 14.6559 5.33337 15.9999 5.33337C17.3439 5.33337 18.618 5.57041 19.8221 6.04448C21.0263 6.51856 22.1028 7.17555 23.0518 8.01545C24.0007 8.85535 24.781 9.84774 25.3925 10.9926C26.0041 12.1375 26.3991 13.382 26.5777 14.726L26.6666 16.2667C27.0419 16.4445 27.3335 16.7112 27.5413 17.0667C27.7491 17.4223 27.8526 17.7976 27.8518 18.1926V20.9186C27.8518 21.3136 27.7483 21.6889 27.5413 22.0445C27.3342 22.4 27.0427 22.6667 26.6666 22.8445V24.2963C26.6666 24.9482 26.4347 25.5064 25.9709 25.971C25.5071 26.4356 24.9489 26.6675 24.2962 26.6667H15.9999ZM12.4444 18.3704C12.1086 18.3704 11.8273 18.2566 11.6005 18.0291C11.3738 17.8015 11.26 17.5202 11.2592 17.1852C11.2584 16.8502 11.3722 16.5689 11.6005 16.3414C11.8289 16.1138 12.1101 16 12.4444 16C12.7786 16 13.0603 16.1138 13.2894 16.3414C13.5185 16.5689 13.6319 16.8502 13.6296 17.1852C13.6272 17.5202 13.5134 17.8019 13.2882 18.0303C13.063 18.2586 12.7818 18.372 12.4444 18.3704ZM19.5555 18.3704C19.2197 18.3704 18.9384 18.2566 18.7116 18.0291C18.4849 17.8015 18.3711 17.5202 18.3703 17.1852C18.3695 16.8502 18.4833 16.5689 18.7116 16.3414C18.94 16.1138 19.2213 16 19.5555 16C19.8897 16 20.1714 16.1138 20.4005 16.3414C20.6297 16.5689 20.743 16.8502 20.7407 17.1852C20.7383 17.5202 20.6245 17.8019 20.3993 18.0303C20.1741 18.2586 19.8929 18.372 19.5555 18.3704ZM8.91844 16.5334C8.78017 14.4395 9.41227 12.642 10.8147 11.1408C12.2172 9.63955 13.9654 8.88893 16.0592 8.88893C17.8172 8.88893 19.3631 9.44676 20.6968 10.5624C22.0305 11.6781 22.8353 13.1058 23.111 14.8457C21.3135 14.8251 19.6594 14.3408 18.1487 13.3926C16.6379 12.4445 15.4773 11.1605 14.6666 9.54078C14.3505 11.121 13.6841 12.5286 12.6672 13.7636C11.6503 14.9986 10.4007 15.9218 8.91844 16.5334Z" fill="#2E5E99"/>
</svg>
