<svg width="32" height="32" viewBox="0 0 32 32" fill="none" xmlns="http://www.w3.org/2000/svg">
<path d="M23.4469 16.2105H17.132C16.5514 16.2105 16.0789 16.6776 16.0789 17.2519V20.8234C16.0789 21.3976 16.5514 21.8647 17.132 21.8647H18.7356L18.4552 23.287C18.4206 23.4626 18.5008 23.6408 18.655 23.7315C18.7212 23.7704 18.7948 23.7895 18.8684 23.7895C18.9659 23.7895 19.0625 23.7558 19.1406 23.6898L21.2964 21.8647H23.4469C24.0275 21.8647 24.5 21.3976 24.5 20.8234V17.2519C24.5 16.6776 24.0275 16.2105 23.4469 16.2105ZM23.6579 20.8234C23.6579 20.9332 23.5633 21.0226 23.4469 21.0226H21.1423C21.0427 21.0226 20.9461 21.058 20.8701 21.1223L19.514 22.2706L19.6608 21.5251C19.685 21.4015 19.6525 21.2734 19.5728 21.1762C19.4926 21.0789 19.3733 21.0226 19.2475 21.0226H17.132C17.0156 21.0226 16.921 20.9332 16.921 20.8234V17.2519C16.921 17.1421 17.0156 17.0526 17.132 17.0526H23.4469C23.5633 17.0526 23.6579 17.1421 23.6579 17.2519V20.8234Z" fill="#2E5E99"/>
<path d="M21.5526 22.8799C21.3199 22.8799 21.1316 23.0685 21.1316 23.301V24.6316H11.8684V11.9747C11.8684 11.5243 12.2348 11.1579 12.6854 11.1579H20.3145C20.7652 11.1579 21.1316 11.5243 21.1316 11.9747V14.9474C21.1316 15.1799 21.3199 15.3684 21.5526 15.3684C21.7853 15.3684 21.9737 15.1799 21.9737 14.9474V11.9747C21.9737 11.06 21.2294 10.3158 20.3145 10.3158H12.6854C11.7705 10.3158 11.0263 11.06 11.0263 11.9747V26.3411C11.0263 27.2558 11.7705 28 12.6854 28H20.3145C21.2294 28 21.9737 27.2558 21.9737 26.3411V23.301C21.9737 23.0685 21.7853 22.8799 21.5526 22.8799ZM20.3145 27.1579H12.6854C12.2348 27.1579 11.8684 26.7915 11.8684 26.3411V25.4737H21.1316V26.3411C21.1316 26.7915 20.7652 27.1579 20.3145 27.1579Z" fill="#2E5E99"/>
<path d="M16.0789 12C15.8462 12 15.6579 12.1885 15.6579 12.4211C15.6579 12.6536 15.8462 12.8421 16.0789 12.8421H16.921C17.1538 12.8421 17.3421 12.6536 17.3421 12.4211C17.3421 12.1885 17.1538 12 16.921 12H16.0789Z" fill="#2E5E99"/>
<path d="M16.921 25.8947H16.0789C15.8462 25.8947 15.6579 26.0833 15.6579 26.3158C15.6579 26.5483 15.8462 26.7368 16.0789 26.7368H16.921C17.1538 26.7368 17.3421 26.5483 17.3421 26.3158C17.3421 26.0833 17.1538 25.8947 16.921 25.8947Z" fill="#2E5E99"/>
<path d="M27.4724 4H19.8433C18.9284 4 18.1842 4.74424 18.1842 5.65892V9.05263C18.1842 9.28516 18.3725 9.47368 18.6052 9.47368C18.838 9.47368 19.0263 9.28516 19.0263 9.05263V5.65892C19.0263 5.20847 19.3927 4.84211 19.8433 4.84211H27.4724C27.9231 4.84211 28.2895 5.20847 28.2895 5.65892V18.3158H25.7631C25.5304 18.3158 25.3421 18.5043 25.3421 18.7368C25.3421 18.9694 25.5304 19.1579 25.7631 19.1579H28.2895V20.0253C28.2895 20.4757 27.9231 20.8421 27.4724 20.8421H25.7212C25.4885 20.8421 25.3001 21.0306 25.3001 21.2632C25.3001 21.4957 25.4885 21.6842 25.7212 21.6842H27.4724C28.3873 21.6842 29.1316 20.94 29.1316 20.0253V5.65892C29.1316 4.74424 28.3873 4 27.4724 4Z" fill="#2E5E99"/>
<path d="M24.0789 5.68421H23.2368C23.0041 5.68421 22.8158 5.87274 22.8158 6.10526C22.8158 6.33779 23.0041 6.52632 23.2368 6.52632H24.0789C24.3117 6.52632 24.5 6.33779 24.5 6.10526C24.5 5.87274 24.3117 5.68421 24.0789 5.68421Z" fill="#2E5E99"/>
<path d="M9.76314 19.5789H8.92104C8.68831 19.5789 8.49999 19.7675 8.49999 20C8.49999 20.2325 8.68831 20.4211 8.92104 20.4211H9.76314C9.99587 20.4211 10.1842 20.2325 10.1842 20C10.1842 19.7675 9.99587 19.5789 9.76314 19.5789Z" fill="#2E5E99"/>
<path d="M9.76314 18.3158H4.71051V5.65892C4.71051 5.20847 5.07688 4.84211 5.52754 4.84211H13.1566C13.6073 4.84211 13.9737 5.20847 13.9737 5.65892V9.05263C13.9737 9.28516 14.162 9.47368 14.3947 9.47368C14.6275 9.47368 14.8158 9.28516 14.8158 9.05263V5.65892C14.8158 4.74424 14.0715 4 13.1566 4H5.52754C4.61265 4 3.86841 4.74424 3.86841 5.65892V20.0253C3.86841 20.94 4.61265 21.6842 5.52754 21.6842H9.76314C9.99587 21.6842 10.1842 21.4957 10.1842 21.2632C10.1842 21.0306 9.99587 20.8421 9.76314 20.8421H5.52754C5.07688 20.8421 4.71051 20.4757 4.71051 20.0253V19.1579H9.76314C9.99587 19.1579 10.1842 18.9694 10.1842 18.7368C10.1842 18.5043 9.99587 18.3158 9.76314 18.3158Z" fill="#2E5E99"/>
<path d="M9.76314 5.68421H8.92104C8.68831 5.68421 8.49999 5.87274 8.49999 6.10526C8.49999 6.33779 8.68831 6.52632 8.92104 6.52632H9.76314C9.99587 6.52632 10.1842 6.33779 10.1842 6.10526C10.1842 5.87274 9.99587 5.68421 9.76314 5.68421Z" fill="#2E5E99"/>
</svg>
