<svg width="32" height="32" viewBox="0 0 32 32" fill="none" xmlns="http://www.w3.org/2000/svg">
<path fill-rule="evenodd" clip-rule="evenodd" d="M25.4814 5.33337C26.0794 5.33318 26.6554 5.55904 27.0939 5.96567C27.5324 6.37229 27.801 6.92963 27.8458 7.52597L27.8518 7.70374V24.2963C27.852 24.8944 27.6261 25.4703 27.2195 25.9088C26.8129 26.3473 26.2555 26.6159 25.6592 26.6608L25.4814 26.6667H6.51844C5.92043 26.6669 5.34444 26.441 4.90594 26.0344C4.46744 25.6278 4.19885 25.0704 4.154 24.4741L4.14807 24.2963V7.70374C4.14788 7.10573 4.37374 6.52974 4.78036 6.09124C5.18699 5.65275 5.74433 5.38415 6.34066 5.3393L6.51844 5.33337H25.4814ZM25.4814 7.70374H6.51844V24.2963H25.4814V7.70374ZM14.0325 10.8303L14.6464 11.1029L15.047 11.2925L15.5057 11.5177L16.0153 11.776L16.5724 12.0723L17.1733 12.4042L17.4885 12.5843L18.1024 12.9458L18.6642 13.2919L19.1739 13.6154L19.6242 13.9153L20.1931 14.3064L20.6245 14.6181L20.7371 14.7011C20.92 14.8372 21.0686 15.0142 21.1709 15.2179C21.2733 15.4216 21.3266 15.6464 21.3266 15.8744C21.3266 16.1024 21.2733 16.3272 21.1709 16.5309C21.0686 16.7347 20.92 16.9116 20.7371 17.0477L20.3543 17.3263L19.8328 17.6913L19.4109 17.9746L18.9309 18.2863L18.394 18.6217L17.8026 18.9772L17.1697 19.3434L16.5664 19.6777L16.0082 19.974L15.4986 20.2347L15.0411 20.4575L14.3039 20.7989L14.0313 20.9174C13.8221 21.0076 13.5946 21.0476 13.3671 21.0343C13.1396 21.021 12.9184 20.9547 12.7211 20.8407C12.5237 20.7267 12.3558 20.5682 12.2306 20.3778C12.1054 20.1874 12.0264 19.9704 11.9999 19.744L11.9312 19.0744L11.8933 18.6312L11.8435 17.8442L11.8162 17.2421L11.7984 16.5843L11.7937 16.2359L11.7913 15.8744C11.7913 15.6295 11.7937 15.3924 11.7984 15.1633L11.8162 14.5055L11.8435 13.9046L11.8755 13.363L11.911 12.8877L11.9999 12.006C12.0262 11.7794 12.1051 11.5621 12.2303 11.3714C12.3555 11.1807 12.5235 11.0219 12.721 10.9077C12.9184 10.7935 13.1399 10.727 13.3676 10.7136C13.5953 10.7001 13.823 10.7401 14.0325 10.8303ZM14.7567 13.7944L14.2399 13.536L14.2056 14.1132L14.1795 14.7663L14.1641 15.4892L14.1617 15.8744L14.1641 16.2596L14.1795 16.9814L14.1913 17.3168L14.2221 17.9331L14.2399 18.2116L14.7543 17.9532L15.3315 17.6498L15.9656 17.3014L16.3021 17.1094L16.9552 16.723L17.5407 16.3603L18.0574 16.0285L18.2897 15.8744L17.8073 15.5544L17.255 15.206C16.9408 15.0114 16.6235 14.8217 16.3033 14.6371L15.9679 14.4463L15.335 14.0978L14.7567 13.7944Z" fill="#2E5E99"/>
</svg>
