<svg width="202" height="247" viewBox="0 0 202 247" fill="none" xmlns="http://www.w3.org/2000/svg">
<path d="M109.469 147.206C92.6171 147.206 79.0251 139.837 78.2891 139.43L84.8197 127.608L81.5544 133.52L84.8024 127.6C84.9877 127.701 103.572 137.656 121.314 131.91C131.606 128.581 139.896 120.47 145.95 107.804L158.134 113.628C150.394 129.821 139.362 140.309 125.344 144.801C119.933 146.537 114.552 147.206 109.469 147.206Z" fill="#2E5E99"/>
<path d="M98.0876 107.342C98.0876 112.654 93.7809 116.96 88.4689 116.96C83.1569 116.96 78.8516 112.654 78.8516 107.342C78.8516 102.03 83.1569 97.723 88.4689 97.723C93.7809 97.723 98.0876 102.03 98.0876 107.342Z" fill="#2E5E99"/>
<path d="M138.673 96.4061C138.673 101.718 134.367 106.025 129.055 106.025C123.743 106.025 119.438 101.718 119.438 96.4061C119.438 91.0941 123.743 86.7875 129.055 86.7875C134.367 86.7875 138.673 91.0941 138.673 96.4061Z" fill="#2E5E99"/>
<path d="M201.929 182.104C180.267 208.952 147.989 224.375 113.308 224.375C102.775 224.375 92.592 222.944 82.9213 220.269L43.7573 246.253L46.4307 202.713C18.2867 182.239 0 149.287 0 112.175C0 50.3213 50.8333 0 113.308 0C144.344 0 174.352 12.804 195.663 35.1133L161.684 67.58C148.989 54.2907 131.837 46.9987 113.308 46.9987C76.736 46.9987 46.9987 76.224 46.9987 112.175C46.9987 135.133 59.1253 155.337 77.412 166.951L75.0347 189.505L98.1013 175.595C102.991 176.756 108.068 177.351 113.308 177.351C133.701 177.351 152.663 168.356 165.331 152.609L201.929 182.104Z" fill="#2E5E99"/>
</svg>
