<svg width="32" height="33" viewBox="0 0 32 33" fill="none" xmlns="http://www.w3.org/2000/svg">
<path d="M23.5379 29.8827C22.0227 31.3515 20.3684 31.1195 18.776 30.4238C17.0907 29.7126 15.5447 29.6817 13.7667 30.4238C11.5403 31.3824 10.3653 31.1041 9.03569 29.8827C1.49084 22.1059 2.60402 10.263 11.1693 9.83009C13.2565 9.93831 14.7098 10.9742 15.9312 11.0669C17.7556 10.6959 19.5026 9.6291 21.4507 9.76824C23.7852 9.95377 25.5478 10.8814 26.7073 12.5512C21.8836 15.4423 23.0277 21.7967 27.4494 23.5747C26.5682 25.8938 25.4241 28.1975 23.5224 29.8981L23.5379 29.8827ZM15.7766 9.73732C15.5447 6.28958 18.3431 3.4448 21.5589 3.1665C22.0073 7.15538 17.9411 10.1238 15.7766 9.73732Z" fill="white"/>
</svg>
