<svg width="374" height="374" viewBox="0 0 374 374" fill="none" xmlns="http://www.w3.org/2000/svg">
<path d="M192.469 218.206C175.617 218.206 162.025 210.837 161.289 210.43L167.82 198.608L164.554 204.52L167.802 198.6C167.988 198.701 186.572 208.656 204.314 202.91C214.606 199.581 222.896 191.47 228.95 178.804L241.134 184.628C233.394 200.821 222.362 211.309 208.344 215.801C202.933 217.537 197.552 218.206 192.469 218.206Z" fill="#2E5E99"/>
<path d="M181.088 178.342C181.088 183.654 176.781 187.96 171.469 187.96C166.157 187.96 161.852 183.654 161.852 178.342C161.852 173.03 166.157 168.723 171.469 168.723C176.781 168.723 181.088 173.03 181.088 178.342Z" fill="#2E5E99"/>
<path d="M221.673 167.406C221.673 172.718 217.367 177.025 212.055 177.025C206.743 177.025 202.438 172.718 202.438 167.406C202.438 162.094 206.743 157.787 212.055 157.787C217.367 157.787 221.673 162.094 221.673 167.406Z" fill="#2E5E99"/>
<path d="M284.929 253.104C263.267 279.952 230.989 295.375 196.308 295.375C185.775 295.375 175.592 293.944 165.921 291.269L126.757 317.253L129.431 273.713C101.287 253.239 83 220.287 83 183.175C83 121.321 133.833 71 196.308 71C227.344 71 257.352 83.804 278.663 106.113L244.684 138.58C231.989 125.291 214.837 117.999 196.308 117.999C159.736 117.999 129.999 147.224 129.999 183.175C129.999 206.133 142.125 226.337 160.412 237.951L158.035 260.505L181.101 246.595C185.991 247.756 191.068 248.351 196.308 248.351C216.701 248.351 235.663 239.356 248.331 223.609L284.929 253.104Z" fill="#2E5E99"/>
</svg>
