<svg width="23" height="24" viewBox="0 0 23 24" fill="none" xmlns="http://www.w3.org/2000/svg">
<path d="M5.3324 13.9932C6.21944 13.9932 6.93855 13.2714 6.93855 12.3811C6.93855 11.4907 6.21944 10.7689 5.3324 10.7689C4.44535 10.7689 3.72625 11.4907 3.72625 12.3811C3.72625 13.2714 4.44535 13.9932 5.3324 13.9932Z" fill="white"/>
<path d="M14.8408 12.3811C14.8408 13.2714 14.1217 13.9932 13.2346 13.9932C12.3476 13.9932 11.6285 13.2714 11.6285 12.3811C11.6285 11.4907 12.3476 10.7689 13.2346 10.7689C14.1217 10.7689 14.8408 11.4907 14.8408 12.3811Z" fill="white"/>
<path fill-rule="evenodd" clip-rule="evenodd" d="M13.845 1.89026C14.236 1.767 14.5196 1.40038 14.5196 0.96727C14.5196 0.43306 14.0881 0 13.5559 0C13.0237 0 12.5922 0.43306 12.5922 0.96727C12.5922 1.41216 12.8914 1.78689 13.2989 1.89977V3.82119C13.2989 3.8725 13.3192 3.92171 13.3554 3.95798L14.1419 4.74744C14.178 4.78372 14.1983 4.83293 14.1983 4.88423V5.25268C14.1983 5.33089 14.1295 5.39098 14.052 5.38254C13.868 5.36251 13.681 5.35223 13.4916 5.35223H5.13967C2.30111 5.35223 0 7.66187 0 10.511V15.6698C0 18.027 1.57398 20.0149 3.72503 20.6311L3.72482 23.3539C3.72478 23.9047 4.3684 24.202 4.78521 23.8437L8.2924 20.8285H13.4918C16.3304 20.8285 18.6313 18.5189 18.6313 15.6698V15.2583C18.6313 15.1925 18.6563 15.1292 18.7013 15.0813L20.731 12.9206C20.7648 12.8847 20.7835 12.8372 20.7835 12.7879V10.4634C20.7835 10.4114 20.8044 10.3615 20.8415 10.3252L22.2353 8.95576C22.2724 8.91939 22.2933 8.86954 22.2933 8.8175V5.25297C22.7007 5.14009 23 4.76536 23 4.32047C23 3.78626 22.5685 3.3532 22.0363 3.3532C21.5041 3.3532 21.0726 3.78626 21.0726 4.32047C21.0726 4.74163 21.3408 5.09992 21.7151 5.2327V8.43182C21.7151 8.48315 21.6948 8.53235 21.6586 8.56866L20.2297 10.0029C20.1935 10.0392 20.1732 10.0884 20.1732 10.1398V12.3631C20.1732 12.4157 20.1518 12.4662 20.1139 12.5027L18.74 13.8253C18.6991 13.8647 18.6313 13.8356 18.6313 13.7788V11.5639C18.6313 11.5148 18.6682 11.4747 18.7075 11.4456L19.1954 11.0848C19.2446 11.0484 19.2737 10.9906 19.2737 10.9291V7.00929C19.2737 6.9597 19.2548 6.91205 19.2208 6.87613L18.1381 5.73063C18.1041 5.69469 18.0852 5.64703 18.0852 5.59748V3.56686C18.4762 3.4436 18.7598 3.07698 18.7598 2.64387C18.7598 2.10966 18.3283 1.6766 17.7961 1.6766C17.2639 1.6766 16.8324 2.10966 16.8324 2.64387C16.8324 3.06503 17.1006 3.42332 17.4749 3.5561V5.89092C17.4749 5.93851 17.4923 5.98444 17.5239 6.01991L18.518 7.13497C18.5496 7.17044 18.567 7.21635 18.567 7.26394V9.09234C18.567 9.0973 18.5668 9.10214 18.5665 9.10704C18.5599 9.19493 18.4559 9.16694 18.4316 9.08221C17.9645 7.4521 16.7181 6.15314 15.1233 5.61763C15.0701 5.59975 15.0335 5.55007 15.0335 5.49373V4.88423C15.0335 4.83293 15.0132 4.78372 14.977 4.74744L13.9014 3.6678C13.8653 3.63152 13.845 3.58232 13.845 3.53101V1.89026ZM14.0698 0.96727C14.0698 1.25218 13.8397 1.48315 13.5559 1.48315C13.272 1.48315 13.0419 1.25218 13.0419 0.96727C13.0419 0.682357 13.272 0.451393 13.5559 0.451393C13.8397 0.451393 14.0698 0.682357 14.0698 0.96727ZM18.3101 2.64387C18.3101 2.92878 18.0799 3.15975 17.7961 3.15975C17.5123 3.15975 17.2821 2.92878 17.2821 2.64387C17.2821 2.35896 17.5123 2.12799 17.7961 2.12799C18.0799 2.12799 18.3101 2.35896 18.3101 2.64387ZM2.2486 10.64C2.2486 8.93048 3.62927 7.5447 5.3324 7.5447H13.2989C15.002 7.5447 16.3827 8.93048 16.3827 10.64V14.1221C16.3827 15.8316 15.002 17.2174 13.2989 17.2174H5.3324C3.62927 17.2174 2.2486 15.8316 2.2486 14.1221V10.64ZM22.0363 4.83635C22.3202 4.83635 22.5503 4.60538 22.5503 4.32047C22.5503 4.03556 22.3202 3.80459 22.0363 3.80459C21.7525 3.80459 21.5223 4.03556 21.5223 4.32047C21.5223 4.60538 21.7525 4.83635 22.0363 4.83635Z" fill="white"/>
</svg>
