<svg width="26" height="29" viewBox="0 0 26 29" fill="none" xmlns="http://www.w3.org/2000/svg">
<g clip-path="url(#clip0_463_673)">
<path d="M12.5009 13.5151L0.777222 25.798C0.908878 26.2646 1.14547 26.6949 1.46891 27.056C1.79234 27.4171 2.19407 27.6995 2.64337 27.8816C3.09267 28.0637 3.57765 28.1406 4.06124 28.1065C4.54482 28.0724 5.01422 27.9282 5.43353 27.6849L18.6249 20.172L12.5009 13.5151Z" fill="#EA4335"/>
<path d="M24.3556 11.4271L18.6512 8.15967L12.2302 13.7943L18.6773 20.1542L24.3383 16.9218C24.8398 16.6592 25.2598 16.2643 25.5529 15.78C25.846 15.2957 26.001 14.7405 26.001 14.1744C26.001 13.6083 25.846 13.053 25.5529 12.5687C25.2598 12.0844 24.8398 11.6896 24.3383 11.427L24.3556 11.4271Z" fill="#FBBC04"/>
<path d="M0.777148 2.49023C0.706326 2.75222 0.671051 3.02254 0.672272 3.29392V24.9941C0.672971 25.2654 0.708213 25.5355 0.777148 25.7979L12.9027 13.8295L0.777148 2.49023Z" fill="#4285F4"/>
<path d="M12.5883 14.1441L18.6511 8.15997L5.47726 0.612036C4.9816 0.321767 4.41787 0.16804 3.84347 0.16651C2.41804 0.16374 1.16487 1.1098 0.777222 2.48161L12.5883 14.1441Z" fill="#34A853"/>
</g>
<defs>
<clipPath id="clip0_463_673">
<rect width="25.34" height="28" fill="white" transform="translate(0.666626 0.166504)"/>
</clipPath>
</defs>
</svg>
