<svg width="24" height="25" viewBox="0 0 24 25" fill="none" xmlns="http://www.w3.org/2000/svg">
<path d="M7.06455 16.3127C7.25698 15.9796 7.66845 15.8519 8.01196 16.0063L8.07969 16.041L10.9397 17.6923L11.0042 17.7335C11.3095 17.9538 11.4045 18.3743 11.2122 18.7075C11.0198 19.0406 10.6083 19.1682 10.2648 19.0139L10.1971 18.9792L7.33627 17.3279L7.27257 17.2868C6.96707 17.0664 6.87216 16.6459 7.06455 16.3127ZM15.917 16.041C16.2724 15.8358 16.7269 15.9574 16.9321 16.3127C17.1373 16.6681 17.0157 17.1226 16.6604 17.3279L13.8004 18.9792C13.4451 19.1844 12.9906 19.0627 12.7853 18.7075C12.5801 18.3521 12.7017 17.8975 13.057 17.6923L15.917 16.041ZM5.53498 14.2075V10.9048C5.53498 10.4944 5.868 10.1614 6.2784 10.1614C6.6888 10.1614 7.02181 10.4944 7.02181 10.9048V14.2075C7.02181 14.6179 6.6888 14.9509 6.2784 14.9509C5.868 14.9509 5.53498 14.6179 5.53498 14.2075ZM16.9757 14.2075V10.9048C16.9757 10.4944 17.3087 10.1614 17.7191 10.1614C18.1293 10.1616 18.4617 10.4946 18.4617 10.9048V14.2075C18.4617 14.6177 18.1293 14.9507 17.7191 14.9509C17.3087 14.9509 16.9757 14.6179 16.9757 14.2075ZM10.1971 6.13311C10.5524 5.92793 11.007 6.04947 11.2122 6.40484C11.4173 6.76014 11.2956 7.21468 10.9405 7.41998L8.07969 9.07129C7.72432 9.27641 7.26977 9.15484 7.06455 8.79957C6.85944 8.44422 6.98104 7.98966 7.33627 7.78443L10.1971 6.13311ZM12.7853 6.40484C12.9778 6.07171 13.3892 5.94389 13.7327 6.09844L13.8004 6.13311L16.6604 7.78443L16.7241 7.82555C17.0296 8.04585 17.1245 8.46635 16.9321 8.79957C16.7397 9.1327 16.3282 9.26044 15.9847 9.10596L15.917 9.07129L13.057 7.41998L12.9933 7.37885C12.6877 7.15857 12.5929 6.73809 12.7853 6.40484Z" fill="white"/>
<path d="M12.9065 19.1614C12.9065 18.9205 12.8107 18.6899 12.6404 18.5196C12.4701 18.3493 12.2394 18.2535 11.9986 18.2535C11.7577 18.2535 11.5271 18.3493 11.3567 18.5196C11.1864 18.6899 11.0907 18.9205 11.0907 19.1614C11.0907 19.4023 11.1864 19.6329 11.3567 19.8032C11.5271 19.9736 11.7577 20.0693 11.9986 20.0693C12.2394 20.0693 12.4701 19.9736 12.6404 19.8032C12.8107 19.6329 12.9065 19.4023 12.9065 19.1614ZM7.12282 15.7693C7.10223 15.5613 7.00987 15.3661 6.86077 15.217C6.69045 15.0466 6.45983 14.9509 6.21895 14.9509C5.97808 14.9509 5.74746 15.0466 5.57713 15.217C5.40681 15.3873 5.31105 15.6179 5.31105 15.8588C5.31105 16.0997 5.40681 16.3303 5.57713 16.5006C5.74746 16.6709 5.97808 16.7667 6.21895 16.7667C6.45983 16.7667 6.69045 16.6709 6.86077 16.5006C7.0311 16.3303 7.12685 16.0997 7.12685 15.8588L7.12282 15.7693ZM18.6861 15.8588C18.6861 15.6179 18.5903 15.3873 18.42 15.217C18.2497 15.0466 18.019 14.9509 17.7782 14.9509C17.5373 14.9509 17.3067 15.0466 17.1363 15.217C16.966 15.3873 16.8703 15.6179 16.8703 15.8588C16.8703 16.0997 16.966 16.3303 17.1363 16.5006C17.3067 16.6709 17.5373 16.7667 17.7782 16.7667C18.019 16.7667 18.2497 16.6709 18.42 16.5006C18.5903 16.3303 18.6861 16.0997 18.6861 15.8588ZM12.9065 12.5562C12.9065 12.3153 12.8107 12.0847 12.6404 11.9143C12.4701 11.744 12.2394 11.6483 11.9986 11.6483C11.7577 11.6483 11.5271 11.744 11.3567 11.9143C11.1864 12.0847 11.0907 12.3153 11.0907 12.5562C11.0907 12.797 11.1864 13.0276 11.3567 13.198C11.5271 13.3683 11.7577 13.4641 11.9986 13.4641C12.2394 13.4641 12.4701 13.3683 12.6404 13.198C12.8107 13.0276 12.9065 12.797 12.9065 12.5562ZM7.12282 9.16402C7.10223 8.956 7.00987 8.7608 6.86077 8.6117C6.71167 8.4626 6.51647 8.37024 6.30845 8.34965L6.21895 8.34562C5.97807 8.34562 5.74746 8.44137 5.57713 8.6117C5.40681 8.78202 5.31105 9.01264 5.31105 9.25352L5.31508 9.34302C5.33567 9.55103 5.42803 9.74624 5.57713 9.89534C5.74746 10.0657 5.97808 10.1614 6.21895 10.1614C6.45983 10.1614 6.69045 10.0657 6.86077 9.89534C7.0311 9.72501 7.12685 9.49439 7.12685 9.25352L7.12282 9.16402ZM18.6861 9.25352C18.6861 9.01264 18.5903 8.78202 18.42 8.6117C18.2709 8.4626 18.0757 8.37024 17.8677 8.34965L17.7782 8.34562C17.5373 8.34562 17.3067 8.44137 17.1363 8.6117C16.966 8.78202 16.8703 9.01264 16.8703 9.25352C16.8703 9.49439 16.966 9.72501 17.1363 9.89534C17.3067 10.0657 17.5373 10.1614 17.7782 10.1614C18.019 10.1614 18.2497 10.0657 18.42 9.89534C18.5903 9.72501 18.6861 9.49439 18.6861 9.25352ZM12.9065 5.95088C12.9065 5.71001 12.8107 5.47939 12.6404 5.30906C12.4701 5.13874 12.2394 5.04298 11.9986 5.04298C11.7577 5.04298 11.5271 5.13874 11.3567 5.30906C11.1864 5.47939 11.0907 5.71001 11.0907 5.95088C11.0907 6.19176 11.1864 6.42238 11.3567 6.59271C11.5271 6.76303 11.7577 6.85879 11.9986 6.85879L12.0881 6.85475C12.2961 6.83416 12.4913 6.7418 12.6404 6.59271C12.8107 6.42238 12.9065 6.19176 12.9065 5.95088ZM14.3933 19.1614C14.3933 19.7965 14.1408 20.4056 13.6918 20.8547C13.2428 21.3037 12.6336 21.5562 11.9986 21.5562C11.3635 21.5562 10.7544 21.3037 10.3053 20.8547C9.85628 20.4056 9.60383 19.7965 9.60383 19.1614C9.60383 18.5264 9.85628 17.9172 10.3053 17.4682C10.7544 17.0191 11.3635 16.7667 11.9986 16.7667C12.6336 16.7667 13.2428 17.0191 13.6918 17.4682C14.1408 17.9172 14.3933 18.5264 14.3933 19.1614ZM8.60159 16.0958C8.54709 16.6438 8.30501 17.1592 7.9122 17.552C7.46316 18.0011 6.85399 18.2535 6.21895 18.2535C5.58391 18.2535 4.97474 18.0011 4.52571 17.552C4.07667 17.103 3.82422 16.4938 3.82422 15.8588C3.82422 15.2237 4.07667 14.6146 4.52571 14.1655C4.97474 13.7165 5.58391 13.4641 6.21895 13.4641C6.85399 13.4641 7.46316 13.7165 7.9122 14.1655C8.36123 14.6146 8.61368 15.2237 8.61368 15.8588L8.60159 16.0958ZM20.1729 15.8588C20.1729 16.4938 19.9205 17.103 19.4714 17.552C19.0224 18.0011 18.4132 18.2535 17.7782 18.2535C17.1431 18.2535 16.534 18.0011 16.0849 17.552C15.6359 17.103 15.3834 16.4938 15.3834 15.8588C15.3834 15.2237 15.6359 14.6146 16.0849 14.1655C16.534 13.7165 17.1431 13.4641 17.7782 13.4641C18.4132 13.4641 19.0224 13.7165 19.4714 14.1655C19.9205 14.6146 20.1729 15.2237 20.1729 15.8588ZM14.3933 12.5562C14.3933 13.1912 14.1408 13.8004 13.6918 14.2494C13.2428 14.6984 12.6336 14.9509 11.9986 14.9509C11.3635 14.9509 10.7544 14.6984 10.3053 14.2494C9.85628 13.8004 9.60383 13.1912 9.60383 12.5562C9.60383 11.9211 9.85628 11.3119 10.3053 10.8629C10.7544 10.4139 11.3635 10.1614 11.9986 10.1614C12.6336 10.1614 13.2428 10.4139 13.6918 10.8629C14.1408 11.3119 14.3933 11.9211 14.3933 12.5562ZM8.60159 9.49057C8.54709 10.0386 8.30501 10.5539 7.9122 10.9468C7.46316 11.3958 6.85399 11.6483 6.21895 11.6483C5.58391 11.6483 4.97474 11.3958 4.52571 10.9468C4.13289 10.5539 3.89082 10.0386 3.83631 9.49057L3.82422 9.25352C3.82422 8.61848 4.07667 8.00931 4.52571 7.56027C4.97474 7.11123 5.58391 6.85879 6.21895 6.85879L6.45601 6.87088C7.00399 6.92538 7.51938 7.16746 7.9122 7.56027C8.36123 8.00931 8.61368 8.61848 8.61368 9.25352L8.60159 9.49057ZM20.1729 9.25352C20.1729 9.88856 19.9205 10.4977 19.4714 10.9468C19.0224 11.3958 18.4132 11.6483 17.7782 11.6483C17.1431 11.6483 16.534 11.3958 16.0849 10.9468C15.6359 10.4977 15.3834 9.88856 15.3834 9.25352C15.3834 8.61848 15.6359 8.00931 16.0849 7.56027C16.534 7.11123 17.1431 6.85879 17.7782 6.85879L18.0152 6.87088C18.5632 6.92538 19.0786 7.16746 19.4714 7.56027C19.9205 8.00931 20.1729 8.61848 20.1729 9.25352ZM14.3933 5.95088C14.3933 6.58592 14.1408 7.19509 13.6918 7.64413C13.299 8.03694 12.7836 8.27902 12.2356 8.33352L11.9986 8.34562C11.3635 8.34562 10.7544 8.09317 10.3053 7.64413C9.85628 7.19509 9.60383 6.58592 9.60383 5.95088C9.60383 5.31585 9.85628 4.70668 10.3053 4.25764C10.7544 3.8086 11.3635 3.55615 11.9986 3.55615C12.6336 3.55615 13.2428 3.8086 13.6918 4.25764C14.1408 4.70668 14.3933 5.31585 14.3933 5.95088Z" fill="white"/>
</svg>
