<svg width="25" height="24" viewBox="0 0 25 24" fill="none" xmlns="http://www.w3.org/2000/svg">
<path d="M19.49 10.2014C19.2207 9.92 18.9421 9.63 18.8371 9.375C18.74 9.14143 18.7343 8.75429 18.7286 8.37929C18.7179 7.68214 18.7064 6.89214 18.1571 6.34286C17.6079 5.79357 16.8179 5.78214 16.1207 5.77143C15.7457 5.76571 15.3586 5.76 15.125 5.66286C14.8707 5.55786 14.58 5.27929 14.2986 5.01C13.8057 4.53643 13.2457 4 12.5 4C11.7543 4 11.195 4.53643 10.7014 5.01C10.42 5.27929 10.13 5.55786 9.875 5.66286C9.64286 5.76 9.25429 5.76571 8.87929 5.77143C8.18214 5.78214 7.39214 5.79357 6.84286 6.34286C6.29357 6.89214 6.28571 7.68214 6.27143 8.37929C6.26571 8.75429 6.26 9.14143 6.16286 9.375C6.05786 9.62929 5.77929 9.92 5.51 10.2014C5.03643 10.6943 4.5 11.2543 4.5 12C4.5 12.7457 5.03643 13.305 5.51 13.7986C5.77929 14.08 6.05786 14.37 6.16286 14.625C6.26 14.8586 6.26571 15.2457 6.27143 15.6207C6.28214 16.3179 6.29357 17.1079 6.84286 17.6571C7.39214 18.2064 8.18214 18.2179 8.87929 18.2286C9.25429 18.2343 9.64143 18.24 9.875 18.3371C10.1293 18.4421 10.42 18.7207 10.7014 18.99C11.1943 19.4636 11.7543 20 12.5 20C13.2457 20 13.805 19.4636 14.2986 18.99C14.58 18.7207 14.87 18.4421 15.125 18.3371C15.3586 18.24 15.7457 18.2343 16.1207 18.2286C16.8179 18.2179 17.6079 18.2064 18.1571 17.6571C18.7064 17.1079 18.7179 16.3179 18.7286 15.6207C18.7343 15.2457 18.74 14.8586 18.8371 14.625C18.9421 14.3707 19.2207 14.08 19.49 13.7986C19.9636 13.3057 20.5 12.7457 20.5 12C20.5 11.2543 19.9636 10.695 19.49 10.2014ZM15.7614 10.69L11.7614 14.69C11.7084 14.7431 11.6453 14.7853 11.576 14.814C11.5066 14.8428 11.4322 14.8576 11.3571 14.8576C11.282 14.8576 11.2077 14.8428 11.1383 14.814C11.0689 14.7853 11.0059 14.7431 10.9529 14.69L9.23857 12.9757C9.18548 12.9226 9.14337 12.8596 9.11463 12.7902C9.0859 12.7209 9.07111 12.6465 9.07111 12.5714C9.07111 12.4963 9.0859 12.422 9.11463 12.3526C9.14337 12.2833 9.18548 12.2202 9.23857 12.1671C9.34579 12.0599 9.49122 11.9997 9.64286 11.9997C9.71794 11.9997 9.79229 12.0145 9.86166 12.0432C9.93102 12.0719 9.99405 12.1141 10.0471 12.1671L11.3571 13.4779L14.9529 9.88143C15.0059 9.82834 15.069 9.78622 15.1383 9.75749C15.2077 9.72876 15.2821 9.71397 15.3571 9.71397C15.4322 9.71397 15.5066 9.72876 15.5759 9.75749C15.6453 9.78622 15.7083 9.82834 15.7614 9.88143C15.8145 9.93452 15.8566 9.99755 15.8854 10.0669C15.9141 10.1363 15.9289 10.2106 15.9289 10.2857C15.9289 10.3608 15.9141 10.4351 15.8854 10.5045C15.8566 10.5739 15.8145 10.6369 15.7614 10.69Z" fill="white"/>
</svg>
