<svg width="24" height="24" viewBox="0 0 24 24" fill="none" xmlns="http://www.w3.org/2000/svg">
<path d="M18.99 10.2014C18.7207 9.92 18.4421 9.63 18.3371 9.375C18.24 9.14143 18.2343 8.75429 18.2286 8.37929C18.2179 7.68214 18.2064 6.89214 17.6571 6.34286C17.1079 5.79357 16.3179 5.78214 15.6207 5.77143C15.2457 5.76571 14.8586 5.76 14.625 5.66286C14.3707 5.55786 14.08 5.27929 13.7986 5.01C13.3057 4.53643 12.7457 4 12 4C11.2543 4 10.695 4.53643 10.2014 5.01C9.92 5.27929 9.63 5.55786 9.375 5.66286C9.14286 5.76 8.75429 5.76571 8.37929 5.77143C7.68214 5.78214 6.89214 5.79357 6.34286 6.34286C5.79357 6.89214 5.78571 7.68214 5.77143 8.37929C5.76571 8.75429 5.76 9.14143 5.66286 9.375C5.55786 9.62929 5.27929 9.92 5.01 10.2014C4.53643 10.6943 4 11.2543 4 12C4 12.7457 4.53643 13.305 5.01 13.7986C5.27929 14.08 5.55786 14.37 5.66286 14.625C5.76 14.8586 5.76571 15.2457 5.77143 15.6207C5.78214 16.3179 5.79357 17.1079 6.34286 17.6571C6.89214 18.2064 7.68214 18.2179 8.37929 18.2286C8.75429 18.2343 9.14143 18.24 9.375 18.3371C9.62929 18.4421 9.92 18.7207 10.2014 18.99C10.6943 19.4636 11.2543 20 12 20C12.7457 20 13.305 19.4636 13.7986 18.99C14.08 18.7207 14.37 18.4421 14.625 18.3371C14.8586 18.24 15.2457 18.2343 15.6207 18.2286C16.3179 18.2179 17.1079 18.2064 17.6571 17.6571C18.2064 17.1079 18.2179 16.3179 18.2286 15.6207C18.2343 15.2457 18.24 14.8586 18.3371 14.625C18.4421 14.3707 18.7207 14.08 18.99 13.7986C19.4636 13.3057 20 12.7457 20 12C20 11.2543 19.4636 10.695 18.99 10.2014ZM15.2614 10.69L11.2614 14.69C11.2084 14.7431 11.1453 14.7853 11.076 14.814C11.0066 14.8428 10.9322 14.8576 10.8571 14.8576C10.782 14.8576 10.7077 14.8428 10.6383 14.814C10.5689 14.7853 10.5059 14.7431 10.4529 14.69L8.73857 12.9757C8.68548 12.9226 8.64337 12.8596 8.61463 12.7902C8.5859 12.7209 8.57111 12.6465 8.57111 12.5714C8.57111 12.4963 8.5859 12.422 8.61463 12.3526C8.64337 12.2833 8.68548 12.2202 8.73857 12.1671C8.84579 12.0599 8.99122 11.9997 9.14286 11.9997C9.21794 11.9997 9.29229 12.0145 9.36166 12.0432C9.43102 12.0719 9.49405 12.1141 9.54714 12.1671L10.8571 13.4779L14.4529 9.88143C14.5059 9.82834 14.569 9.78622 14.6383 9.75749C14.7077 9.72876 14.7821 9.71397 14.8571 9.71397C14.9322 9.71397 15.0066 9.72876 15.0759 9.75749C15.1453 9.78622 15.2083 9.82834 15.2614 9.88143C15.3145 9.93452 15.3566 9.99755 15.3854 10.0669C15.4141 10.1363 15.4289 10.2106 15.4289 10.2857C15.4289 10.3608 15.4141 10.4351 15.3854 10.5045C15.3566 10.5739 15.3145 10.6369 15.2614 10.69Z" fill="#1CB496"/>
</svg>
