<svg width="49" height="48" viewBox="0 0 49 48" fill="none" xmlns="http://www.w3.org/2000/svg">
<g clip-path="url(#clip0_2076_6925)">
<path d="M24.5 4C35.546 4 44.5 12.954 44.5 24C44.5 35.046 35.546 44 24.5 44C13.454 44 4.5 35.046 4.5 24C4.5 12.954 13.454 4 24.5 4ZM24.5 30C23.9696 30 23.4609 30.2107 23.0858 30.5858C22.7107 30.9609 22.5 31.4696 22.5 32C22.5 32.5304 22.7107 33.0391 23.0858 33.4142C23.4609 33.7893 23.9696 34 24.5 34C25.0304 34 25.5391 33.7893 25.9142 33.4142C26.2893 33.0391 26.5 32.5304 26.5 32C26.5 31.4696 26.2893 30.9609 25.9142 30.5858C25.5391 30.2107 25.0304 30 24.5 30ZM24.5 12C24.0101 12.0001 23.5373 12.1799 23.1713 12.5054C22.8052 12.8309 22.5713 13.2795 22.514 13.766L22.5 14V26C22.5006 26.5098 22.6958 27.0001 23.0457 27.3707C23.3956 27.7414 23.8739 27.9645 24.3828 27.9943C24.8917 28.0242 25.3928 27.8587 25.7837 27.5315C26.1746 27.2043 26.4258 26.7402 26.486 26.234L26.5 26V14C26.5 13.4696 26.2893 12.9609 25.9142 12.5858C25.5391 12.2107 25.0304 12 24.5 12Z" fill="#B3261E"/>
</g>
<defs>
<clipPath id="clip0_2076_6925">
<rect width="48" height="48" fill="white" transform="translate(0.5)"/>
</clipPath>
</defs>
</svg>
