<svg width="24" height="24" viewBox="0 0 24 24" fill="none" xmlns="http://www.w3.org/2000/svg">
<path d="M7.06455 15.7566C7.25698 15.4235 7.66845 15.2957 8.01196 15.4502L8.07969 15.4849L10.9397 17.1362L11.0042 17.1773C11.3095 17.3976 11.4045 17.8182 11.2122 18.1513C11.0198 18.4845 10.6083 18.6121 10.2648 18.4577L10.1971 18.423L7.33627 16.7717L7.27257 16.7306C6.96707 16.5103 6.87216 16.0898 7.06455 15.7566ZM15.917 15.4849C16.2724 15.2797 16.7269 15.4013 16.9321 15.7566C17.1373 16.1119 17.0157 16.5665 16.6604 16.7717L13.8004 18.423C13.4451 18.6282 12.9906 18.5066 12.7853 18.1513C12.5801 17.7959 12.7017 17.3414 13.057 17.1362L15.917 15.4849ZM5.53498 13.6513V10.3487C5.53498 9.93828 5.868 9.60527 6.2784 9.60527C6.6888 9.60527 7.02181 9.93828 7.02181 10.3487V13.6513C7.02181 14.0617 6.6888 14.3947 6.2784 14.3947C5.868 14.3947 5.53498 14.0617 5.53498 13.6513ZM16.9757 13.6513V10.3487C16.9757 9.93828 17.3087 9.60527 17.7191 9.60527C18.1293 9.60547 18.4617 9.93841 18.4617 10.3487V13.6513C18.4617 14.0616 18.1293 14.3945 17.7191 14.3947C17.3087 14.3947 16.9757 14.0617 16.9757 13.6513ZM10.1971 5.57696C10.5524 5.37178 11.007 5.49332 11.2122 5.84868C11.4173 6.20398 11.2956 6.65853 10.9405 6.86382L8.07969 8.51514C7.72432 8.72026 7.26977 8.59869 7.06455 8.24342C6.85944 7.88807 6.98104 7.43351 7.33627 7.22827L10.1971 5.57696ZM12.7853 5.84868C12.9778 5.51556 13.3892 5.38774 13.7327 5.54229L13.8004 5.57696L16.6604 7.22827L16.7241 7.2694C17.0296 7.4897 17.1245 7.9102 16.9321 8.24342C16.7397 8.57655 16.3282 8.70429 15.9847 8.54981L15.917 8.51514L13.057 6.86382L12.9933 6.8227C12.6877 6.60242 12.5929 6.18194 12.7853 5.84868Z" fill="white"/>
<path d="M12.9065 18.6053C12.9065 18.3644 12.8107 18.1338 12.6404 17.9634C12.4701 17.7931 12.2394 17.6974 11.9986 17.6974C11.7577 17.6974 11.5271 17.7931 11.3567 17.9634C11.1864 18.1338 11.0907 18.3644 11.0907 18.6053C11.0907 18.8461 11.1864 19.0768 11.3567 19.2471C11.5271 19.4174 11.7577 19.5132 11.9986 19.5132C12.2394 19.5132 12.4701 19.4174 12.6404 19.2471C12.8107 19.0768 12.9065 18.8461 12.9065 18.6053ZM7.12282 15.2131C7.10223 15.0051 7.00987 14.8099 6.86077 14.6608C6.69045 14.4905 6.45983 14.3947 6.21895 14.3947C5.97808 14.3947 5.74746 14.4905 5.57713 14.6608C5.40681 14.8311 5.31105 15.0618 5.31105 15.3026C5.31105 15.5435 5.40681 15.7741 5.57713 15.9445C5.74746 16.1148 5.97808 16.2105 6.21895 16.2105C6.45983 16.2105 6.69045 16.1148 6.86077 15.9445C7.0311 15.7741 7.12685 15.5435 7.12685 15.3026L7.12282 15.2131ZM18.6861 15.3026C18.6861 15.0618 18.5903 14.8311 18.42 14.6608C18.2497 14.4905 18.019 14.3947 17.7782 14.3947C17.5373 14.3947 17.3067 14.4905 17.1363 14.6608C16.966 14.8311 16.8703 15.0618 16.8703 15.3026C16.8703 15.5435 16.966 15.7741 17.1363 15.9445C17.3067 16.1148 17.5373 16.2105 17.7782 16.2105C18.019 16.2105 18.2497 16.1148 18.42 15.9445C18.5903 15.7741 18.6861 15.5435 18.6861 15.3026ZM12.9065 12C12.9065 11.7591 12.8107 11.5285 12.6404 11.3582C12.4701 11.1879 12.2394 11.0921 11.9986 11.0921C11.7577 11.0921 11.5271 11.1879 11.3567 11.3582C11.1864 11.5285 11.0907 11.7591 11.0907 12C11.0907 12.2409 11.1864 12.4715 11.3567 12.6418C11.5271 12.8121 11.7577 12.9079 11.9986 12.9079C12.2394 12.9079 12.4701 12.8121 12.6404 12.6418C12.8107 12.4715 12.9065 12.2409 12.9065 12ZM7.12282 8.60787C7.10223 8.39985 7.00987 8.20465 6.86077 8.05555C6.71167 7.90645 6.51647 7.81409 6.30845 7.7935L6.21895 7.78946C5.97807 7.78946 5.74746 7.88522 5.57713 8.05555C5.40681 8.22587 5.31105 8.45649 5.31105 8.69737L5.31508 8.78687C5.33567 8.99488 5.42803 9.19009 5.57713 9.33919C5.74746 9.50951 5.97808 9.60527 6.21895 9.60527C6.45983 9.60527 6.69045 9.50951 6.86077 9.33919C7.0311 9.16886 7.12685 8.93824 7.12685 8.69737L7.12282 8.60787ZM18.6861 8.69737C18.6861 8.45649 18.5903 8.22587 18.42 8.05555C18.2709 7.90645 18.0757 7.81409 17.8677 7.7935L17.7782 7.78946C17.5373 7.78946 17.3067 7.88522 17.1363 8.05555C16.966 8.22587 16.8703 8.45649 16.8703 8.69737C16.8703 8.93824 16.966 9.16886 17.1363 9.33919C17.3067 9.50951 17.5373 9.60527 17.7782 9.60527C18.019 9.60527 18.2497 9.50951 18.42 9.33919C18.5903 9.16886 18.6861 8.93824 18.6861 8.69737ZM12.9065 5.39473C12.9065 5.15386 12.8107 4.92324 12.6404 4.75291C12.4701 4.58259 12.2394 4.48683 11.9986 4.48683C11.7577 4.48683 11.5271 4.58259 11.3567 4.75291C11.1864 4.92324 11.0907 5.15386 11.0907 5.39473C11.0907 5.63561 11.1864 5.86623 11.3567 6.03655C11.5271 6.20688 11.7577 6.30263 11.9986 6.30263L12.0881 6.2986C12.2961 6.27801 12.4913 6.18565 12.6404 6.03655C12.8107 5.86623 12.9065 5.63561 12.9065 5.39473ZM14.3933 18.6053C14.3933 19.2403 14.1408 19.8495 13.6918 20.2985C13.2428 20.7476 12.6336 21 11.9986 21C11.3635 21 10.7544 20.7476 10.3053 20.2985C9.85628 19.8495 9.60383 19.2403 9.60383 18.6053C9.60383 17.9702 9.85628 17.3611 10.3053 16.912C10.7544 16.463 11.3635 16.2105 11.9986 16.2105C12.6336 16.2105 13.2428 16.463 13.6918 16.912C14.1408 17.3611 14.3933 17.9702 14.3933 18.6053ZM8.60159 15.5397C8.54709 16.0877 8.30501 16.6031 7.9122 16.9959C7.46316 17.4449 6.85399 17.6974 6.21895 17.6974C5.58391 17.6974 4.97474 17.4449 4.52571 16.9959C4.07667 16.5468 3.82422 15.9377 3.82422 15.3026C3.82422 14.6676 4.07667 14.0584 4.52571 13.6094C4.97474 13.1604 5.58391 12.9079 6.21895 12.9079C6.85399 12.9079 7.46316 13.1604 7.9122 13.6094C8.36123 14.0584 8.61368 14.6676 8.61368 15.3026L8.60159 15.5397ZM20.1729 15.3026C20.1729 15.9377 19.9205 16.5468 19.4714 16.9959C19.0224 17.4449 18.4132 17.6974 17.7782 17.6974C17.1431 17.6974 16.534 17.4449 16.0849 16.9959C15.6359 16.5468 15.3834 15.9377 15.3834 15.3026C15.3834 14.6676 15.6359 14.0584 16.0849 13.6094C16.534 13.1604 17.1431 12.9079 17.7782 12.9079C18.4132 12.9079 19.0224 13.1604 19.4714 13.6094C19.9205 14.0584 20.1729 14.6676 20.1729 15.3026ZM14.3933 12C14.3933 12.635 14.1408 13.2442 13.6918 13.6932C13.2428 14.1423 12.6336 14.3947 11.9986 14.3947C11.3635 14.3947 10.7544 14.1423 10.3053 13.6932C9.85628 13.2442 9.60383 12.635 9.60383 12C9.60383 11.365 9.85628 10.7558 10.3053 10.3068C10.7544 9.85772 11.3635 9.60527 11.9986 9.60527C12.6336 9.60527 13.2428 9.85772 13.6918 10.3068C14.1408 10.7558 14.3933 11.365 14.3933 12ZM8.60159 8.93442C8.54709 9.48241 8.30501 9.9978 7.9122 10.3906C7.46316 10.8396 6.85399 11.0921 6.21895 11.0921C5.58391 11.0921 4.97474 10.8396 4.52571 10.3906C4.13289 9.9978 3.89082 9.48241 3.83631 8.93442L3.82422 8.69737C3.82422 8.06233 4.07667 7.45316 4.52571 7.00412C4.97474 6.55508 5.58391 6.30263 6.21895 6.30263L6.45601 6.31473C7.00399 6.36923 7.51938 6.61131 7.9122 7.00412C8.36123 7.45316 8.61368 8.06233 8.61368 8.69737L8.60159 8.93442ZM20.1729 8.69737C20.1729 9.3324 19.9205 9.94157 19.4714 10.3906C19.0224 10.8396 18.4132 11.0921 17.7782 11.0921C17.1431 11.0921 16.534 10.8396 16.0849 10.3906C15.6359 9.94157 15.3834 9.3324 15.3834 8.69737C15.3834 8.06233 15.6359 7.45316 16.0849 7.00412C16.534 6.55508 17.1431 6.30263 17.7782 6.30263L18.0152 6.31473C18.5632 6.36923 19.0786 6.61131 19.4714 7.00412C19.9205 7.45316 20.1729 8.06233 20.1729 8.69737ZM14.3933 5.39473C14.3933 6.02977 14.1408 6.63894 13.6918 7.08798C13.299 7.48079 12.7836 7.72287 12.2356 7.77737L11.9986 7.78946C11.3635 7.78946 10.7544 7.53702 10.3053 7.08798C9.85628 6.63894 9.60383 6.02977 9.60383 5.39473C9.60383 4.75969 9.85628 4.15053 10.3053 3.70149C10.7544 3.25245 11.3635 3 11.9986 3C12.6336 3 13.2428 3.25245 13.6918 3.70149C14.1408 4.15053 14.3933 4.75969 14.3933 5.39473Z" fill="white"/>
</svg>
