<svg width="24" height="24" viewBox="0 0 24 24" fill="none" xmlns="http://www.w3.org/2000/svg">
<path d="M19.6102 15.1603C19.9635 15.5187 19.9594 16.0956 19.6011 16.4489C19.2448 16.8001 18.672 16.7984 18.3178 16.445L15.0742 13.2078C14.6828 12.8171 14.6828 12.1829 15.0742 11.7922L18.3178 8.55504C18.672 8.20164 19.2448 8.19988 19.6011 8.5511C19.9594 8.9044 19.9635 9.48134 19.6102 9.83966L16.9867 12.5L19.6102 15.1603ZM3.75 7.91667C3.75 7.41041 4.16041 7 4.66667 7H14.75C15.2563 7 15.6667 7.41041 15.6667 7.91667C15.6667 8.42293 15.2563 8.83333 14.75 8.83333H4.66667C4.16041 8.83333 3.75 8.42293 3.75 7.91667ZM4.66667 13.4167C4.16041 13.4167 3.75 13.0063 3.75 12.5C3.75 11.9937 4.16041 11.5833 4.66667 11.5833H12C12.5063 11.5833 12.9167 11.9937 12.9167 12.5C12.9167 13.0063 12.5063 13.4167 12 13.4167H4.66667ZM4.66667 18C4.16041 18 3.75 17.5896 3.75 17.0833C3.75 16.5771 4.16041 16.1667 4.66667 16.1667H14.75C15.2563 16.1667 15.6667 16.5771 15.6667 17.0833C15.6667 17.5896 15.2563 18 14.75 18H4.66667Z" fill="#666666"/>
</svg>
