<svg width="24" height="24" viewBox="0 0 24 24" fill="none" xmlns="http://www.w3.org/2000/svg">
<path d="M9.73815 4.02673C9.9809 3.98941 10.228 3.99118 10.4702 4.03198L10.5908 4.0552L10.5916 4.05595L10.7362 4.09416C11.0698 4.19823 11.3805 4.39258 11.7379 4.60741L11.7372 4.60816L12.0114 4.7715L12.0152 4.77374L12.0444 4.79173C12.0528 4.79685 12.0587 4.80029 12.0631 4.80296L12.0646 4.80371L12.0758 4.80971C12.1828 4.86928 12.3026 4.90247 12.425 4.90636H12.5501C12.558 4.90626 12.5565 4.90681 12.5516 4.90711C12.5595 4.90662 12.5677 4.90586 12.5756 4.90561L12.667 4.89737C12.7272 4.88833 12.7854 4.87213 12.8408 4.84942L12.9218 4.81046C12.943 4.79839 12.9551 4.79203 12.9839 4.77449L12.9892 4.77075L13.2612 4.60891L13.2627 4.60816C13.665 4.36745 14.0129 4.14758 14.4023 4.06045L14.5222 4.03722C14.8037 3.98962 15.0923 3.99496 15.3726 4.05296L15.3718 4.0537C15.7631 4.13448 16.1149 4.34661 16.5235 4.58193L16.9018 4.79997L17.2008 4.97305C17.4882 5.1424 17.7408 5.30919 17.9403 5.53274L18.0197 5.62715C18.1986 5.85055 18.3343 6.10557 18.4198 6.37941C18.5395 6.76105 18.5233 7.17266 18.515 7.64116L18.5105 7.9641C18.5104 7.97321 18.5102 7.98272 18.5097 7.99182C18.5039 8.10885 18.5247 8.2252 18.5704 8.33198L18.6244 8.43538L18.6394 8.46085L18.6566 8.49008C18.6611 8.49801 18.6642 8.50286 18.6663 8.50656L18.6626 8.50131L18.6761 8.52229C18.7397 8.62485 18.8269 8.71069 18.9301 8.7733L18.9975 8.81226L19.2792 8.96885L19.28 8.9696L19.5789 9.13594C19.8669 9.29974 20.1212 9.46225 20.3237 9.68215L20.4039 9.77431C20.5598 9.96239 20.6847 10.1741 20.774 10.4014L20.816 10.5161L20.8167 10.5176L20.8572 10.6607C20.9396 10.9987 20.9338 11.3635 20.9344 11.7763L20.9358 12.2169V12.5593C20.9333 12.8908 20.9158 13.1922 20.8227 13.4764L20.822 13.4779C20.7198 13.7877 20.5525 14.0757 20.3282 14.3186L20.3274 14.3178C20.1235 14.5391 19.8668 14.7025 19.5767 14.867L19.2755 15.0349L18.9983 15.1885L18.9968 15.1892L18.9308 15.2252C18.8272 15.2877 18.7401 15.3742 18.6761 15.4769L18.6746 15.4784L18.6334 15.5489C18.6306 15.5535 18.628 15.5585 18.6251 15.5631C18.5517 15.6816 18.5116 15.8178 18.5097 15.9572V16.0306L18.5157 16.3685L18.521 16.708C18.5233 17.0371 18.51 17.3373 18.4213 17.6221L18.4206 17.6236C18.3236 17.9327 18.1634 18.2213 17.9433 18.468L17.9426 18.4672C17.6787 18.764 17.32 18.9621 16.9161 19.197L16.9153 19.1978L16.5354 19.418C16.1777 19.6256 15.8629 19.8162 15.5277 19.9155L15.3823 19.9523L15.3801 19.953C15.0596 20.0191 14.729 20.0151 14.4098 19.9433C14.1159 19.878 13.8462 19.7391 13.5579 19.5701L13.2612 19.3926L12.9742 19.2195L12.9218 19.188C12.8403 19.1435 12.753 19.1146 12.6648 19.1011L12.5749 19.0929H12.4227L12.4235 19.0936C12.3045 19.0973 12.1885 19.1283 12.0833 19.185L12.0107 19.227L12.0114 19.2277L11.7394 19.3903L11.7387 19.3896C11.3345 19.6319 10.9868 19.8517 10.5961 19.9388L10.5968 19.9395C10.2778 20.011 9.94735 20.0132 9.62726 19.947C9.23599 19.8663 8.88462 19.6528 8.47639 19.418H8.4749L8.09652 19.1993C7.68832 18.9635 7.32494 18.7649 7.05879 18.4665C6.86747 18.252 6.71792 18.0047 6.61823 17.7367L6.57852 17.6206C6.45916 17.2389 6.47505 16.8271 6.48336 16.3521L6.48861 16.0404L6.48936 16.0141L6.48786 15.9108C6.47941 15.8106 6.45113 15.7129 6.40469 15.623L6.35823 15.5391C6.35538 15.534 6.35273 15.5286 6.34999 15.5234C6.30086 15.4304 6.23288 15.349 6.15144 15.2836L6.06602 15.2237L6.05553 15.2177C6.05553 15.2177 6.05316 15.2162 6.05179 15.2154C6.04557 15.212 6.03983 15.2085 6.02931 15.2027C6.01954 15.1973 6.00749 15.1914 5.99409 15.184L5.71986 15.0311C5.35883 14.8303 5.03695 14.6591 4.78104 14.4235L4.6754 14.3186L4.6739 14.3171C4.48045 14.1068 4.32815 13.8625 4.22434 13.597L4.18313 13.4816C4.05813 13.1041 4.06468 12.6975 4.064 12.2236L4.0625 11.7921V11.4444C4.06542 11.1106 4.0838 10.8094 4.17639 10.5251L4.17714 10.5221L4.2191 10.4059C4.32348 10.1388 4.47729 9.89339 4.6724 9.68215C4.9441 9.38658 5.30995 9.19434 5.72436 8.96511L5.99634 8.81376L6.06602 8.77405C6.171 8.71114 6.26006 8.62484 6.32452 8.5208L6.33351 8.50656C6.33867 8.49766 6.35132 8.47556 6.36573 8.45111L6.37472 8.43538C6.44823 8.31701 6.48812 8.1806 6.4901 8.04127V8.03752C6.48964 8.02265 6.48878 7.99835 6.48861 7.96709L6.47812 7.29875C6.47579 6.96592 6.48947 6.66476 6.57777 6.37941V6.37791L6.61748 6.26178C6.71684 5.99417 6.8656 5.74732 7.0558 5.53349C7.31806 5.23819 7.67244 5.04042 8.07554 4.80746C8.07957 4.80502 8.08345 4.80233 8.08753 4.79997L8.46216 4.58268L8.47939 4.57444C8.88206 4.34062 9.22918 4.1295 9.61677 4.04846L9.73815 4.02673ZM10.0116 5.53799L9.93071 5.55073C9.86141 5.56523 9.78607 5.59643 9.54184 5.73355L9.23465 5.90962C9.23325 5.91043 9.23155 5.91107 9.23015 5.91187L8.86376 6.12391L8.85327 6.1314C8.35818 6.41768 8.26394 6.48369 8.20291 6.55249L8.20216 6.55324C8.1301 6.63427 8.07508 6.72927 8.04257 6.83271L8.04332 6.83346C8.02234 6.90143 8.01257 6.98411 8.01335 7.26354L8.01785 7.61569L8.02309 7.94162V7.95435C8.02309 7.96672 8.02341 7.97571 8.02384 7.98957C8.02404 7.99579 8.02437 8.00826 8.02459 8.02104C8.02483 8.03522 8.02531 8.05478 8.02459 8.07723L8.02384 8.07648C8.01573 8.4841 7.8991 8.88168 7.68667 9.2296L7.68742 9.23035C7.67668 9.24858 7.67064 9.25847 7.66045 9.27605C7.65352 9.28801 7.64201 9.30667 7.62823 9.3285L7.62898 9.32925C7.45922 9.60324 7.23365 9.83763 6.96813 10.0186L6.852 10.0935L6.83476 10.1032L6.7486 10.1512L6.74485 10.1542L6.46763 10.307L6.46688 10.3078C5.959 10.5887 5.86407 10.6523 5.80153 10.7206L5.79929 10.7229C5.72493 10.8034 5.66881 10.899 5.63445 11.0031C5.60536 11.0943 5.59618 11.2148 5.59699 11.7861L5.59848 12.2184V12.2199L5.60148 12.5713C5.60611 12.8495 5.6174 12.9317 5.63969 12.9991L5.66891 13.0756C5.70252 13.1497 5.74844 13.2177 5.80378 13.2779C5.86797 13.3471 5.96409 13.4112 6.46538 13.6899L6.74036 13.8428L6.74111 13.8435L6.7943 13.8728C6.80923 13.881 6.83023 13.8934 6.85424 13.908C6.85579 13.9089 6.85795 13.91 6.85949 13.911C6.86119 13.912 6.86301 13.9129 6.86473 13.914C7.2158 14.1267 7.50253 14.4293 7.69716 14.7906L7.74961 14.8828L7.7571 14.8978L7.82529 15.0379C7.96908 15.3603 8.0363 15.7119 8.02234 16.0658L8.02309 16.0666L8.01785 16.379C8.00774 16.9567 8.01536 17.0734 8.04332 17.1628L8.07179 17.2392C8.09356 17.2895 8.12085 17.3371 8.15271 17.3815L8.20366 17.4452L8.26211 17.5007C8.3384 17.5618 8.48582 17.6523 8.86301 17.8701L9.24064 18.0881C9.74222 18.3765 9.84538 18.4258 9.93745 18.4447L10.0184 18.4567C10.0994 18.4647 10.1813 18.4596 10.2611 18.4418H10.2626L10.3383 18.4178C10.4284 18.3812 10.5782 18.2971 10.9505 18.0739L11.2299 17.9068L11.3168 17.8558L11.3318 17.8476C11.6511 17.6707 12.0081 17.5714 12.3755 17.5599L12.3935 17.5591L12.4932 17.5584H12.5988L12.6228 17.5591C12.9448 17.5693 13.2597 17.6475 13.5474 17.7854L13.6688 17.8483L13.6905 17.8611L13.7617 17.903L13.7632 17.9038L14.0501 18.0769C14.4237 18.301 14.5753 18.3856 14.666 18.4223L14.7425 18.4462L14.7455 18.447L14.8264 18.4605C14.9074 18.4699 14.9896 18.4666 15.0699 18.45C15.1614 18.4304 15.2679 18.3788 15.7652 18.0903L16.1458 17.8701C16.6424 17.5812 16.7349 17.5165 16.7962 17.4475L16.7977 17.446L16.8479 17.383C16.8947 17.3175 16.9315 17.2441 16.9565 17.1643C16.9769 17.0982 16.9865 17.0171 16.9857 16.7432L16.9813 16.3963L16.9753 16.0591V15.9377L16.9827 15.7811C17.0118 15.423 17.1245 15.0759 17.3124 14.7681L17.3619 14.6842L17.3701 14.67L17.4465 14.5553C17.6318 14.2928 17.8704 14.0717 18.1471 13.9065L18.1681 13.8937L18.2527 13.8473L18.282 13.8316L18.5315 13.6929L18.8417 13.5184C19.0863 13.3782 19.1519 13.3299 19.1998 13.2779L19.2006 13.2771L19.2523 13.2149C19.3007 13.1496 19.3388 13.076 19.3646 12.9976C19.3936 12.9088 19.403 12.7923 19.4014 12.2221L19.3999 11.7816V11.7801C19.399 11.2049 19.389 11.0896 19.3594 11.0001C19.325 10.8975 19.2695 10.8024 19.1961 10.7229L19.1946 10.7214C19.1318 10.6532 19.0365 10.5896 18.5345 10.3108L18.5322 10.3093L18.2512 10.1527L18.2468 10.1504L18.1598 10.101L18.1434 10.0912C17.8298 9.90301 17.5653 9.64296 17.3724 9.33224L17.3731 9.3315C17.3455 9.28797 17.3196 9.24378 17.3072 9.2221C17.0744 8.83743 16.9591 8.39247 16.976 7.94312L16.9805 7.61644V7.61419L16.985 7.26279C16.9859 6.98424 16.9764 6.90383 16.9558 6.83796C16.9313 6.75963 16.8947 6.68483 16.8471 6.61842L16.7954 6.55474C16.7332 6.48498 16.6382 6.41839 16.1376 6.13065L16.1361 6.12991L15.7577 5.91112C15.3825 5.695 15.2303 5.61375 15.1388 5.57845L15.0616 5.55522C14.9549 5.53313 14.8443 5.53436 14.738 5.55822C14.6473 5.57855 14.5448 5.62939 14.0501 5.92536L14.0464 5.92761L13.7752 6.08945L13.7744 6.0887C13.7239 6.11927 13.6927 6.13772 13.6763 6.14714L13.6695 6.15088C13.3546 6.32647 13.0047 6.42308 12.6468 6.43785L12.6475 6.4386C12.6415 6.43897 12.6355 6.43831 12.6295 6.4386C12.6276 6.43867 12.6255 6.43929 12.6236 6.43935L12.6228 6.4386C12.5776 6.44057 12.5343 6.4416 12.4999 6.4416H12.4939L12.3943 6.44085C12.3881 6.4408 12.3817 6.44029 12.3755 6.4401C12.0085 6.42836 11.6496 6.3289 11.3288 6.15014C11.2887 6.12806 11.2472 6.1023 11.2224 6.0872L10.9482 5.92311C10.4542 5.62618 10.3479 5.57327 10.2551 5.55223C10.1751 5.53434 10.0929 5.52987 10.0116 5.53799Z" fill="white"/>
<path d="M14.7897 11.7722C14.7374 11.2454 14.5043 10.7503 14.1266 10.3726C13.749 9.995 13.2538 9.76191 12.727 9.70954L12.4992 9.6983C11.8888 9.6983 11.3035 9.94097 10.8718 10.3726C10.4402 10.8043 10.1975 11.3896 10.1975 12L10.2087 12.2278C10.2611 12.7546 10.4942 13.2498 10.8718 13.6274C11.3035 14.0591 11.8888 14.3018 12.4992 14.3018L12.727 14.2905C13.2538 14.2381 13.749 14.0051 14.1266 13.6274C14.5583 13.1958 14.801 12.6105 14.801 12L14.7897 11.7722ZM16.331 12.1903C16.2839 13.1385 15.886 14.0379 15.2116 14.7123C14.5371 15.3868 13.6377 15.7847 12.6895 15.8317L12.4992 15.8362C11.4818 15.8362 10.5063 15.4318 9.78691 14.7123C9.11246 14.0379 8.71457 13.1385 8.66752 12.1903L8.66302 12C8.66302 10.9826 9.06748 10.0071 9.78691 9.2877C10.5063 8.56827 11.4818 8.16381 12.4992 8.16381L12.6895 8.16831C13.6377 8.21536 14.5371 8.61325 15.2116 9.2877C15.931 10.0071 16.3355 10.9826 16.3355 12L16.331 12.1903Z" fill="white"/>
</svg>
