<svg width="33" height="40" viewBox="0 0 33 40" fill="none" xmlns="http://www.w3.org/2000/svg">
<path d="M17.7815 23.9114C15.0442 23.9114 12.8364 22.7144 12.7168 22.6483L13.7776 20.7279L13.2472 21.6882L13.7748 20.7266C13.8049 20.743 16.8236 22.36 19.7056 21.4268C21.3774 20.886 22.7239 19.5685 23.7074 17.511L25.6865 18.4571C24.4292 21.0874 22.6372 22.791 20.3601 23.5207C19.4812 23.8027 18.6071 23.9114 17.7815 23.9114Z" fill="white"/>
<path d="M15.9328 17.436C15.9328 18.2988 15.2332 18.9984 14.3704 18.9984C13.5075 18.9984 12.8082 18.2988 12.8082 17.436C12.8082 16.5731 13.5075 15.8736 14.3704 15.8736C15.2332 15.8736 15.9328 16.5731 15.9328 17.436Z" fill="white"/>
<path d="M22.5253 15.6597C22.5253 16.5225 21.8258 17.2221 20.9629 17.2221C20.1001 17.2221 19.4008 16.5225 19.4008 15.6597C19.4008 14.7968 20.1001 14.0973 20.9629 14.0973C21.8258 14.0973 22.5253 14.7968 22.5253 15.6597Z" fill="white"/>
<path d="M32.8003 29.5799C29.2815 33.941 24.0385 36.4462 18.4051 36.4462C16.6941 36.4462 15.0401 36.2138 13.4693 35.7793L7.1077 40L7.54194 32.9276C2.97038 29.6018 0 24.2493 0 18.221C0 8.17391 8.25708 0 18.4051 0C23.4464 0 28.3208 2.07981 31.7823 5.70361L26.263 10.9773C24.201 8.81867 21.4149 7.6342 18.4051 7.6342C12.4646 7.6342 7.6342 12.3814 7.6342 18.221C7.6342 21.9503 9.60398 25.2321 12.5744 27.1185L12.1882 30.7822L15.935 28.5226C16.7292 28.7112 17.554 28.8078 18.4051 28.8078C21.7177 28.8078 24.7977 27.3468 26.8554 24.789L32.8003 29.5799Z" fill="white"/>
</svg>
